GenAI102.ufo
<glyph name="exclam" format="1">
  <advance width="410"/>
  <unicode hex="0021"/>
  <outline>
    <contour>
      <point x="283" y="152" type="qcurve" smooth="yes"/>
      <point x="283" y="121"/>
      <point x="262" y="56"/>
      <point x="223" y="3"/>
      <point x="169" y="-31"/>
      <point x="135" y="-31" type="qcurve" smooth="yes"/>
      <point x="95" y="-31"/>
      <point x="51" y="23"/>
      <point x="51" y="68" type="qcurve" smooth="yes"/>
      <point x="51" y="97"/>
      <point x="74" y="160"/>
      <point x="115" y="212"/>
      <point x="169" y="246"/>
      <point x="201" y="246" type="qcurve" smooth="yes"/>
      <point x="238" y="246"/>
      <point x="283" y="194"/>
    </contour>
    <contour>
      <point x="250" y="389" type="line"/>
      <point x="230" y="375"/>
      <point x="201" y="358"/>
      <point x="176" y="350" type="qcurve"/>
      <point x="152" y="371" type="line"/>
      <point x="238" y="1341" type="line"/>
      <point x="252" y="1351"/>
      <point x="294" y="1379"/>
      <point x="341" y="1407"/>
      <point x="389" y="1430"/>
      <point x="410" y="1436" type="qcurve"/>
      <point x="446" y="1411" type="line"/>
    </contour>
  </outline>
</glyph>
<glyph name="numbersign" format="1">
  <advance width="823"/>
  <unicode hex="0023"/>
  <outline>
    <contour>
      <point x="354" y="590" type="line"/>
      <point x="530" y="590" type="line"/>
      <point x="625" y="846" type="line"/>
      <point x="449" y="846" type="line"/>
    </contour>
    <contour>
      <point x="770" y="961" type="line"/>
      <point x="911" y="961" type="line"/>
      <point x="930" y="936" type="line"/>
      <point x="922" y="914"/>
      <point x="898" y="863"/>
      <point x="889" y="846" type="qcurve"/>
      <point x="728" y="846" type="line"/>
      <point x="633" y="590" type="line"/>
      <point x="778" y="590" type="line"/>
      <point x="797" y="563" type="line"/>
      <point x="789" y="543"/>
      <point x="767" y="492"/>
      <point x="758" y="475" type="qcurve"/>
      <point x="590" y="475" type="line"/>
      <point x="477" y="170" type="line"/>
      <point x="459" y="156"/>
      <point x="413" y="136"/>
      <point x="387" y="127" type="qcurve"/>
      <point x="367" y="147" type="line"/>
      <point x="488" y="475" type="line"/>
      <point x="312" y="475" type="line"/>
      <point x="199" y="170" type="line"/>
      <point x="180" y="156"/>
      <point x="135" y="136"/>
      <point x="109" y="127" type="qcurve"/>
      <point x="86" y="147" type="line"/>
      <point x="208" y="475" type="line"/>
      <point x="74" y="475" type="line"/>
      <point x="55" y="500" type="line"/>
      <point x="63" y="520"/>
      <point x="85" y="570"/>
      <point x="96" y="590" type="qcurve"/>
      <point x="250" y="590" type="line"/>
      <point x="345" y="846" type="line"/>
      <point x="207" y="846" type="line"/>
      <point x="188" y="870" type="line"/>
      <point x="196" y="892"/>
      <point x="218" y="941"/>
      <point x="229" y="961" type="qcurve"/>
      <point x="388" y="961" type="line"/>
      <point x="496" y="1251" type="line"/>
      <point x="517" y="1267"/>
      <point x="562" y="1283"/>
      <point x="584" y="1292" type="qcurve"/>
      <point x="606" y="1270" type="line"/>
      <point x="491" y="961" type="line"/>
      <point x="667" y="961" type="line"/>
      <point x="774" y="1251" type="line"/>
      <point x="796" y="1267"/>
      <point x="841" y="1283"/>
      <point x="862" y="1292" type="qcurve"/>
      <point x="885" y="1270" type="line"/>
    </contour>
  </outline>
</glyph>
<glyph name="dollar" format="1">
  <advance width="823"/>
  <unicode hex="0024"/>
  <outline>
    <contour>
      <point x="249" y="950" type="qcurve" smooth="yes"/>
      <point x="249" y="931"/>
      <point x="262" y="890"/>
      <point x="296" y="846"/>
      <point x="356" y="798"/>
      <point x="404" y="771" type="qcurve"/>
      <point x="455" y="1132" type="line"/>
      <point x="408" y="1129"/>
      <point x="332" y="1094"/>
      <point x="278" y="1042"/>
      <point x="249" y="980"/>
    </contour>
    <contour>
      <point x="614" y="343" type="qcurve" smooth="yes"/>
      <point x="614" y="374"/>
      <point x="597" y="430"/>
      <point x="558" y="482"/>
      <point x="497" y="533"/>
      <point x="453" y="559" type="qcurve"/>
      <point x="388" y="95" type="line"/>
      <point x="436" y="104"/>
      <point x="518" y="150"/>
      <point x="579" y="215"/>
      <point x="614" y="297"/>
    </contour>
    <contour>
      <point x="793" y="1144" type="qcurve" smooth="yes"/>
      <point x="799" y="1140"/>
      <point x="777" y="1101"/>
      <point x="743" y="1056"/>
      <point x="705" y="1017"/>
      <point x="696" y="1011" type="qcurve"/>
      <point x="668" y="1016" type="line"/>
      <point x="644" y="1049"/>
      <point x="574" y="1107"/>
      <point x="533" y="1122" type="qcurve"/>
      <point x="478" y="732" type="line"/>
      <point x="547" y="696"/>
      <point x="646" y="627"/>
      <point x="709" y="553"/>
      <point x="739" y="469"/>
      <point x="739" y="418" type="qcurve" smooth="yes"/>
      <point x="739" y="342"/>
      <point x="682" y="201"/>
      <point x="582" y="85"/>
      <point x="448" y="1"/>
      <point x="372" y="-17" type="qcurve"/>
      <point x="355" y="-138" type="line"/>
      <point x="346" y="-146"/>
      <point x="334" y="-155"/>
      <point x="321" y="-161"/>
      <point x="306" y="-165"/>
      <point x="294" y="-168" type="qcurve"/>
      <point x="274" y="-147" type="line"/>
      <point x="290" y="-30" type="line"/>
      <point x="283" y="-30"/>
      <point x="269" y="-31"/>
      <point x="262" y="-31" type="qcurve" smooth="yes"/>
      <point x="226" y="-31"/>
      <point x="130" y="-6"/>
      <point x="44" y="33"/>
      <point x="-16" y="83"/>
      <point x="-16" y="108" type="qcurve" smooth="yes"/>
      <point x="-16" y="120"/>
      <point x="7" y="164"/>
      <point x="39" y="208"/>
      <point x="75" y="241"/>
      <point x="89" y="241" type="qcurve" smooth="yes"/>
      <point x="99" y="241"/>
      <point x="132" y="198"/>
      <point x="183" y="144"/>
      <point x="256" y="96"/>
      <point x="307" y="91" type="qcurve"/>
      <point x="379" y="599" type="line"/>
      <point x="355" y="611" type="line" smooth="yes"/>
      <point x="292" y="641"/>
      <point x="207" y="709"/>
      <point x="155" y="779"/>
      <point x="133" y="851"/>
      <point x="133" y="885" type="qcurve" smooth="yes"/>
      <point x="133" y="941"/>
      <point x="181" y="1051"/>
      <point x="269" y="1144"/>
      <point x="393" y="1211"/>
      <point x="468" y="1224" type="qcurve"/>
      <point x="484" y="1338" type="line"/>
      <point x="497" y="1346"/>
      <point x="509" y="1353"/>
      <point x="517" y="1358"/>
      <point x="529" y="1362"/>
      <point x="542" y="1366" type="qcurve"/>
      <point x="564" y="1344" type="line"/>
      <point x="548" y="1231" type="line"/>
      <point x="549" y="1231" type="line" smooth="yes"/>
      <point x="621" y="1231"/>
      <point x="747" y="1179"/>
    </contour>
  </outline>
</glyph>
<glyph name="quotesingle" format="1">
  <advance width="410"/>
  <unicode hex="0027"/>
  <outline>
    <contour>
      <point x="305" y="874" type="line"/>
      <point x="288" y="865"/>
      <point x="253" y="858"/>
      <point x="231" y="858" type="qcurve"/>
      <point x="264" y="1382" type="line"/>
      <point x="276" y="1388"/>
      <point x="308" y="1403"/>
      <point x="341" y="1416"/>
      <point x="372" y="1427"/>
      <point x="383" y="1430" type="qcurve"/>
      <point x="420" y="1409" type="line"/>
    </contour>
  </outline>
</glyph>
<glyph name="parenright" format="1">
  <advance width="604"/>
  <unicode hex="0029"/>
  <outline>
    <contour>
      <point x="500" y="627" type="qcurve" smooth="yes"/>
      <point x="477" y="462"/>
      <point x="375" y="164"/>
      <point x="230" y="-83"/>
      <point x="47" y="-266"/>
      <point x="-57" y="-315" type="qcurve"/>
      <point x="-82" y="-270" type="line"/>
      <point x="-14" y="-222"/>
      <point x="118" y="-59"/>
      <point x="231" y="162"/>
      <point x="317" y="437"/>
      <point x="340" y="598" type="qcurve" smooth="yes"/>
      <point x="360" y="743"/>
      <point x="357" y="1031"/>
      <point x="314" y="1286"/>
      <point x="234" y="1494"/>
      <point x="176" y="1559" type="qcurve"/>
      <point x="213" y="1604" type="line"/>
      <point x="307" y="1554"/>
      <point x="436" y="1355"/>
      <point x="508" y="1093"/>
      <point x="522" y="786"/>
    </contour>
  </outline>
</glyph>
<glyph name="plus" format="1">
  <advance width="780"/>
  <unicode hex="002B"/>
  <outline>
    <contour>
      <point x="725" y="594" type="line"/>
      <point x="719" y="574"/>
      <point x="695" y="523"/>
      <point x="686" y="506" type="qcurve"/>
      <point x="440" y="506" type="line"/>
      <point x="401" y="236" type="line"/>
      <point x="392" y="231"/>
      <point x="367" y="222"/>
      <point x="341" y="214"/>
      <point x="315" y="207"/>
      <point x="305" y="205" type="qcurve"/>
      <point x="285" y="227" type="line"/>
      <point x="324" y="506" type="line"/>
      <point x="70" y="506" type="line"/>
      <point x="51" y="530" type="line"/>
      <point x="59" y="550"/>
      <point x="81" y="598"/>
      <point x="92" y="618" type="qcurve"/>
      <point x="340" y="618" type="line"/>
      <point x="379" y="891" type="line"/>
      <point x="396" y="897"/>
      <point x="455" y="915"/>
      <point x="475" y="920" type="qcurve"/>
      <point x="496" y="897" type="line"/>
      <point x="456" y="618" type="line"/>
      <point x="707" y="618" type="line"/>
      <point x="725" y="594" type="line"/>
    </contour>
  </outline>
</glyph>
<glyph name="slash" format="1">
  <advance width="819"/>
  <unicode hex="002F"/>
  <outline>
    <contour>
      <point x="43" y="-285" type="line"/>
      <point x="33" y="-292"/>
      <point x="1" y="-307"/>
      <point x="-35" y="-320"/>
      <point x="-70" y="-332"/>
      <point x="-82" y="-336" type="qcurve"/>
      <point x="-111" y="-311" type="line"/>
      <point x="793" y="1550" type="line"/>
      <point x="820" y="1567"/>
      <point x="884" y="1591"/>
      <point x="913" y="1599" type="qcurve"/>
      <point x="944" y="1577" type="line"/>
    </contour>
  </outline>
</glyph>
<glyph name="zero" format="1">
  <advance width="823"/>
  <unicode hex="0030"/>
  <outline>
    <contour>
      <point x="649" y="786" type="qcurve" smooth="yes"/>
      <point x="649" y="868"/>
      <point x="622" y="993"/>
      <point x="575" y="1077"/>
      <point x="512" y="1120"/>
      <point x="477" y="1120" type="qcurve" smooth="yes"/>
      <point x="421" y="1120"/>
      <point x="336" y="1045"/>
      <point x="274" y="925"/>
      <point x="233" y="775"/>
      <point x="209" y="624"/>
      <point x="199" y="487"/>
      <point x="199" y="440" type="qcurve" smooth="yes"/>
      <point x="199" y="264"/>
      <point x="292" y="86"/>
      <point x="373" y="86" type="qcurve" smooth="yes"/>
      <point x="431" y="86"/>
      <point x="517" y="163"/>
      <point x="578" y="287"/>
      <point x="617" y="442"/>
      <point x="640" y="598"/>
      <point x="649" y="738"/>
    </contour>
    <contour>
      <point x="803" y="784" type="qcurve" smooth="yes"/>
      <point x="803" y="724"/>
      <point x="791" y="587"/>
      <point x="761" y="443"/>
      <point x="710" y="300"/>
      <point x="672" y="236" type="qcurve" smooth="yes"/>
      <point x="639" y="180"/>
      <point x="564" y="83"/>
      <point x="478" y="11"/>
      <point x="377" y="-31"/>
      <point x="319" y="-31" type="qcurve" smooth="yes"/>
      <point x="249" y="-31"/>
      <point x="147" y="38"/>
      <point x="80" y="159"/>
      <point x="47" y="325"/>
      <point x="47" y="422" type="qcurve" smooth="yes"/>
      <point x="47" y="480"/>
      <point x="60" y="614"/>
      <point x="89" y="753"/>
      <point x="137" y="895"/>
      <point x="172" y="961" type="qcurve" smooth="yes"/>
      <point x="203" y="1018"/>
      <point x="278" y="1118"/>
      <point x="366" y="1192"/>
      <point x="468" y="1235"/>
      <point x="528" y="1235" type="qcurve" smooth="yes"/>
      <point x="598" y="1235"/>
      <point x="702" y="1167"/>
      <point x="770" y="1047"/>
      <point x="803" y="881"/>
    </contour>
  </outline>
</glyph>
<glyph name="one" format="1">
  <advance width="823"/>
  <unicode hex="0031"/>
  <outline>
    <contour>
      <point x="666" y="0" type="line"/>
      <point x="63" y="0" type="line"/>
      <point x="70" y="53" type="line"/>
      <point x="142" y="62"/>
      <point x="239" y="85"/>
      <point x="298" y="109"/>
      <point x="324" y="132"/>
      <point x="326" y="143" type="qcurve" smooth="yes"/>
      <point x="434" y="940" type="line" smooth="yes"/>
      <point x="440" y="980"/>
      <point x="441" y="1024"/>
      <point x="432" y="1038" type="qcurve" smooth="yes"/>
      <point x="427" y="1044"/>
      <point x="398" y="1052"/>
      <point x="341" y="1050"/>
      <point x="255" y="1038"/>
      <point x="195" y="1024" type="qcurve"/>
      <point x="182" y="1075" type="line"/>
      <point x="221" y="1087"/>
      <point x="330" y="1129"/>
      <point x="443" y="1178"/>
      <point x="546" y="1227"/>
      <point x="578" y="1245" type="qcurve"/>
      <point x="606" y="1210" type="line"/>
      <point x="461" y="143" type="line" smooth="yes"/>
      <point x="459" y="133"/>
      <point x="476" y="110"/>
      <point x="523" y="86"/>
      <point x="607" y="62"/>
      <point x="674" y="53" type="qcurve"/>
    </contour>
  </outline>
</glyph>
<glyph name="four" format="1">
  <advance width="823"/>
  <unicode hex="0034"/>
  <outline>
    <contour>
      <point x="162" y="455" type="line"/>
      <point x="500" y="455" type="line"/>
      <point x="580" y="1040" type="line"/>
    </contour>
    <contour>
      <point x="756" y="426" type="line"/>
      <point x="744" y="411"/>
      <point x="723" y="389"/>
      <point x="703" y="373"/>
      <point x="684" y="359"/>
      <point x="674" y="350" type="qcurve"/>
      <point x="610" y="350" type="line"/>
      <point x="578" y="104" type="line" smooth="yes"/>
      <point x="576" y="96"/>
      <point x="585" y="83"/>
      <point x="611" y="68"/>
      <point x="658" y="52"/>
      <point x="694" y="43" type="qcurve"/>
      <point x="688" y="0" type="line"/>
      <point x="248" y="0" type="line"/>
      <point x="254" y="43" type="line"/>
      <point x="313" y="54"/>
      <point x="389" y="73"/>
      <point x="433" y="90"/>
      <point x="451" y="106"/>
      <point x="453" y="115" type="qcurve" smooth="yes"/>
      <point x="483" y="350" type="line"/>
      <point x="39" y="350" type="line"/>
      <point x="12" y="383" type="line"/>
      <point x="565" y="1174" type="line"/>
      <point x="607" y="1192"/>
      <point x="673" y="1230"/>
      <point x="700" y="1245" type="qcurve"/>
      <point x="727" y="1210" type="line"/>
      <point x="625" y="457" type="line"/>
      <point x="733" y="457" type="line"/>
      <point x="756" y="426" type="line"/>
    </contour>
  </outline>
</glyph>
<glyph name="six" format="1">
  <advance width="823"/>
  <unicode hex="0036"/>
  <outline>
    <contour>
      <point x="451" y="659" type="qcurve" smooth="yes"/>
      <point x="393" y="659"/>
      <point x="285" y="605"/>
      <point x="228" y="539" type="qcurve"/>
      <point x="221" y="497"/>
      <point x="215" y="415"/>
      <point x="215" y="373" type="qcurve" smooth="yes"/>
      <point x="215" y="223"/>
      <point x="321" y="76"/>
      <point x="412" y="76" type="qcurve" smooth="yes"/>
      <point x="452" y="76"/>
      <point x="515" y="109"/>
      <point x="561" y="165"/>
      <point x="593" y="237"/>
      <point x="612" y="313"/>
      <point x="621" y="390"/>
      <point x="621" y="422" type="qcurve" smooth="yes"/>
      <point x="621" y="493"/>
      <point x="590" y="585"/>
      <point x="541" y="638"/>
      <point x="481" y="659"/>
    </contour>
    <contour>
      <point x="799" y="1190" type="line"/>
      <point x="691" y="1167"/>
      <point x="515" y="1066"/>
      <point x="378" y="925"/>
      <point x="282" y="751"/>
      <point x="254" y="655" type="qcurve"/>
      <point x="323" y="720"/>
      <point x="451" y="770"/>
      <point x="504" y="770" type="qcurve" smooth="yes"/>
      <point x="632" y="770"/>
      <point x="762" y="618"/>
      <point x="762" y="483" type="qcurve" smooth="yes"/>
      <point x="762" y="429"/>
      <point x="737" y="310"/>
      <point x="688" y="196"/>
      <point x="618" y="93"/>
      <point x="529" y="15"/>
      <point x="421" y="-31"/>
      <point x="360" y="-31" type="qcurve" smooth="yes"/>
      <point x="295" y="-31"/>
      <point x="188" y="26"/>
      <point x="111" y="129"/>
      <point x="68" y="273"/>
      <point x="68" y="360" type="qcurve" smooth="yes"/>
      <point x="68" y="468"/>
      <point x="113" y="675"/>
      <point x="200" y="862"/>
      <point x="325" y="1024"/>
      <point x="486" y="1150"/>
      <point x="680" y="1234"/>
      <point x="791" y="1249" type="qcurve"/>
      <point x="799" y="1190" type="line"/>
    </contour>
  </outline>
</glyph>
<glyph name="seven" format="1">
  <advance width="823"/>
  <unicode hex="0037"/>
  <outline>
    <contour>
      <point x="866" y="1167" type="line"/>
      <point x="810" y="1060"/>
      <point x="696" y="839"/>
      <point x="586" y="625"/>
      <point x="485" y="423"/>
      <point x="398" y="244"/>
      <point x="328" y="96"/>
      <point x="305" y="43" type="qcurve"/>
      <point x="239" y="-5"/>
      <point x="150" y="-31" type="qcurve"/>
      <point x="117" y="2" type="line"/>
      <point x="215" y="155"/>
      <point x="378" y="435"/>
      <point x="522" y="699"/>
      <point x="653" y="952"/>
      <point x="721" y="1079" type="qcurve"/>
      <point x="311" y="1079" type="line" smooth="yes"/>
      <point x="298" y="1079"/>
      <point x="271" y="1076"/>
      <point x="239" y="1049"/>
      <point x="198" y="988"/>
      <point x="170" y="930" type="qcurve"/>
      <point x="133" y="948" type="line"/>
      <point x="139" y="971"/>
      <point x="158" y="1040"/>
      <point x="178" y="1114"/>
      <point x="198" y="1182"/>
      <point x="207" y="1204" type="qcurve"/>
      <point x="842" y="1204" type="line"/>
      <point x="866" y="1167" type="line"/>
    </contour>
  </outline>
</glyph>
<glyph name="eight" format="1">
  <advance width="823"/>
  <unicode hex="0038"/>
  <outline>
    <contour>
      <point x="287" y="940" type="qcurve" smooth="yes"/>
      <point x="287" y="901"/>
      <point x="321" y="841"/>
      <point x="378" y="791"/>
      <point x="452" y="747"/>
      <point x="491" y="725" type="qcurve"/>
      <point x="524" y="747"/>
      <point x="580" y="798"/>
      <point x="620" y="859"/>
      <point x="643" y="931"/>
      <point x="643" y="975" type="qcurve" smooth="yes"/>
      <point x="643" y="1056"/>
      <point x="549" y="1141"/>
      <point x="471" y="1141" type="qcurve" smooth="yes"/>
      <point x="431" y="1141"/>
      <point x="364" y="1107"/>
      <point x="315" y="1051"/>
      <point x="287" y="978"/>
    </contour>
    <contour>
      <point x="592" y="342" type="qcurve" smooth="yes"/>
      <point x="592" y="397"/>
      <point x="557" y="477"/>
      <point x="499" y="539"/>
      <point x="425" y="588"/>
      <point x="386" y="611" type="qcurve"/>
      <point x="337" y="578"/>
      <point x="260" y="510"/>
      <point x="206" y="430"/>
      <point x="178" y="335"/>
      <point x="178" y="274" type="qcurve" smooth="yes"/>
      <point x="178" y="231"/>
      <point x="204" y="157"/>
      <point x="254" y="102"/>
      <point x="324" y="70"/>
      <point x="369" y="70" type="qcurve" smooth="yes"/>
      <point x="424" y="70"/>
      <point x="508" y="119"/>
      <point x="564" y="197"/>
      <point x="592" y="294"/>
    </contour>
    <contour>
      <point x="778" y="1001" type="qcurve" smooth="yes"/>
      <point x="778" y="946"/>
      <point x="740" y="854"/>
      <point x="678" y="778"/>
      <point x="597" y="714"/>
      <point x="555" y="687" type="qcurve"/>
      <point x="592" y="664"/>
      <point x="659" y="609"/>
      <point x="710" y="540"/>
      <point x="741" y="452"/>
      <point x="741" y="397" type="qcurve" smooth="yes"/>
      <point x="741" y="312"/>
      <point x="671" y="157"/>
      <point x="552" y="39"/>
      <point x="396" y="-31"/>
      <point x="311" y="-31" type="qcurve" smooth="yes"/>
      <point x="242" y="-31"/>
      <point x="138" y="15"/>
      <point x="68" y="93"/>
      <point x="33" y="194"/>
      <point x="33" y="250" type="qcurve" smooth="yes"/>
      <point x="33" y="319"/>
      <point x="83" y="437"/>
      <point x="164" y="536"/>
      <point x="269" y="617"/>
      <point x="324" y="647" type="qcurve"/>
      <point x="292" y="667"/>
      <point x="234" y="712"/>
      <point x="190" y="770"/>
      <point x="164" y="842"/>
      <point x="164" y="889" type="qcurve" smooth="yes"/>
      <point x="164" y="962"/>
      <point x="225" y="1089"/>
      <point x="327" y="1182"/>
      <point x="459" y="1235"/>
      <point x="530" y="1235" type="qcurve" smooth="yes"/>
      <point x="591" y="1235"/>
      <point x="684" y="1200"/>
      <point x="747" y="1138"/>
      <point x="778" y="1052"/>
    </contour>
  </outline>
</glyph>
<glyph name="colon" format="1">
  <advance width="410"/>
  <unicode hex="003A"/>
  <outline>
    <contour>
      <point x="283" y="152" type="qcurve" smooth="yes"/>
      <point x="283" y="121"/>
      <point x="262" y="56"/>
      <point x="223" y="3"/>
      <point x="169" y="-31"/>
      <point x="135" y="-31" type="qcurve" smooth="yes"/>
      <point x="95" y="-31"/>
      <point x="51" y="23"/>
      <point x="51" y="68" type="qcurve" smooth="yes"/>
      <point x="51" y="97"/>
      <point x="74" y="160"/>
      <point x="115" y="212"/>
      <point x="169" y="246"/>
      <point x="201" y="246" type="qcurve" smooth="yes"/>
      <point x="238" y="246"/>
      <point x="283" y="194"/>
    </contour>
    <contour>
      <point x="383" y="866" type="qcurve" smooth="yes"/>
      <point x="383" y="836"/>
      <point x="362" y="772"/>
      <point x="324" y="720"/>
      <point x="270" y="686"/>
      <point x="236" y="686" type="qcurve" smooth="yes"/>
      <point x="195" y="686"/>
      <point x="152" y="739"/>
      <point x="152" y="784" type="qcurve" smooth="yes"/>
      <point x="152" y="812"/>
      <point x="175" y="875"/>
      <point x="215" y="927"/>
      <point x="269" y="961"/>
      <point x="301" y="961" type="qcurve" smooth="yes"/>
      <point x="338" y="961"/>
      <point x="383" y="910"/>
    </contour>
  </outline>
</glyph>
<glyph name="semicolon" format="1">
  <advance width="410"/>
  <unicode hex="003B"/>
  <outline>
    <contour>
      <point x="383" y="866" type="qcurve" smooth="yes"/>
      <point x="383" y="836"/>
      <point x="362" y="772"/>
      <point x="324" y="720"/>
      <point x="270" y="686"/>
      <point x="236" y="686" type="qcurve" smooth="yes"/>
      <point x="195" y="686"/>
      <point x="152" y="739"/>
      <point x="152" y="784" type="qcurve" smooth="yes"/>
      <point x="152" y="812"/>
      <point x="175" y="875"/>
      <point x="215" y="927"/>
      <point x="269" y="961"/>
      <point x="301" y="961" type="qcurve" smooth="yes"/>
      <point x="338" y="961"/>
      <point x="383" y="910"/>
    </contour>
    <contour>
      <point x="303" y="102" type="qcurve" smooth="yes"/>
      <point x="303" y="77"/>
      <point x="280" y="8"/>
      <point x="239" y="-68"/>
      <point x="185" y="-148"/>
      <point x="121" y="-222"/>
      <point x="51" y="-284"/>
      <point x="16" y="-305" type="qcurve"/>
      <point x="-18" y="-270" type="line"/>
      <point x="135" y="-108"/>
      <point x="135" y="0" type="qcurve" smooth="yes"/>
      <point x="135" y="18"/>
      <point x="124" y="53"/>
      <point x="99" y="77"/>
      <point x="58" y="88"/>
      <point x="27" y="84" type="qcurve"/>
      <point x="18" y="129" type="line"/>
      <point x="29" y="141"/>
      <point x="88" y="175"/>
      <point x="157" y="207"/>
      <point x="222" y="230"/>
      <point x="238" y="229" type="qcurve"/>
      <point x="256" y="219"/>
      <point x="280" y="200"/>
      <point x="296" y="173"/>
      <point x="303" y="133"/>
    </contour>
  </outline>
</glyph>
<glyph name="equal" format="1">
  <advance width="838"/>
  <unicode hex="003D"/>
  <outline>
    <contour>
      <point x="803" y="743" type="line"/>
      <point x="795" y="723"/>
      <point x="771" y="672"/>
      <point x="762" y="655" type="qcurve"/>
      <point x="90" y="655" type="line"/>
      <point x="72" y="680" type="line"/>
      <point x="80" y="700"/>
      <point x="102" y="749"/>
      <point x="115" y="768" type="qcurve"/>
      <point x="784" y="768" type="line"/>
      <point x="803" y="743" type="line"/>
    </contour>
    <contour>
      <point x="762" y="444" type="line"/>
      <point x="754" y="423"/>
      <point x="730" y="373"/>
      <point x="721" y="354" type="qcurve"/>
      <point x="47" y="354" type="line"/>
      <point x="31" y="381" type="line"/>
      <point x="37" y="401"/>
      <point x="59" y="449"/>
      <point x="72" y="469" type="qcurve"/>
      <point x="741" y="469" type="line"/>
      <point x="762" y="444" type="line"/>
    </contour>
  </outline>
</glyph>
<glyph name="greater" format="1">
  <advance width="838"/>
  <unicode hex="003E"/>
  <outline>
    <contour>
      <point x="786" y="625" type="line"/>
      <point x="784" y="621"/>
      <point x="782" y="613" type="qcurve" smooth="yes"/>
      <point x="781" y="612"/>
      <point x="781" y="612" type="qcurve" smooth="yes"/>
      <point x="782" y="612"/>
      <point x="781" y="611" type="qcurve" smooth="yes"/>
      <point x="780" y="609"/>
      <point x="780" y="607" type="qcurve" smooth="yes"/>
      <point x="780" y="606"/>
      <point x="779" y="604" type="qcurve" smooth="yes"/>
      <point x="778" y="602"/>
      <point x="778" y="601" type="qcurve" smooth="yes"/>
      <point x="778" y="601"/>
      <point x="777" y="599" type="qcurve" smooth="yes"/>
      <point x="775" y="593"/>
      <point x="774" y="589" type="qcurve" smooth="yes"/>
      <point x="772" y="586"/>
      <point x="771" y="580"/>
      <point x="769" y="577" type="qcurve" smooth="yes"/>
      <point x="769" y="575"/>
      <point x="768" y="574" type="qcurve" smooth="yes"/>
      <point x="768" y="571"/>
      <point x="766" y="569" type="qcurve" smooth="yes"/>
      <point x="762" y="559"/>
      <point x="755" y="542"/>
      <point x="750" y="534" type="qcurve" smooth="yes"/>
      <point x="748" y="530"/>
      <point x="748" y="530" type="qcurve"/>
      <point x="35" y="256" type="line"/>
      <point x="16" y="281" type="line"/>
      <point x="20" y="291"/>
      <point x="29" y="318"/>
      <point x="39" y="347"/>
      <point x="48" y="374"/>
      <point x="53" y="383" type="qcurve"/>
      <point x="604" y="591" type="line"/>
      <point x="109" y="801" type="line"/>
      <point x="98" y="838" type="line"/>
      <point x="110" y="848"/>
      <point x="127" y="862"/>
      <point x="144" y="876"/>
      <point x="165" y="890"/>
      <point x="180" y="899" type="qcurve"/>
      <point x="764" y="651" type="line"/>
      <point x="786" y="625" type="line"/>
    </contour>
  </outline>
</glyph>
<glyph name="F" format="1">
  <advance width="891"/>
  <unicode hex="0046"/>
  <outline>
    <contour>
      <point x="944" y="1235" type="line"/>
      <point x="939" y="1209"/>
      <point x="924" y="1147"/>
      <point x="905" y="1085"/>
      <point x="885" y="1029"/>
      <point x="877" y="1010" type="qcurve"/>
      <point x="836" y="1010" type="line"/>
      <point x="840" y="1056"/>
      <point x="836" y="1117"/>
      <point x="822" y="1154"/>
      <point x="798" y="1169"/>
      <point x="780" y="1169" type="qcurve" smooth="yes"/>
      <point x="437" y="1169" type="line"/>
      <point x="377" y="735" type="line"/>
      <point x="700" y="735" type="line"/>
      <point x="723" y="707" type="line"/>
      <point x="712" y="693"/>
      <point x="687" y="663"/>
      <point x="661" y="634"/>
      <point x="635" y="609"/>
      <point x="625" y="600" type="qcurve"/>
      <point x="591" y="634"/>
      <point x="502" y="655"/>
      <point x="436" y="655" type="qcurve" smooth="yes"/>
      <point x="366" y="655" type="line"/>
      <point x="291" y="104" type="line" smooth="yes"/>
      <point x="289" y="92"/>
      <point x="357" y="62"/>
      <point x="444" y="43" type="qcurve"/>
      <point x="438" y="0" type="line"/>
      <point x="0" y="0" type="line"/>
      <point x="6" y="43" type="line"/>
      <point x="69" y="57"/>
      <point x="145" y="90"/>
      <point x="147" y="104" type="qcurve" smooth="yes"/>
      <point x="293" y="1155" type="line" smooth="yes"/>
      <point x="295" y="1167"/>
      <point x="233" y="1203"/>
      <point x="168" y="1217" type="qcurve"/>
      <point x="174" y="1260" type="line"/>
      <point x="920" y="1260" type="line"/>
    </contour>
  </outline>
</glyph>
<glyph name="L" format="1">
  <advance width="918"/>
  <unicode hex="004C"/>
  <outline>
    <contour>
      <point x="848" y="244" type="line"/>
      <point x="828" y="157"/>
      <point x="787" y="29"/>
      <point x="774" y="0" type="qcurve"/>
      <point x="0" y="0" type="line"/>
      <point x="6" y="43" type="line"/>
      <point x="69" y="57"/>
      <point x="145" y="90"/>
      <point x="147" y="104" type="qcurve" smooth="yes"/>
      <point x="293" y="1155" type="line" smooth="yes"/>
      <point x="295" y="1167"/>
      <point x="233" y="1203"/>
      <point x="168" y="1217" type="qcurve"/>
      <point x="174" y="1260" type="line"/>
      <point x="584" y="1260" type="line"/>
      <point x="578" y="1217" type="line"/>
      <point x="515" y="1203"/>
      <point x="439" y="1169"/>
      <point x="436" y="1155" type="qcurve" smooth="yes"/>
      <point x="299" y="154" type="line" smooth="yes"/>
      <point x="297" y="136"/>
      <point x="309" y="111"/>
      <point x="346" y="96"/>
      <point x="411" y="90"/>
      <point x="461" y="90" type="qcurve" smooth="yes"/>
      <point x="588" y="90" type="line" smooth="yes"/>
      <point x="630" y="90"/>
      <point x="689" y="100"/>
      <point x="737" y="135"/>
      <point x="781" y="203"/>
      <point x="809" y="262" type="qcurve"/>
      <point x="848" y="244" type="line"/>
    </contour>
  </outline>
</glyph>
<glyph name="M" format="1">
  <advance width="1511"/>
  <unicode hex="004D"/>
  <outline>
    <contour>
      <point x="1532" y="1217" type="line"/>
      <point x="1505" y="1217"/>
      <point x="1435" y="1198"/>
      <point x="1399" y="1180" type="qcurve"/>
      <point x="1278" y="104" type="line" smooth="yes"/>
      <point x="1276" y="92"/>
      <point x="1342" y="57"/>
      <point x="1407" y="43" type="qcurve"/>
      <point x="1401" y="0" type="line"/>
      <point x="991" y="0" type="line"/>
      <point x="997" y="43" type="line"/>
      <point x="1060" y="57"/>
      <point x="1141" y="90"/>
      <point x="1143" y="104" type="qcurve" smooth="yes"/>
      <point x="1251" y="1058" type="line" smooth="yes"/>
      <point x="1248" y="1053"/>
      <point x="1243" y="1045"/>
      <point x="1241" y="1040" type="qcurve" smooth="yes"/>
      <point x="711" y="0" type="line"/>
      <point x="670" y="0" type="line"/>
      <point x="392" y="1047" type="line"/>
      <point x="256" y="104" type="line" smooth="yes"/>
      <point x="254" y="92"/>
      <point x="314" y="57"/>
      <point x="379" y="43" type="qcurve"/>
      <point x="373" y="0" type="line"/>
      <point x="4" y="0" type="line"/>
      <point x="10" y="43" type="line"/>
      <point x="75" y="57"/>
      <point x="148" y="90"/>
      <point x="150" y="104" type="qcurve" smooth="yes"/>
      <point x="306" y="1179" type="line"/>
      <point x="275" y="1200"/>
      <point x="208" y="1217"/>
      <point x="182" y="1217" type="qcurve"/>
      <point x="188" y="1260" type="line"/>
      <point x="453" y="1260" type="line" smooth="yes"/>
      <point x="461" y="1260"/>
      <point x="472" y="1254"/>
      <point x="481" y="1236"/>
      <point x="491" y="1203"/>
      <point x="498" y="1176" type="qcurve" smooth="yes"/>
      <point x="747" y="281" type="line"/>
      <point x="1206" y="1176" type="line" smooth="yes"/>
      <point x="1220" y="1203"/>
      <point x="1239" y="1236"/>
      <point x="1254" y="1254"/>
      <point x="1267" y="1260"/>
      <point x="1276" y="1260" type="qcurve" smooth="yes"/>
      <point x="1536" y="1260" type="line"/>
    </contour>
  </outline>
</glyph>
<glyph name="V" format="1">
  <advance width="1214"/>
  <unicode hex="0056"/>
  <outline>
    <contour>
      <point x="1298" y="1217" type="line"/>
      <point x="1235" y="1204"/>
      <point x="1161" y="1179"/>
      <point x="1147" y="1151" type="qcurve" smooth="yes"/>
      <point x="647" y="59" type="line" smooth="yes"/>
      <point x="637" y="37"/>
      <point x="597" y="5"/>
      <point x="551" y="-16"/>
      <point x="508" y="-28"/>
      <point x="496" y="-31" type="qcurve"/>
      <point x="256" y="1151" type="line" smooth="yes"/>
      <point x="251" y="1177"/>
      <point x="198" y="1209"/>
      <point x="139" y="1217" type="qcurve"/>
      <point x="145" y="1260" type="line"/>
      <point x="543" y="1260" type="line"/>
      <point x="537" y="1217" type="line"/>
      <point x="465" y="1212"/>
      <point x="405" y="1182"/>
      <point x="412" y="1151" type="qcurve" smooth="yes"/>
      <point x="602" y="195" type="line"/>
      <point x="1042" y="1151" type="line" smooth="yes"/>
      <point x="1056" y="1180"/>
      <point x="992" y="1207"/>
      <point x="920" y="1217" type="qcurve"/>
      <point x="926" y="1260" type="line"/>
      <point x="1305" y="1260" type="line"/>
    </contour>
  </outline>
</glyph>
<glyph name="Y" format="1">
  <advance width="1145"/>
  <unicode hex="0059"/>
  <outline>
    <contour>
      <point x="733" y="0" type="line"/>
      <point x="287" y="0" type="line"/>
      <point x="293" y="43" type="line"/>
      <point x="380" y="62"/>
      <point x="451" y="101"/>
      <point x="453" y="115" type="qcurve" smooth="yes"/>
      <point x="512" y="551" type="line"/>
      <point x="494" y="624"/>
      <point x="436" y="793"/>
      <point x="367" y="958"/>
      <point x="294" y="1105"/>
      <point x="260" y="1155" type="qcurve" smooth="yes"/>
      <point x="250" y="1170"/>
      <point x="227" y="1188"/>
      <point x="194" y="1197"/>
      <point x="146" y="1196"/>
      <point x="111" y="1192" type="qcurve"/>
      <point x="102" y="1235" type="line"/>
      <point x="129" y="1242"/>
      <point x="194" y="1256"/>
      <point x="258" y="1268"/>
      <point x="315" y="1276"/>
      <point x="334" y="1276" type="qcurve" smooth="yes"/>
      <point x="360" y="1276"/>
      <point x="385" y="1237" type="qcurve" smooth="yes"/>
      <point x="407" y="1204"/>
      <point x="455" y="1114"/>
      <point x="504" y="1011"/>
      <point x="549" y="904"/>
      <point x="588" y="801"/>
      <point x="617" y="711"/>
      <point x="625" y="678" type="qcurve"/>
      <point x="934" y="1151" type="line" smooth="yes"/>
      <point x="951" y="1179"/>
      <point x="906" y="1207"/>
      <point x="838" y="1217" type="qcurve"/>
      <point x="844" y="1260" type="line"/>
      <point x="1204" y="1260" type="line"/>
      <point x="1198" y="1217" type="line"/>
      <point x="1135" y="1204"/>
      <point x="1064" y="1177"/>
      <point x="1047" y="1151" type="qcurve" smooth="yes"/>
      <point x="657" y="542" type="line"/>
      <point x="598" y="115" type="line" smooth="yes"/>
      <point x="597" y="109"/>
      <point x="610" y="92"/>
      <point x="643" y="72"/>
      <point x="698" y="52"/>
      <point x="739" y="43" type="qcurve"/>
    </contour>
  </outline>
</glyph>
<glyph name="bracketleft" format="1">
  <advance width="586"/>
  <unicode hex="005B"/>
  <outline>
    <contour>
      <point x="686" y="1573" type="line"/>
      <point x="680" y="1548"/>
      <point x="657" y="1499"/>
      <point x="649" y="1487" type="qcurve"/>
      <point x="387" y="1487" type="line"/>
      <point x="147" y="-221" type="line"/>
      <point x="403" y="-221" type="line"/>
      <point x="432" y="-250" type="line"/>
      <point x="426" y="-270"/>
      <point x="405" y="-319"/>
      <point x="395" y="-336" type="qcurve"/>
      <point x="2" y="-336" type="line"/>
      <point x="274" y="1599" type="line"/>
      <point x="659" y="1599" type="line"/>
      <point x="686" y="1573" type="line"/>
    </contour>
  </outline>
</glyph>
<glyph name="backslash" format="1">
  <advance width="819"/>
  <unicode hex="005C"/>
  <outline>
    <contour>
      <point x="647" y="-336" type="line"/>
      <point x="636" y="-332"/>
      <point x="604" y="-320"/>
      <point x="571" y="-307"/>
      <point x="542" y="-292"/>
      <point x="535" y="-285" type="qcurve"/>
      <point x="145" y="1577" type="line"/>
      <point x="182" y="1599" type="line"/>
      <point x="210" y="1591"/>
      <point x="270" y="1567"/>
      <point x="295" y="1550" type="qcurve"/>
      <point x="682" y="-311" type="line"/>
    </contour>
  </outline>
</glyph>
<glyph name="bracketright" format="1">
  <advance width="586"/>
  <unicode hex="005D"/>
  <outline>
    <contour>
      <point x="328" y="-336" type="line"/>
      <point x="-57" y="-336" type="line"/>
      <point x="-86" y="-307" type="line"/>
      <point x="-78" y="-284"/>
      <point x="-57" y="-234"/>
      <point x="-49" y="-221" type="qcurve"/>
      <point x="213" y="-221" type="line"/>
      <point x="453" y="1487" type="line"/>
      <point x="199" y="1487" type="line"/>
      <point x="170" y="1513" type="line"/>
      <point x="176" y="1535"/>
      <point x="198" y="1582"/>
      <point x="207" y="1599" type="qcurve"/>
      <point x="598" y="1599" type="line"/>
    </contour>
  </outline>
</glyph>
<glyph name="asciicircum" format="1">
  <advance width="938"/>
  <unicode hex="005E"/>
  <outline>
    <contour>
      <point x="854" y="635" type="line"/>
      <point x="826" y="612"/>
      <point x="777" y="581"/>
      <point x="743" y="565" type="qcurve"/>
      <point x="713" y="592" type="line"/>
      <point x="553" y="1315" type="line"/>
      <point x="223" y="635" type="line"/>
      <point x="212" y="625"/>
      <point x="182" y="604"/>
      <point x="151" y="585"/>
      <point x="123" y="570"/>
      <point x="113" y="565" type="qcurve"/>
      <point x="94" y="592" type="line"/>
      <point x="516" y="1462" type="line"/>
      <point x="529" y="1474"/>
      <point x="565" y="1499"/>
      <point x="603" y="1523"/>
      <point x="639" y="1543"/>
      <point x="653" y="1550" type="qcurve"/>
      <point x="854" y="635" type="line"/>
    </contour>
  </outline>
</glyph>
<glyph name="f" format="1">
  <advance width="559"/>
  <unicode hex="0066"/>
  <outline>
    <contour>
      <point x="903" y="1403" type="qcurve"/>
      <point x="882" y="1388"/>
      <point x="834" y="1353"/>
      <point x="788" y="1324"/>
      <point x="749" y="1305"/>
      <point x="737" y="1305" type="qcurve" smooth="yes"/>
      <point x="724" y="1305"/>
      <point x="698" y="1340"/>
      <point x="666" y="1382"/>
      <point x="624" y="1417"/>
      <point x="596" y="1417" type="qcurve" smooth="yes"/>
      <point x="558" y="1417"/>
      <point x="500" y="1372"/>
      <point x="456" y="1297"/>
      <point x="424" y="1200"/>
      <point x="402" y="1096"/>
      <point x="387" y="994"/>
      <point x="383" y="952" type="qcurve" smooth="yes"/>
      <point x="377" y="905" type="line"/>
      <point x="633" y="905" type="line"/>
      <point x="653" y="877" type="line"/>
      <point x="643" y="863"/>
      <point x="609" y="830"/>
      <point x="571" y="800"/>
      <point x="536" y="775"/>
      <point x="526" y="770" type="qcurve"/>
      <point x="521" y="784"/>
      <point x="500" y="801"/>
      <point x="464" y="811"/>
      <point x="410" y="815"/>
      <point x="373" y="815" type="qcurve" smooth="yes"/>
      <point x="367" y="815" type="line"/>
      <point x="295" y="193" type="line" smooth="yes"/>
      <point x="282" y="83"/>
      <point x="219" y="-122"/>
      <point x="124" y="-299"/>
      <point x="0" y="-440"/>
      <point x="-74" y="-485" type="qcurve"/>
      <point x="-100" y="-422" type="line"/>
      <point x="-50" y="-394"/>
      <point x="31" y="-274"/>
      <point x="92" y="-118"/>
      <point x="132" y="57"/>
      <point x="141" y="139" type="qcurve" smooth="yes"/>
      <point x="219" y="815" type="line"/>
      <point x="68" y="815" type="line"/>
      <point x="53" y="846" type="line"/>
      <point x="154" y="905" type="line"/>
      <point x="229" y="905" type="line"/>
      <point x="239" y="985"/>
      <point x="266" y="1133"/>
      <point x="315" y="1265"/>
      <point x="396" y="1380"/>
      <point x="459" y="1427" type="qcurve" smooth="yes"/>
      <point x="486" y="1446"/>
      <point x="536" y="1480"/>
      <point x="588" y="1506"/>
      <point x="643" y="1520"/>
      <point x="674" y="1520" type="qcurve" smooth="yes"/>
      <point x="718" y="1520"/>
      <point x="789" y="1487"/>
      <point x="845" y="1446"/>
      <point x="888" y="1408"/>
    </contour>
  </outline>
</glyph>
<glyph name="h" format="1">
  <advance width="1012"/>
  <unicode hex="0068"/>
  <outline>
    <contour>
      <point x="969" y="72" type="line"/>
      <point x="876" y="18"/>
      <point x="755" y="-41"/>
      <point x="713" y="-41" type="qcurve" smooth="yes"/>
      <point x="684" y="-41"/>
      <point x="639" y="22"/>
      <point x="639" y="76" type="qcurve" smooth="yes"/>
      <point x="639" y="94"/>
      <point x="652" y="187"/>
      <point x="671" y="311"/>
      <point x="693" y="451"/>
      <point x="712" y="577"/>
      <point x="725" y="677"/>
      <point x="725" y="700" type="qcurve" smooth="yes"/>
      <point x="725" y="738"/>
      <point x="719" y="789"/>
      <point x="704" y="821"/>
      <point x="677" y="834"/>
      <point x="655" y="834" type="qcurve" smooth="yes"/>
      <point x="642" y="834"/>
      <point x="576" y="803"/>
      <point x="491" y="740"/>
      <point x="400" y="646"/>
      <point x="362" y="582" type="qcurve" smooth="yes"/>
      <point x="335" y="534"/>
      <point x="299" y="391"/>
      <point x="285" y="301" type="qcurve" smooth="yes"/>
      <point x="276" y="246"/>
      <point x="266" y="162"/>
      <point x="261" y="97"/>
      <point x="260" y="46"/>
      <point x="262" y="25" type="qcurve"/>
      <point x="249" y="18"/>
      <point x="210" y="1"/>
      <point x="169" y="-17"/>
      <point x="131" y="-34"/>
      <point x="119" y="-41" type="qcurve"/>
      <point x="86" y="-10" type="line"/>
      <point x="95" y="44"/>
      <point x="122" y="203"/>
      <point x="153" y="394"/>
      <point x="186" y="606"/>
      <point x="218" y="817"/>
      <point x="247" y="1018"/>
      <point x="268" y="1187"/>
      <point x="281" y="1314"/>
      <point x="281" y="1346" type="qcurve" smooth="yes"/>
      <point x="281" y="1369"/>
      <point x="274" y="1396"/>
      <point x="263" y="1409"/>
      <point x="248" y="1413"/>
      <point x="240" y="1413" type="qcurve" smooth="yes"/>
      <point x="231" y="1413"/>
      <point x="192" y="1405"/>
      <point x="154" y="1394"/>
      <point x="125" y="1386"/>
      <point x="125" y="1386" type="qcurve"/>
      <point x="113" y="1425" type="line"/>
      <point x="155" y="1444"/>
      <point x="240" y="1478"/>
      <point x="314" y="1504"/>
      <point x="370" y="1520"/>
      <point x="383" y="1520" type="qcurve" smooth="yes"/>
      <point x="411" y="1520"/>
      <point x="442" y="1484"/>
      <point x="442" y="1438" type="qcurve" smooth="yes"/>
      <point x="442" y="1414"/>
      <point x="430" y="1303"/>
      <point x="411" y="1159"/>
      <point x="387" y="995"/>
      <point x="364" y="842"/>
      <point x="344" y="714"/>
      <point x="338" y="678" type="qcurve"/>
      <point x="396" y="750"/>
      <point x="510" y="849"/>
      <point x="618" y="909"/>
      <point x="717" y="936"/>
      <point x="762" y="936" type="qcurve" smooth="yes"/>
      <point x="825" y="936"/>
      <point x="879" y="857"/>
      <point x="879" y="760" type="qcurve" smooth="yes"/>
      <point x="879" y="725"/>
      <point x="866" y="621"/>
      <point x="847" y="501"/>
      <point x="825" y="373"/>
      <point x="806" y="258"/>
      <point x="793" y="163"/>
      <point x="793" y="135" type="qcurve" smooth="yes"/>
      <point x="793" y="101"/>
      <point x="817" y="76"/>
      <point x="829" y="76" type="qcurve" smooth="yes"/>
      <point x="857" y="76"/>
      <point x="917" y="93"/>
      <point x="954" y="109" type="qcurve"/>
      <point x="969" y="72" type="line"/>
    </contour>
  </outline>
</glyph>
<glyph name="i" format="1">
  <advance width="504"/>
  <unicode hex="0069"/>
  <outline>
    <contour>
      <point x="477" y="1229" type="qcurve" smooth="yes"/>
      <point x="477" y="1201"/>
      <point x="460" y="1146"/>
      <point x="428" y="1101"/>
      <point x="382" y="1073"/>
      <point x="354" y="1073" type="qcurve" smooth="yes"/>
      <point x="323" y="1073"/>
      <point x="289" y="1109"/>
      <point x="289" y="1143" type="qcurve" smooth="yes"/>
      <point x="289" y="1170"/>
      <point x="307" y="1225"/>
      <point x="339" y="1271"/>
      <point x="384" y="1300"/>
      <point x="412" y="1300" type="qcurve" smooth="yes"/>
      <point x="443" y="1300"/>
      <point x="477" y="1263"/>
    </contour>
    <contour>
      <point x="455" y="72" type="line"/>
      <point x="408" y="44"/>
      <point x="333" y="2"/>
      <point x="271" y="-27"/>
      <point x="221" y="-41"/>
      <point x="199" y="-41" type="qcurve" smooth="yes"/>
      <point x="165" y="-41"/>
      <point x="125" y="22"/>
      <point x="125" y="76" type="qcurve" smooth="yes"/>
      <point x="125" y="106"/>
      <point x="140" y="217"/>
      <point x="162" y="352"/>
      <point x="188" y="499"/>
      <point x="210" y="632"/>
      <point x="225" y="735"/>
      <point x="225" y="760" type="qcurve" smooth="yes"/>
      <point x="225" y="783"/>
      <point x="219" y="810"/>
      <point x="209" y="823"/>
      <point x="193" y="827"/>
      <point x="184" y="827" type="qcurve" smooth="yes"/>
      <point x="176" y="827"/>
      <point x="142" y="819"/>
      <point x="109" y="810"/>
      <point x="84" y="803"/>
      <point x="84" y="803" type="qcurve"/>
      <point x="70" y="840" type="line"/>
      <point x="112" y="859"/>
      <point x="195" y="894"/>
      <point x="267" y="920"/>
      <point x="321" y="936"/>
      <point x="334" y="936" type="qcurve" smooth="yes"/>
      <point x="362" y="936"/>
      <point x="385" y="898"/>
      <point x="385" y="852" type="qcurve" smooth="yes"/>
      <point x="385" y="823"/>
      <point x="370" y="710"/>
      <point x="346" y="570"/>
      <point x="320" y="417"/>
      <point x="296" y="277"/>
      <point x="281" y="164"/>
      <point x="281" y="135" type="qcurve" smooth="yes"/>
      <point x="281" y="104"/>
      <point x="294" y="76"/>
      <point x="311" y="76" type="qcurve" smooth="yes"/>
      <point x="342" y="76"/>
      <point x="399" y="92"/>
      <point x="440" y="109" type="qcurve"/>
      <point x="455" y="72" type="line"/>
    </contour>
  </outline>
</glyph>
<glyph name="k" format="1">
  <advance width="899"/>
  <unicode hex="006B"/>
  <outline>
    <contour>
      <point x="440" y="1417" type="qcurve" smooth="yes"/>
      <point x="440" y="1379"/>
      <point x="428" y="1261"/>
      <point x="409" y="1115"/>
      <point x="383" y="948"/>
      <point x="355" y="772"/>
      <point x="326" y="592"/>
      <point x="313" y="507" type="qcurve"/>
      <point x="528" y="670" type="line" smooth="yes"/>
      <point x="597" y="722"/>
      <point x="685" y="796"/>
      <point x="710" y="841"/>
      <point x="663" y="860"/>
      <point x="596" y="858" type="qcurve"/>
      <point x="592" y="897" type="line"/>
      <point x="651" y="905"/>
      <point x="760" y="930"/>
      <point x="823" y="930" type="qcurve" smooth="yes"/>
      <point x="871" y="930"/>
      <point x="899" y="902"/>
      <point x="899" y="868" type="qcurve" smooth="yes"/>
      <point x="899" y="853"/>
      <point x="856" y="799"/>
      <point x="773" y="726"/>
      <point x="655" y="640"/>
      <point x="580" y="594" type="qcurve" smooth="yes"/>
      <point x="463" y="523" type="line"/>
      <point x="489" y="491"/>
      <point x="543" y="400"/>
      <point x="595" y="301"/>
      <point x="646" y="203"/>
      <point x="694" y="125"/>
      <point x="738" y="76"/>
      <point x="758" y="76" type="qcurve" smooth="yes"/>
      <point x="781" y="76"/>
      <point x="834" y="81"/>
      <point x="872" y="102" type="qcurve"/>
      <point x="889" y="68" type="line"/>
      <point x="823" y="12"/>
      <point x="724" y="-39"/>
      <point x="686" y="-39" type="qcurve" smooth="yes"/>
      <point x="650" y="-39"/>
      <point x="582" y="29"/>
      <point x="517" y="135"/>
      <point x="455" y="263"/>
      <point x="396" y="383"/>
      <point x="340" y="479"/>
      <point x="313" y="501" type="qcurve"/>
      <point x="300" y="416"/>
      <point x="279" y="262"/>
      <point x="266" y="137"/>
      <point x="264" y="48"/>
      <point x="270" y="27" type="qcurve"/>
      <point x="256" y="20"/>
      <point x="215" y="2"/>
      <point x="173" y="-17"/>
      <point x="133" y="-34"/>
      <point x="121" y="-41" type="qcurve"/>
      <point x="86" y="-10" type="line"/>
      <point x="90" y="19"/>
      <point x="110" y="150"/>
      <point x="139" y="327"/>
      <point x="174" y="539"/>
      <point x="208" y="759"/>
      <point x="241" y="975"/>
      <point x="266" y="1161"/>
      <point x="281" y="1305"/>
      <point x="281" y="1343" type="qcurve" smooth="yes"/>
      <point x="281" y="1368"/>
      <point x="275" y="1396"/>
      <point x="263" y="1410"/>
      <point x="245" y="1413"/>
      <point x="233" y="1413" type="qcurve" smooth="yes"/>
      <point x="225" y="1413"/>
      <point x="189" y="1405"/>
      <point x="153" y="1394"/>
      <point x="125" y="1386"/>
      <point x="125" y="1386" type="qcurve"/>
      <point x="111" y="1425" type="line"/>
      <point x="153" y="1444"/>
      <point x="239" y="1478"/>
      <point x="313" y="1504"/>
      <point x="369" y="1520"/>
      <point x="381" y="1520" type="qcurve" smooth="yes"/>
      <point x="395" y="1520"/>
      <point x="417" y="1514"/>
      <point x="432" y="1493"/>
      <point x="440" y="1452"/>
    </contour>
  </outline>
</glyph>
<glyph name="l" format="1">
  <advance width="481"/>
  <unicode hex="006C"/>
  <outline>
    <contour>
      <point x="436" y="72" type="line"/>
      <point x="387" y="41"/>
      <point x="312" y="-2"/>
      <point x="251" y="-29"/>
      <point x="199" y="-41"/>
      <point x="174" y="-41" type="qcurve" smooth="yes"/>
      <point x="146" y="-41"/>
      <point x="102" y="19"/>
      <point x="102" y="78" type="qcurve" smooth="yes"/>
      <point x="102" y="103"/>
      <point x="117" y="223"/>
      <point x="141" y="389"/>
      <point x="172" y="588"/>
      <point x="204" y="796"/>
      <point x="235" y="1000"/>
      <point x="259" y="1176"/>
      <point x="274" y="1311"/>
      <point x="274" y="1346" type="qcurve" smooth="yes"/>
      <point x="274" y="1369"/>
      <point x="265" y="1396"/>
      <point x="251" y="1409"/>
      <point x="232" y="1413"/>
      <point x="223" y="1413" type="qcurve" smooth="yes"/>
      <point x="215" y="1413"/>
      <point x="180" y="1405"/>
      <point x="145" y="1394"/>
      <point x="119" y="1386"/>
      <point x="119" y="1386" type="qcurve"/>
      <point x="104" y="1425" type="line"/>
      <point x="146" y="1444"/>
      <point x="231" y="1478"/>
      <point x="304" y="1504"/>
      <point x="360" y="1520"/>
      <point x="373" y="1520" type="qcurve" smooth="yes"/>
      <point x="401" y="1520"/>
      <point x="434" y="1484"/>
      <point x="434" y="1438" type="qcurve" smooth="yes"/>
      <point x="434" y="1399"/>
      <point x="419" y="1261"/>
      <point x="395" y="1084"/>
      <point x="363" y="881"/>
      <point x="331" y="673"/>
      <point x="299" y="472"/>
      <point x="275" y="300"/>
      <point x="260" y="169"/>
      <point x="260" y="135" type="qcurve" smooth="yes"/>
      <point x="260" y="101"/>
      <point x="279" y="76"/>
      <point x="295" y="76" type="qcurve" smooth="yes"/>
      <point x="318" y="76"/>
      <point x="379" y="92"/>
      <point x="424" y="109" type="qcurve"/>
      <point x="436" y="72" type="line"/>
    </contour>
  </outline>
</glyph>
<glyph name="m" format="1">
  <advance width="1477"/>
  <unicode hex="006D"/>
  <outline>
    <contour>
      <point x="1413" y="72" type="line"/>
      <point x="1320" y="18"/>
      <point x="1198" y="-41"/>
      <point x="1155" y="-41" type="qcurve" smooth="yes"/>
      <point x="1126" y="-41"/>
      <point x="1085" y="22"/>
      <point x="1085" y="76" type="qcurve" smooth="yes"/>
      <point x="1085" y="94"/>
      <point x="1099" y="184"/>
      <point x="1119" y="305"/>
      <point x="1144" y="443"/>
      <point x="1164" y="574"/>
      <point x="1178" y="686"/>
      <point x="1178" y="719" type="qcurve" smooth="yes"/>
      <point x="1178" y="781"/>
      <point x="1153" y="834"/>
      <point x="1135" y="834" type="qcurve" smooth="yes"/>
      <point x="1116" y="834"/>
      <point x="1058" y="807"/>
      <point x="988" y="750"/>
      <point x="909" y="661"/>
      <point x="870" y="600" type="qcurve" smooth="yes"/>
      <point x="848" y="565"/>
      <point x="819" y="497"/>
      <point x="800" y="424"/>
      <point x="786" y="343"/>
      <point x="778" y="295" type="qcurve" smooth="yes"/>
      <point x="764" y="204"/>
      <point x="757" y="74"/>
      <point x="760" y="25" type="qcurve"/>
      <point x="746" y="18"/>
      <point x="706" y="1"/>
      <point x="664" y="-17"/>
      <point x="625" y="-34"/>
      <point x="612" y="-41" type="qcurve"/>
      <point x="580" y="-10" type="line"/>
      <point x="602" y="92"/>
      <point x="643" y="312"/>
      <point x="675" y="509"/>
      <point x="694" y="663"/>
      <point x="694" y="700" type="qcurve" smooth="yes"/>
      <point x="694" y="776"/>
      <point x="663" y="834"/>
      <point x="635" y="834" type="qcurve" smooth="yes"/>
      <point x="622" y="834"/>
      <point x="568" y="808"/>
      <point x="498" y="751"/>
      <point x="419" y="663"/>
      <point x="381" y="602" type="qcurve" smooth="yes"/>
      <point x="360" y="570"/>
      <point x="331" y="502"/>
      <point x="310" y="427"/>
      <point x="293" y="343"/>
      <point x="285" y="295" type="qcurve" smooth="yes"/>
      <point x="269" y="204"/>
      <point x="260" y="73"/>
      <point x="262" y="25" type="qcurve"/>
      <point x="249" y="18"/>
      <point x="210" y="1"/>
      <point x="169" y="-17"/>
      <point x="131" y="-34"/>
      <point x="119" y="-41" type="qcurve"/>
      <point x="86" y="-10" type="line"/>
      <point x="100" y="60"/>
      <point x="127" y="213"/>
      <point x="152" y="365"/>
      <point x="174" y="510"/>
      <point x="190" y="634"/>
      <point x="199" y="731"/>
      <point x="199" y="760" type="qcurve" smooth="yes"/>
      <point x="199" y="783"/>
      <point x="193" y="810"/>
      <point x="182" y="825"/>
      <point x="168" y="829"/>
      <point x="160" y="829" type="qcurve" smooth="yes"/>
      <point x="151" y="829"/>
      <point x="115" y="821"/>
      <point x="79" y="811"/>
      <point x="53" y="803"/>
      <point x="53" y="803" type="qcurve"/>
      <point x="41" y="842" type="line"/>
      <point x="83" y="860"/>
      <point x="167" y="894"/>
      <point x="239" y="920"/>
      <point x="293" y="936"/>
      <point x="305" y="936" type="qcurve" smooth="yes"/>
      <point x="320" y="936"/>
      <point x="338" y="926"/>
      <point x="347" y="901"/>
      <point x="350" y="856"/>
      <point x="350" y="821" type="qcurve" smooth="yes"/>
      <point x="350" y="810"/>
      <point x="347" y="777"/>
      <point x="344" y="738"/>
      <point x="339" y="696"/>
      <point x="338" y="678" type="qcurve"/>
      <point x="397" y="748"/>
      <point x="500" y="847"/>
      <point x="593" y="908"/>
      <point x="678" y="936"/>
      <point x="719" y="936" type="qcurve" smooth="yes"/>
      <point x="756" y="936"/>
      <point x="806" y="906"/>
      <point x="834" y="856"/>
      <point x="846" y="793"/>
      <point x="846" y="760" type="qcurve" smooth="yes"/>
      <point x="846" y="741"/>
      <point x="844" y="710"/>
      <point x="842" y="688" type="qcurve"/>
      <point x="900" y="755"/>
      <point x="998" y="849"/>
      <point x="1083" y="909"/>
      <point x="1160" y="936"/>
      <point x="1198" y="936" type="qcurve" smooth="yes"/>
      <point x="1227" y="936"/>
      <point x="1275" y="917"/>
      <point x="1309" y="875"/>
      <point x="1327" y="808"/>
      <point x="1327" y="760" type="qcurve" smooth="yes"/>
      <point x="1327" y="722"/>
      <point x="1314" y="615"/>
      <point x="1294" y="495"/>
      <point x="1272" y="369"/>
      <point x="1252" y="256"/>
      <point x="1239" y="163"/>
      <point x="1239" y="135" type="qcurve" smooth="yes"/>
      <point x="1239" y="101"/>
      <point x="1259" y="78"/>
      <point x="1276" y="78" type="qcurve" smooth="yes"/>
      <point x="1305" y="78"/>
      <point x="1362" y="93"/>
      <point x="1403" y="109" type="qcurve"/>
      <point x="1413" y="72" type="line"/>
    </contour>
  </outline>
</glyph>
<glyph name="n" format="1">
  <advance width="1012"/>
  <unicode hex="006E"/>
  <outline>
    <contour>
      <point x="973" y="72" type="line"/>
      <point x="882" y="18"/>
      <point x="755" y="-41"/>
      <point x="717" y="-41" type="qcurve" smooth="yes"/>
      <point x="682" y="-41"/>
      <point x="643" y="22"/>
      <point x="643" y="76" type="qcurve" smooth="yes"/>
      <point x="643" y="94"/>
      <point x="656" y="187"/>
      <point x="676" y="311"/>
      <point x="700" y="451"/>
      <point x="720" y="577"/>
      <point x="733" y="677"/>
      <point x="733" y="700" type="qcurve" smooth="yes"/>
      <point x="733" y="776"/>
      <point x="701" y="836"/>
      <point x="657" y="836" type="qcurve" smooth="yes"/>
      <point x="644" y="836"/>
      <point x="579" y="804"/>
      <point x="497" y="740"/>
      <point x="408" y="644"/>
      <point x="371" y="580" type="qcurve" smooth="yes"/>
      <point x="343" y="532"/>
      <point x="308" y="398"/>
      <point x="291" y="301" type="qcurve" smooth="yes"/>
      <point x="275" y="212"/>
      <point x="266" y="84"/>
      <point x="268" y="25" type="qcurve"/>
      <point x="255" y="18"/>
      <point x="216" y="1"/>
      <point x="175" y="-17"/>
      <point x="137" y="-34"/>
      <point x="125" y="-41" type="qcurve"/>
      <point x="92" y="-10" type="line"/>
      <point x="106" y="56"/>
      <point x="133" y="210"/>
      <point x="158" y="365"/>
      <point x="180" y="516"/>
      <point x="196" y="643"/>
      <point x="205" y="738"/>
      <point x="205" y="762" type="qcurve" smooth="yes"/>
      <point x="205" y="785"/>
      <point x="200" y="812"/>
      <point x="191" y="825"/>
      <point x="177" y="829"/>
      <point x="168" y="829" type="qcurve" smooth="yes"/>
      <point x="159" y="829"/>
      <point x="124" y="821"/>
      <point x="88" y="811"/>
      <point x="61" y="803"/>
      <point x="61" y="803" type="qcurve"/>
      <point x="47" y="842" type="line"/>
      <point x="89" y="860"/>
      <point x="174" y="894"/>
      <point x="248" y="920"/>
      <point x="303" y="936"/>
      <point x="315" y="936" type="qcurve" smooth="yes"/>
      <point x="329" y="936"/>
      <point x="345" y="927"/>
      <point x="352" y="903"/>
      <point x="354" y="859"/>
      <point x="354" y="823" type="qcurve" smooth="yes"/>
      <point x="354" y="812"/>
      <point x="352" y="774"/>
      <point x="349" y="731"/>
      <point x="345" y="690"/>
      <point x="344" y="678" type="qcurve"/>
      <point x="398" y="746"/>
      <point x="508" y="844"/>
      <point x="614" y="907"/>
      <point x="713" y="936"/>
      <point x="758" y="936" type="qcurve" smooth="yes"/>
      <point x="789" y="936"/>
      <point x="838" y="918"/>
      <point x="870" y="877"/>
      <point x="887" y="810"/>
      <point x="887" y="762" type="qcurve" smooth="yes"/>
      <point x="887" y="727"/>
      <point x="874" y="623"/>
      <point x="854" y="502"/>
      <point x="830" y="374"/>
      <point x="810" y="258"/>
      <point x="797" y="163"/>
      <point x="797" y="135" type="qcurve" smooth="yes"/>
      <point x="797" y="101"/>
      <point x="815" y="76"/>
      <point x="833" y="76" type="qcurve" smooth="yes"/>
      <point x="856" y="76"/>
      <point x="916" y="92"/>
      <point x="958" y="109" type="qcurve"/>
      <point x="973" y="72" type="line"/>
    </contour>
  </outline>
</glyph>
<glyph name="q" format="1">
  <advance width="918"/>
  <unicode hex="0071"/>
  <outline>
    <contour>
      <point x="348" y="96" type="qcurve" smooth="yes"/>
      <point x="374" y="96"/>
      <point x="444" y="156"/>
      <point x="520" y="253"/>
      <point x="598" y="375"/>
      <point x="632" y="437" type="qcurve"/>
      <point x="646" y="520"/>
      <point x="673" y="681"/>
      <point x="686" y="759" type="qcurve"/>
      <point x="670" y="771"/>
      <point x="632" y="796"/>
      <point x="588" y="817"/>
      <point x="539" y="831"/>
      <point x="512" y="831" type="qcurve" smooth="yes"/>
      <point x="467" y="831"/>
      <point x="382" y="786"/>
      <point x="309" y="712"/>
      <point x="249" y="617"/>
      <point x="206" y="516"/>
      <point x="182" y="418"/>
      <point x="182" y="379" type="qcurve" smooth="yes"/>
      <point x="182" y="314"/>
      <point x="212" y="210"/>
      <point x="260" y="136"/>
      <point x="319" y="96"/>
    </contour>
    <contour>
      <point x="895" y="901" type="line"/>
      <point x="878" y="887"/>
      <point x="856" y="865"/>
      <point x="839" y="836"/>
      <point x="827" y="794"/>
      <point x="821" y="760" type="qcurve" smooth="yes"/>
      <point x="799" y="627"/>
      <point x="754" y="357"/>
      <point x="714" y="104"/>
      <point x="681" y="-123"/>
      <point x="663" y="-303"/>
      <point x="661" y="-425"/>
      <point x="672" y="-447" type="qcurve"/>
      <point x="658" y="-452"/>
      <point x="618" y="-465"/>
      <point x="575" y="-479"/>
      <point x="535" y="-494"/>
      <point x="523" y="-500" type="qcurve"/>
      <point x="488" y="-471" type="line"/>
      <point x="493" y="-433"/>
      <point x="516" y="-287"/>
      <point x="546" y="-93"/>
      <point x="583" y="138"/>
      <point x="603" y="261" type="qcurve"/>
      <point x="568" y="202"/>
      <point x="487" y="93"/>
      <point x="402" y="9"/>
      <point x="316" y="-41"/>
      <point x="276" y="-41" type="qcurve" smooth="yes"/>
      <point x="243" y="-41"/>
      <point x="165" y="-3"/>
      <point x="98" y="80"/>
      <point x="53" y="211"/>
      <point x="53" y="305" type="qcurve" smooth="yes"/>
      <point x="53" y="384"/>
      <point x="94" y="537"/>
      <point x="172" y="676"/>
      <point x="283" y="796"/>
      <point x="354" y="842" type="qcurve" smooth="yes"/>
      <point x="382" y="860"/>
      <point x="446" y="894"/>
      <point x="513" y="920"/>
      <point x="580" y="936"/>
      <point x="612" y="936" type="qcurve" smooth="yes"/>
      <point x="634" y="936"/>
      <point x="677" y="924"/>
      <point x="718" y="906"/>
      <point x="755" y="884"/>
      <point x="772" y="874" type="qcurve"/>
      <point x="795" y="891"/>
      <point x="845" y="923"/>
      <point x="872" y="936" type="qcurve"/>
      <point x="895" y="901" type="line"/>
    </contour>
  </outline>
</glyph>
<glyph name="r" format="1">
  <advance width="727"/>
  <unicode hex="0072"/>
  <outline>
    <contour>
      <point x="768" y="850" type="qcurve"/>
      <point x="756" y="834"/>
      <point x="727" y="788"/>
      <point x="698" y="745"/>
      <point x="672" y="715"/>
      <point x="662" y="715" type="qcurve" smooth="yes"/>
      <point x="643" y="715"/>
      <point x="616" y="737"/>
      <point x="593" y="762"/>
      <point x="570" y="784"/>
      <point x="555" y="784" type="qcurve" smooth="yes"/>
      <point x="529" y="784"/>
      <point x="460" y="713"/>
      <point x="391" y="598"/>
      <point x="328" y="455"/>
      <point x="307" y="383" type="qcurve" smooth="yes"/>
      <point x="296" y="345"/>
      <point x="279" y="254"/>
      <point x="266" y="158"/>
      <point x="260" y="65"/>
      <point x="262" y="25" type="qcurve"/>
      <point x="249" y="18"/>
      <point x="210" y="1"/>
      <point x="169" y="-17"/>
      <point x="131" y="-34"/>
      <point x="119" y="-41" type="qcurve"/>
      <point x="86" y="-10" type="line"/>
      <point x="101" y="61"/>
      <point x="129" y="213"/>
      <point x="154" y="364"/>
      <point x="175" y="508"/>
      <point x="190" y="632"/>
      <point x="199" y="730"/>
      <point x="199" y="760" type="qcurve" smooth="yes"/>
      <point x="199" y="783"/>
      <point x="192" y="810"/>
      <point x="181" y="823"/>
      <point x="166" y="827"/>
      <point x="158" y="827" type="qcurve" smooth="yes"/>
      <point x="149" y="827"/>
      <point x="114" y="819"/>
      <point x="80" y="810"/>
      <point x="55" y="803"/>
      <point x="55" y="803" type="qcurve"/>
      <point x="41" y="840" type="line"/>
      <point x="83" y="859"/>
      <point x="168" y="894"/>
      <point x="242" y="920"/>
      <point x="297" y="936"/>
      <point x="309" y="936" type="qcurve" smooth="yes"/>
      <point x="323" y="936"/>
      <point x="339" y="926"/>
      <point x="346" y="901"/>
      <point x="348" y="856"/>
      <point x="348" y="821" type="qcurve" smooth="yes"/>
      <point x="348" y="810"/>
      <point x="342" y="758"/>
      <point x="334" y="697"/>
      <point x="325" y="637"/>
      <point x="322" y="618" type="qcurve"/>
      <point x="370" y="717"/>
      <point x="456" y="841"/>
      <point x="533" y="911"/>
      <point x="603" y="936"/>
      <point x="635" y="936" type="qcurve" smooth="yes"/>
      <point x="653" y="936"/>
      <point x="682" y="916"/>
      <point x="712" y="888"/>
      <point x="746" y="859"/>
    </contour>
  </outline>
</glyph>
<glyph name="u" format="1">
  <advance width="1022"/>
  <unicode hex="0075"/>
  <outline>
    <contour>
      <point x="975" y="68" type="line"/>
      <point x="894" y="14"/>
      <point x="781" y="-41"/>
      <point x="743" y="-41" type="qcurve" smooth="yes"/>
      <point x="726" y="-41"/>
      <point x="694" y="-17"/>
      <point x="668" y="47"/>
      <point x="653" y="158"/>
      <point x="653" y="244" type="qcurve" smooth="yes"/>
      <point x="653" y="255"/>
      <point x="654" y="282"/>
      <point x="655" y="296" type="qcurve"/>
      <point x="614" y="221"/>
      <point x="524" y="97"/>
      <point x="426" y="8"/>
      <point x="322" y="-41"/>
      <point x="268" y="-41" type="qcurve" smooth="yes"/>
      <point x="248" y="-41"/>
      <point x="197" y="-10"/>
      <point x="152" y="52"/>
      <point x="121" y="144"/>
      <point x="121" y="205" type="qcurve" smooth="yes"/>
      <point x="121" y="235"/>
      <point x="132" y="327"/>
      <point x="148" y="433"/>
      <point x="168" y="547"/>
      <point x="184" y="651"/>
      <point x="195" y="735"/>
      <point x="195" y="760" type="qcurve" smooth="yes"/>
      <point x="195" y="783"/>
      <point x="189" y="810"/>
      <point x="178" y="823"/>
      <point x="163" y="827"/>
      <point x="154" y="827" type="qcurve" smooth="yes"/>
      <point x="145" y="827"/>
      <point x="111" y="819"/>
      <point x="77" y="810"/>
      <point x="51" y="803"/>
      <point x="51" y="803" type="qcurve"/>
      <point x="39" y="840" type="line"/>
      <point x="81" y="859"/>
      <point x="166" y="894"/>
      <point x="238" y="920"/>
      <point x="293" y="936"/>
      <point x="305" y="936" type="qcurve" smooth="yes"/>
      <point x="334" y="936"/>
      <point x="354" y="898"/>
      <point x="354" y="852" type="qcurve" smooth="yes"/>
      <point x="354" y="823"/>
      <point x="342" y="729"/>
      <point x="324" y="617"/>
      <point x="304" y="497"/>
      <point x="286" y="385"/>
      <point x="274" y="291"/>
      <point x="274" y="262" type="qcurve" smooth="yes"/>
      <point x="274" y="166"/>
      <point x="315" y="80"/>
      <point x="352" y="80" type="qcurve" smooth="yes"/>
      <point x="372" y="80"/>
      <point x="438" y="119"/>
      <point x="522" y="206"/>
      <point x="621" y="346"/>
      <point x="674" y="448" type="qcurve"/>
      <point x="681" y="494"/>
      <point x="697" y="586"/>
      <point x="710" y="668"/>
      <point x="719" y="737"/>
      <point x="719" y="760" type="qcurve" smooth="yes"/>
      <point x="719" y="783"/>
      <point x="714" y="810"/>
      <point x="704" y="823"/>
      <point x="691" y="827"/>
      <point x="682" y="827" type="qcurve" smooth="yes"/>
      <point x="673" y="827"/>
      <point x="642" y="819"/>
      <point x="611" y="810"/>
      <point x="588" y="803"/>
      <point x="588" y="803" type="qcurve"/>
      <point x="573" y="840" type="line"/>
      <point x="615" y="859"/>
      <point x="697" y="894"/>
      <point x="766" y="920"/>
      <point x="818" y="936"/>
      <point x="831" y="936" type="qcurve" smooth="yes"/>
      <point x="859" y="936"/>
      <point x="877" y="898"/>
      <point x="877" y="852" type="qcurve" smooth="yes"/>
      <point x="877" y="823"/>
      <point x="865" y="730"/>
      <point x="847" y="619"/>
      <point x="825" y="498"/>
      <point x="807" y="385"/>
      <point x="795" y="287"/>
      <point x="795" y="254" type="qcurve" smooth="yes"/>
      <point x="795" y="163"/>
      <point x="821" y="76"/>
      <point x="846" y="76" type="qcurve" smooth="yes"/>
      <point x="872" y="76"/>
      <point x="925" y="89"/>
      <point x="961" y="104" type="qcurve"/>
      <point x="975" y="68" type="line"/>
    </contour>
  </outline>
</glyph>
<glyph name="v" format="1">
  <advance width="913"/>
  <unicode hex="0076"/>
  <outline>
    <contour>
      <point x="893" y="852" type="qcurve" smooth="yes"/>
      <point x="893" y="820"/>
      <point x="849" y="694"/>
      <point x="747" y="490"/>
      <point x="580" y="199"/>
      <point x="457" y="2" type="qcurve"/>
      <point x="448" y="-3"/>
      <point x="424" y="-14"/>
      <point x="398" y="-25"/>
      <point x="372" y="-37"/>
      <point x="362" y="-41" type="qcurve"/>
      <point x="330" y="-10" type="line"/>
      <point x="323" y="46"/>
      <point x="303" y="185"/>
      <point x="280" y="332"/>
      <point x="254" y="480"/>
      <point x="230" y="610"/>
      <point x="207" y="714"/>
      <point x="199" y="745" type="qcurve" smooth="yes"/>
      <point x="191" y="772"/>
      <point x="173" y="804"/>
      <point x="154" y="822"/>
      <point x="136" y="827"/>
      <point x="127" y="827" type="qcurve" smooth="yes"/>
      <point x="118" y="827"/>
      <point x="85" y="819"/>
      <point x="53" y="810"/>
      <point x="29" y="803"/>
      <point x="29" y="803" type="qcurve"/>
      <point x="16" y="840" type="line"/>
      <point x="58" y="859"/>
      <point x="136" y="894"/>
      <point x="200" y="920"/>
      <point x="248" y="936"/>
      <point x="260" y="936" type="qcurve" smooth="yes"/>
      <point x="275" y="936"/>
      <point x="296" y="923"/>
      <point x="313" y="893"/>
      <point x="330" y="844"/>
      <point x="340" y="809" type="qcurve" smooth="yes"/>
      <point x="347" y="784"/>
      <point x="370" y="673"/>
      <point x="395" y="535"/>
      <point x="421" y="386"/>
      <point x="442" y="256"/>
      <point x="455" y="163"/>
      <point x="455" y="150" type="qcurve"/>
      <point x="529" y="270"/>
      <point x="641" y="484"/>
      <point x="716" y="653"/>
      <point x="754" y="771"/>
      <point x="754" y="797" type="qcurve" smooth="yes"/>
      <point x="754" y="817"/>
      <point x="720" y="838"/>
      <point x="692" y="838" type="qcurve" smooth="yes"/>
      <point x="675" y="838"/>
      <point x="634" y="831"/>
      <point x="612" y="823" type="qcurve"/>
      <point x="594" y="858" type="line"/>
      <point x="622" y="873"/>
      <point x="687" y="901"/>
      <point x="749" y="923"/>
      <point x="802" y="936"/>
      <point x="819" y="936" type="qcurve" smooth="yes"/>
      <point x="854" y="936"/>
      <point x="893" y="900"/>
    </contour>
  </outline>
</glyph>
<glyph name="w" format="1">
  <advance width="1290"/>
  <unicode hex="0077"/>
  <outline>
    <contour>
      <point x="1278" y="860" type="qcurve" smooth="yes"/>
      <point x="1278" y="834"/>
      <point x="1268" y="763"/>
      <point x="1241" y="665"/>
      <point x="1193" y="534"/>
      <point x="1116" y="361"/>
      <point x="1007" y="141"/>
      <point x="932" y="2" type="qcurve"/>
      <point x="923" y="-3"/>
      <point x="900" y="-14"/>
      <point x="874" y="-25"/>
      <point x="850" y="-37"/>
      <point x="840" y="-41" type="qcurve"/>
      <point x="807" y="-10" type="line"/>
      <point x="800" y="46"/>
      <point x="783" y="177"/>
      <point x="764" y="312"/>
      <point x="744" y="445"/>
      <point x="724" y="563"/>
      <point x="705" y="659"/>
      <point x="696" y="690" type="qcurve"/>
      <point x="695" y="669"/>
      <point x="671" y="584"/>
      <point x="631" y="470"/>
      <point x="577" y="338"/>
      <point x="515" y="200"/>
      <point x="448" y="67"/>
      <point x="414" y="10" type="qcurve"/>
      <point x="405" y="5"/>
      <point x="380" y="-8"/>
      <point x="352" y="-23"/>
      <point x="325" y="-37"/>
      <point x="315" y="-41" type="qcurve"/>
      <point x="283" y="-10" type="line"/>
      <point x="276" y="46"/>
      <point x="261" y="183"/>
      <point x="246" y="328"/>
      <point x="230" y="474"/>
      <point x="214" y="604"/>
      <point x="197" y="711"/>
      <point x="188" y="745" type="qcurve" smooth="yes"/>
      <point x="182" y="772"/>
      <point x="165" y="804"/>
      <point x="146" y="822"/>
      <point x="126" y="827"/>
      <point x="117" y="827" type="qcurve" smooth="yes"/>
      <point x="108" y="827"/>
      <point x="75" y="819"/>
      <point x="42" y="810"/>
      <point x="18" y="803"/>
      <point x="18" y="803" type="qcurve"/>
      <point x="4" y="840" type="line"/>
      <point x="46" y="859"/>
      <point x="122" y="894"/>
      <point x="184" y="920"/>
      <point x="231" y="936"/>
      <point x="244" y="936" type="qcurve" smooth="yes"/>
      <point x="272" y="936"/>
      <point x="300" y="871"/>
      <point x="317" y="799" type="qcurve" smooth="yes"/>
      <point x="323" y="771"/>
      <point x="339" y="670"/>
      <point x="356" y="546"/>
      <point x="372" y="411"/>
      <point x="386" y="289"/>
      <point x="395" y="191"/>
      <point x="397" y="166" type="qcurve"/>
      <point x="437" y="244"/>
      <point x="521" y="429"/>
      <point x="591" y="617"/>
      <point x="638" y="794"/>
      <point x="643" y="864" type="qcurve"/>
      <point x="658" y="877"/>
      <point x="693" y="903"/>
      <point x="728" y="923"/>
      <point x="759" y="936"/>
      <point x="770" y="936" type="qcurve" smooth="yes"/>
      <point x="774" y="936"/>
      <point x="786" y="903"/>
      <point x="800" y="849"/>
      <point x="815" y="778"/>
      <point x="829" y="704"/>
      <point x="843" y="630"/>
      <point x="848" y="600" type="qcurve" smooth="yes"/>
      <point x="855" y="553"/>
      <point x="874" y="439"/>
      <point x="893" y="319"/>
      <point x="910" y="199"/>
      <point x="915" y="147" type="qcurve"/>
      <point x="990" y="285"/>
      <point x="1085" y="495"/>
      <point x="1138" y="652"/>
      <point x="1157" y="761"/>
      <point x="1157" y="799" type="qcurve" smooth="yes"/>
      <point x="1157" y="820"/>
      <point x="1128" y="844"/>
      <point x="1102" y="844" type="qcurve" smooth="yes"/>
      <point x="1088" y="844"/>
      <point x="1048" y="836"/>
      <point x="1026" y="829" type="qcurve"/>
      <point x="1008" y="866" type="line"/>
      <point x="1042" y="886"/>
      <point x="1104" y="913"/>
      <point x="1153" y="929"/>
      <point x="1187" y="936"/>
      <point x="1194" y="936" type="qcurve" smooth="yes"/>
      <point x="1211" y="936"/>
      <point x="1241" y="931"/>
      <point x="1264" y="915"/>
      <point x="1278" y="885"/>
    </contour>
  </outline>
</glyph>
<glyph name="y" format="1">
  <advance width="926"/>
  <unicode hex="0079"/>
  <outline>
    <contour>
      <point x="893" y="860" type="qcurve" smooth="yes"/>
      <point x="893" y="826"/>
      <point x="856" y="719"/>
      <point x="773" y="540"/>
      <point x="638" y="274"/>
      <point x="541" y="82" type="qcurve" smooth="yes"/>
      <point x="474" y="-49"/>
      <point x="341" y="-263"/>
      <point x="201" y="-416"/>
      <point x="49" y="-500"/>
      <point x="-36" y="-500" type="qcurve" smooth="yes"/>
      <point x="-66" y="-500"/>
      <point x="-119" y="-490"/>
      <point x="-158" y="-475"/>
      <point x="-181" y="-457"/>
      <point x="-181" y="-449" type="qcurve" smooth="yes"/>
      <point x="-181" y="-437"/>
      <point x="-162" y="-394"/>
      <point x="-134" y="-347"/>
      <point x="-101" y="-308"/>
      <point x="-87" y="-301" type="qcurve"/>
      <point x="-63" y="-317"/>
      <point x="-26" y="-335"/>
      <point x="6" y="-343"/>
      <point x="38" y="-344"/>
      <point x="56" y="-344" type="qcurve" smooth="yes"/>
      <point x="137" y="-344"/>
      <point x="292" y="-187"/>
      <point x="376" y="-44" type="qcurve"/>
      <point x="366" y="14"/>
      <point x="337" y="160"/>
      <point x="302" y="314"/>
      <point x="264" y="469"/>
      <point x="226" y="605"/>
      <point x="191" y="714"/>
      <point x="176" y="745" type="qcurve" smooth="yes"/>
      <point x="153" y="796"/>
      <point x="121" y="827"/>
      <point x="104" y="827" type="qcurve" smooth="yes"/>
      <point x="95" y="827"/>
      <point x="62" y="819"/>
      <point x="30" y="810"/>
      <point x="6" y="803"/>
      <point x="6" y="803" type="qcurve"/>
      <point x="-6" y="840" type="line"/>
      <point x="36" y="859"/>
      <point x="112" y="894"/>
      <point x="173" y="920"/>
      <point x="219" y="936"/>
      <point x="231" y="936" type="qcurve" smooth="yes"/>
      <point x="245" y="936"/>
      <point x="266" y="922"/>
      <point x="286" y="892"/>
      <point x="305" y="843"/>
      <point x="317" y="809" type="qcurve" smooth="yes"/>
      <point x="336" y="755"/>
      <point x="381" y="608"/>
      <point x="427" y="438"/>
      <point x="471" y="255"/>
      <point x="489" y="165" type="qcurve"/>
      <point x="521" y="228"/>
      <point x="586" y="359"/>
      <point x="646" y="487"/>
      <point x="697" y="604"/>
      <point x="736" y="702"/>
      <point x="758" y="773"/>
      <point x="758" y="791" type="qcurve" smooth="yes"/>
      <point x="758" y="841"/>
      <point x="705" y="844" type="qcurve" smooth="yes"/>
      <point x="673" y="847"/>
      <point x="614" y="821" type="qcurve"/>
      <point x="596" y="858" type="line"/>
      <point x="668" y="900"/>
      <point x="777" y="936"/>
      <point x="811" y="936" type="qcurve" smooth="yes"/>
      <point x="828" y="936"/>
      <point x="858" y="931"/>
      <point x="880" y="915"/>
      <point x="893" y="885"/>
    </contour>
  </outline>
</glyph>
<glyph name="z" format="1">
  <advance width="776"/>
  <unicode hex="007A"/>
  <outline>
    <contour>
      <point x="776" y="885" type="line"/>
      <point x="694" y="796"/>
      <point x="562" y="621"/>
      <point x="437" y="440"/>
      <point x="308" y="251"/>
      <point x="229" y="150" type="qcurve"/>
      <point x="232" y="152"/>
      <point x="280" y="166"/>
      <point x="311" y="166" type="qcurve" smooth="yes"/>
      <point x="331" y="166"/>
      <point x="398" y="147"/>
      <point x="478" y="123"/>
      <point x="561" y="104"/>
      <point x="598" y="104" type="qcurve" smooth="yes"/>
      <point x="607" y="104"/>
      <point x="633" y="109"/>
      <point x="663" y="131"/>
      <point x="699" y="175"/>
      <point x="719" y="213" type="qcurve"/>
      <point x="754" y="193" type="line"/>
      <point x="726" y="131"/>
      <point x="684" y="49"/>
      <point x="635" y="0"/>
      <point x="571" y="-20"/>
      <point x="522" y="-20" type="qcurve" smooth="yes"/>
      <point x="473" y="-20"/>
      <point x="385" y="1"/>
      <point x="307" y="26"/>
      <point x="236" y="47"/>
      <point x="205" y="47" type="qcurve" smooth="yes"/>
      <point x="189" y="47"/>
      <point x="155" y="37"/>
      <point x="112" y="17"/>
      <point x="56" y="-12"/>
      <point x="18" y="-31" type="qcurve"/>
      <point x="-4" y="2" type="line"/>
      <point x="46" y="62"/>
      <point x="153" y="207"/>
      <point x="261" y="360"/>
      <point x="366" y="513"/>
      <point x="460" y="650"/>
      <point x="540" y="760"/>
      <point x="569" y="795" type="qcurve"/>
      <point x="268" y="795" type="line" smooth="yes"/>
      <point x="244" y="795"/>
      <point x="211" y="786"/>
      <point x="184" y="759"/>
      <point x="160" y="708"/>
      <point x="145" y="666" type="qcurve"/>
      <point x="106" y="674" type="line"/>
      <point x="125" y="764"/>
      <point x="162" y="893"/>
      <point x="170" y="936" type="qcurve"/>
      <point x="189" y="931"/>
      <point x="233" y="915"/>
      <point x="268" y="915" type="qcurve" smooth="yes"/>
      <point x="756" y="915" type="line"/>
      <point x="776" y="885" type="line"/>
    </contour>
  </outline>
</glyph>
<glyph name="bar" format="1">
  <advance width="410"/>
  <unicode hex="007C"/>
  <outline>
    <contour>
      <point x="176" y="-285" type="line"/>
      <point x="156" y="-299"/>
      <point x="96" y="-328"/>
      <point x="72" y="-336" type="qcurve"/>
      <point x="43" y="-311" type="line"/>
      <point x="305" y="1550" type="line"/>
      <point x="333" y="1567"/>
      <point x="379" y="1591"/>
      <point x="408" y="1599" type="qcurve"/>
      <point x="438" y="1577" type="line"/>
    </contour>
  </outline>
</glyph>
<glyph name="braceright" format="1">
  <advance width="641"/>
  <unicode hex="007D"/>
  <outline>
    <contour>
      <point x="557" y="651" type="line"/>
      <point x="443" y="620"/>
      <point x="314" y="499"/>
      <point x="303" y="422" type="qcurve" smooth="yes"/>
      <point x="297" y="382"/>
      <point x="295" y="324"/>
      <point x="297" y="278"/>
      <point x="301" y="238"/>
      <point x="303" y="191"/>
      <point x="300" y="133"/>
      <point x="295" y="92" type="qcurve" smooth="yes"/>
      <point x="285" y="24"/>
      <point x="226" y="-94"/>
      <point x="133" y="-196"/>
      <point x="10" y="-281"/>
      <point x="-63" y="-315" type="qcurve"/>
      <point x="-82" y="-266" type="line"/>
      <point x="-42" y="-242"/>
      <point x="30" y="-181"/>
      <point x="86" y="-106"/>
      <point x="124" y="-17"/>
      <point x="131" y="35" type="qcurve" smooth="yes"/>
      <point x="137" y="74"/>
      <point x="140" y="131"/>
      <point x="139" y="178"/>
      <point x="135" y="220"/>
      <point x="134" y="267"/>
      <point x="136" y="325"/>
      <point x="141" y="365" type="qcurve" smooth="yes"/>
      <point x="147" y="406"/>
      <point x="181" y="486"/>
      <point x="234" y="556"/>
      <point x="304" y="613"/>
      <point x="346" y="631" type="qcurve"/>
      <point x="301" y="641"/>
      <point x="243" y="686"/>
      <point x="214" y="754"/>
      <point x="209" y="845"/>
      <point x="217" y="901" type="qcurve" smooth="yes"/>
      <point x="226" y="960"/>
      <point x="249" y="1044"/>
      <point x="273" y="1118"/>
      <point x="294" y="1192"/>
      <point x="301" y="1241" type="qcurve" smooth="yes"/>
      <point x="310" y="1297"/>
      <point x="308" y="1383"/>
      <point x="281" y="1452"/>
      <point x="225" y="1509"/>
      <point x="180" y="1538" type="qcurve"/>
      <point x="211" y="1599" type="line"/>
      <point x="285" y="1566"/>
      <point x="386" y="1491"/>
      <point x="445" y="1399"/>
      <point x="463" y="1286"/>
      <point x="453" y="1214" type="qcurve" smooth="yes"/>
      <point x="444" y="1155"/>
      <point x="422" y="1077"/>
      <point x="398" y="1006"/>
      <point x="375" y="925"/>
      <point x="367" y="864" type="qcurve" smooth="yes"/>
      <point x="354" y="783"/>
      <point x="418" y="700"/>
      <point x="487" y="700" type="qcurve" smooth="yes"/>
      <point x="499" y="700"/>
      <point x="505" y="700" type="qcurve" smooth="yes"/>
      <point x="511" y="700"/>
      <point x="521" y="701"/>
      <point x="534" y="704"/>
      <point x="549" y="707" type="qcurve"/>
      <point x="557" y="651" type="line"/>
    </contour>
  </outline>
</glyph>
<glyph name="currency" format="1">
  <advance width="865"/>
  <unicode hex="00A4"/>
  <outline>
    <contour>
      <point x="501" y="770" type="qcurve" smooth="yes"/>
      <point x="466" y="770"/>
      <point x="405" y="744"/>
      <point x="359" y="698"/>
      <point x="329" y="636"/>
      <point x="325" y="601" type="qcurve" smooth="yes"/>
      <point x="321" y="569"/>
      <point x="336" y="509"/>
      <point x="370" y="463"/>
      <point x="421" y="434"/>
      <point x="454" y="434" type="qcurve" smooth="yes"/>
      <point x="489" y="434"/>
      <point x="548" y="461"/>
      <point x="594" y="507"/>
      <point x="623" y="568"/>
      <point x="628" y="602" type="qcurve" smooth="yes"/>
      <point x="632" y="633"/>
      <point x="618" y="693"/>
      <point x="585" y="741"/>
      <point x="534" y="770"/>
    </contour>
    <contour>
      <point x="662" y="280" type="line"/>
      <point x="583" y="384" type="line"/>
      <point x="518" y="339"/>
      <point x="441" y="339" type="qcurve" smooth="yes"/>
      <point x="401" y="339"/>
      <point x="336" y="364"/>
      <point x="311" y="387" type="qcurve"/>
      <point x="200" y="281" type="line"/>
      <point x="171" y="283" type="line"/>
      <point x="166" y="297"/>
      <point x="155" y="329"/>
      <point x="151" y="345" type="qcurve"/>
      <point x="262" y="451" type="line"/>
      <point x="228" y="519"/>
      <point x="239" y="600" type="qcurve" smooth="yes"/>
      <point x="244" y="648"/>
      <point x="277" y="725"/>
      <point x="300" y="755" type="qcurve"/>
      <point x="214" y="867" type="line"/>
      <point x="221" y="900" type="line"/>
      <point x="234" y="908"/>
      <point x="274" y="917"/>
      <point x="289" y="924" type="qcurve"/>
      <point x="369" y="818" type="line"/>
      <point x="406" y="843"/>
      <point x="482" y="866"/>
      <point x="514" y="866" type="qcurve" smooth="yes"/>
      <point x="552" y="866"/>
      <point x="616" y="839"/>
      <point x="641" y="816" type="qcurve"/>
      <point x="750" y="921" type="line"/>
      <point x="781" y="922" type="line"/>
      <point x="799" y="856" type="line"/>
      <point x="689" y="751" type="line"/>
      <point x="706" y="717"/>
      <point x="718" y="639"/>
      <point x="713" y="600" type="qcurve" smooth="yes"/>
      <point x="701" y="514"/>
      <point x="650" y="448" type="qcurve"/>
      <point x="737" y="335" type="line"/>
      <point x="734" y="301" type="line"/>
    </contour>
  </outline>
</glyph>
<glyph name="yen" format="1">
  <advance width="823"/>
  <unicode hex="00A5"/>
  <outline>
    <contour>
      <point x="972" y="1179" type="line"/>
      <point x="917" y="1167"/>
      <point x="855" y="1141"/>
      <point x="841" y="1115" type="qcurve" smooth="yes"/>
      <point x="502" y="524" type="line"/>
      <point x="501" y="511" type="line"/>
      <point x="711" y="511" type="line"/>
      <point x="728" y="488" type="line"/>
      <point x="700" y="422" type="line"/>
      <point x="490" y="422" type="line"/>
      <point x="452" y="111" type="line" smooth="yes"/>
      <point x="450" y="99"/>
      <point x="503" y="60"/>
      <point x="574" y="42" type="qcurve"/>
      <point x="569" y="0" type="line"/>
      <point x="182" y="0" type="line"/>
      <point x="188" y="42" type="line"/>
      <point x="263" y="60"/>
      <point x="325" y="97"/>
      <point x="326" y="111" type="qcurve" smooth="yes"/>
      <point x="364" y="422" type="line"/>
      <point x="151" y="422" type="line"/>
      <point x="137" y="447" type="line"/>
      <point x="142" y="461"/>
      <point x="156" y="495"/>
      <point x="162" y="511" type="qcurve"/>
      <point x="375" y="511" type="line"/>
      <point x="378" y="534" type="line"/>
      <point x="362" y="605"/>
      <point x="311" y="769"/>
      <point x="252" y="928"/>
      <point x="188" y="1070"/>
      <point x="159" y="1119" type="qcurve" smooth="yes"/>
      <point x="150" y="1133"/>
      <point x="131" y="1151"/>
      <point x="102" y="1160"/>
      <point x="60" y="1159"/>
      <point x="30" y="1155" type="qcurve"/>
      <point x="22" y="1197" type="line"/>
      <point x="45" y="1203"/>
      <point x="101" y="1217"/>
      <point x="157" y="1229"/>
      <point x="206" y="1236"/>
      <point x="223" y="1236" type="qcurve" smooth="yes"/>
      <point x="245" y="1236"/>
      <point x="267" y="1199" type="qcurve" smooth="yes"/>
      <point x="286" y="1167"/>
      <point x="328" y="1079"/>
      <point x="370" y="980"/>
      <point x="410" y="876"/>
      <point x="443" y="777"/>
      <point x="468" y="689"/>
      <point x="475" y="657" type="qcurve"/>
      <point x="743" y="1115" type="line" smooth="yes"/>
      <point x="757" y="1142"/>
      <point x="719" y="1170"/>
      <point x="660" y="1179" type="qcurve"/>
      <point x="665" y="1221" type="line"/>
      <point x="977" y="1221" type="line"/>
    </contour>
  </outline>
</glyph>
<glyph name="section" format="1">
  <advance width="865"/>
  <unicode hex="00A7"/>
  <outline>
    <contour>
      <point x="517" y="529" type="qcurve" smooth="yes"/>
      <point x="539" y="515"/>
      <point x="583" y="488"/>
      <point x="604" y="473" type="qcurve"/>
      <point x="636" y="493"/>
      <point x="677" y="556"/>
      <point x="682" y="594" type="qcurve" smooth="yes"/>
      <point x="688" y="640"/>
      <point x="666" y="715"/>
      <point x="607" y="786"/>
      <point x="513" y="857"/>
      <point x="449" y="899" type="qcurve" smooth="yes"/>
      <point x="411" y="922"/>
      <point x="380" y="952" type="qcurve"/>
      <point x="363" y="946"/>
      <point x="336" y="916"/>
      <point x="315" y="878"/>
      <point x="301" y="838"/>
      <point x="299" y="822" type="qcurve" smooth="yes"/>
      <point x="293" y="776"/>
      <point x="313" y="705"/>
      <point x="367" y="640"/>
      <point x="455" y="572"/>
    </contour>
    <contour>
      <point x="809" y="656" type="qcurve" smooth="yes"/>
      <point x="796" y="567"/>
      <point x="716" y="442"/>
      <point x="670" y="408" type="qcurve"/>
      <point x="690" y="380"/>
      <point x="707" y="310"/>
      <point x="701" y="263" type="qcurve" smooth="yes"/>
      <point x="691" y="192"/>
      <point x="641" y="94"/>
      <point x="575" y="29"/>
      <point x="499" y="-8"/>
      <point x="428" y="-26"/>
      <point x="367" y="-30"/>
      <point x="350" y="-30" type="qcurve" smooth="yes"/>
      <point x="307" y="-30"/>
      <point x="192" y="16"/>
      <point x="137" y="53" type="qcurve" smooth="yes"/>
      <point x="131" y="56"/>
      <point x="135" y="115"/>
      <point x="148" y="192"/>
      <point x="167" y="270"/>
      <point x="176" y="293" type="qcurve"/>
      <point x="214" y="282" type="line"/>
      <point x="210" y="240"/>
      <point x="235" y="163"/>
      <point x="287" y="103"/>
      <point x="362" y="68"/>
      <point x="409" y="68" type="qcurve" smooth="yes"/>
      <point x="474" y="68"/>
      <point x="566" y="136"/>
      <point x="576" y="207" type="qcurve" smooth="yes"/>
      <point x="582" y="247"/>
      <point x="551" y="305"/>
      <point x="494" y="352"/>
      <point x="419" y="394"/>
      <point x="382" y="419" type="qcurve" smooth="yes"/>
      <point x="327" y="455"/>
      <point x="242" y="528"/>
      <point x="187" y="611"/>
      <point x="165" y="711"/>
      <point x="174" y="775" type="qcurve" smooth="yes"/>
      <point x="179" y="812"/>
      <point x="210" y="881"/>
      <point x="253" y="941"/>
      <point x="306" y="991"/>
      <point x="334" y="1008" type="qcurve"/>
      <point x="308" y="1048"/>
      <point x="287" y="1143"/>
      <point x="295" y="1200" type="qcurve" smooth="yes"/>
      <point x="304" y="1262"/>
      <point x="362" y="1353"/>
      <point x="445" y="1412"/>
      <point x="545" y="1440"/>
      <point x="596" y="1440" type="qcurve" smooth="yes"/>
      <point x="624" y="1440"/>
      <point x="689" y="1426"/>
      <point x="751" y="1402"/>
      <point x="804" y="1371"/>
      <point x="820" y="1353" type="qcurve" smooth="yes"/>
      <point x="825" y="1347"/>
      <point x="811" y="1305"/>
      <point x="787" y="1255"/>
      <point x="761" y="1211"/>
      <point x="754" y="1203" type="qcurve"/>
      <point x="720" y="1211" type="line"/>
      <point x="687" y="1283"/>
      <point x="604" y="1350"/>
      <point x="559" y="1350" type="qcurve" smooth="yes"/>
      <point x="499" y="1350"/>
      <point x="425" y="1293"/>
      <point x="417" y="1240" type="qcurve" smooth="yes"/>
      <point x="412" y="1205"/>
      <point x="429" y="1148"/>
      <point x="472" y="1094"/>
      <point x="539" y="1040"/>
      <point x="584" y="1009" type="qcurve" smooth="yes"/>
      <point x="639" y="971"/>
      <point x="730" y="902"/>
      <point x="791" y="823"/>
      <point x="818" y="725"/>
    </contour>
  </outline>
</glyph>
<glyph name="dieresis" format="1">
  <advance width="1042"/>
  <unicode hex="00A8"/>
  <outline>
    <contour>
      <point x="508" y="1229" type="qcurve" smooth="yes"/>
      <point x="508" y="1201"/>
      <point x="490" y="1146"/>
      <point x="458" y="1101"/>
      <point x="411" y="1073"/>
      <point x="383" y="1073" type="qcurve" smooth="yes"/>
      <point x="351" y="1073"/>
      <point x="315" y="1109"/>
      <point x="315" y="1143" type="qcurve" smooth="yes"/>
      <point x="315" y="1170"/>
      <point x="334" y="1225"/>
      <point x="367" y="1271"/>
      <point x="414" y="1300"/>
      <point x="442" y="1300" type="qcurve" smooth="yes"/>
      <point x="473" y="1300"/>
      <point x="508" y="1263"/>
    </contour>
    <contour>
      <point x="881" y="1229" type="qcurve" smooth="yes"/>
      <point x="881" y="1201"/>
      <point x="863" y="1146"/>
      <point x="830" y="1101"/>
      <point x="783" y="1073"/>
      <point x="754" y="1073" type="qcurve" smooth="yes"/>
      <point x="723" y="1073"/>
      <point x="688" y="1109"/>
      <point x="688" y="1143" type="qcurve" smooth="yes"/>
      <point x="688" y="1170"/>
      <point x="706" y="1225"/>
      <point x="738" y="1271"/>
      <point x="784" y="1300"/>
      <point x="813" y="1300" type="qcurve" smooth="yes"/>
      <point x="844" y="1300"/>
      <point x="881" y="1263"/>
    </contour>
  </outline>
</glyph>
<glyph name="copyright" format="1">
  <advance width="1360"/>
  <unicode hex="00A9"/>
  <outline>
    <contour>
      <point x="1014" y="942" type="qcurve"/>
      <point x="976" y="917"/>
      <point x="908" y="872"/>
      <point x="885" y="872" type="qcurve" smooth="yes"/>
      <point x="875" y="872"/>
      <point x="848" y="900"/>
      <point x="810" y="935"/>
      <point x="759" y="963"/>
      <point x="725" y="963" type="qcurve" smooth="yes"/>
      <point x="683" y="963"/>
      <point x="611" y="925"/>
      <point x="553" y="861"/>
      <point x="507" y="778"/>
      <point x="477" y="688"/>
      <point x="461" y="598"/>
      <point x="461" y="559" type="qcurve" smooth="yes"/>
      <point x="461" y="505"/>
      <point x="495" y="415"/>
      <point x="553" y="350"/>
      <point x="630" y="315"/>
      <point x="672" y="315" type="qcurve" smooth="yes"/>
      <point x="688" y="315"/>
      <point x="731" y="327"/>
      <point x="790" y="357"/>
      <point x="868" y="406"/>
      <point x="918" y="444" type="qcurve"/>
      <point x="926" y="433"/>
      <point x="941" y="416"/>
      <point x="946" y="408" type="qcurve"/>
      <point x="874" y="348"/>
      <point x="767" y="275"/>
      <point x="683" y="236"/>
      <point x="614" y="223"/>
      <point x="580" y="223" type="qcurve" smooth="yes"/>
      <point x="549" y="223"/>
      <point x="465" y="252"/>
      <point x="389" y="321"/>
      <point x="336" y="438"/>
      <point x="336" y="526" type="qcurve" smooth="yes"/>
      <point x="336" y="583"/>
      <point x="358" y="698"/>
      <point x="410" y="809"/>
      <point x="496" y="916"/>
      <point x="561" y="965" type="qcurve" smooth="yes"/>
      <point x="584" y="983"/>
      <point x="646" y="1013"/>
      <point x="713" y="1033"/>
      <point x="780" y="1044"/>
      <point x="809" y="1044" type="qcurve" smooth="yes"/>
      <point x="850" y="1044"/>
      <point x="914" y="1015"/>
      <point x="963" y="979"/>
      <point x="1000" y="946"/>
    </contour>
    <contour>
      <point x="1200" y="719" type="qcurve" smooth="yes"/>
      <point x="1200" y="820"/>
      <point x="1140" y="997"/>
      <point x="1028" y="1128"/>
      <point x="868" y="1204"/>
      <point x="768" y="1204" type="qcurve" smooth="yes"/>
      <point x="683" y="1204"/>
      <point x="528" y="1151"/>
      <point x="395" y="1058"/>
      <point x="288" y="932"/>
      <point x="213" y="785"/>
      <point x="172" y="625"/>
      <point x="172" y="545" type="qcurve" smooth="yes"/>
      <point x="172" y="443"/>
      <point x="232" y="265"/>
      <point x="345" y="132"/>
      <point x="505" y="55"/>
      <point x="606" y="55" type="qcurve" smooth="yes"/>
      <point x="692" y="55"/>
      <point x="847" y="108"/>
      <point x="979" y="202"/>
      <point x="1085" y="329"/>
      <point x="1160" y="477"/>
      <point x="1200" y="638"/>
    </contour>
    <contour>
      <point x="1280" y="752" type="qcurve" smooth="yes"/>
      <point x="1280" y="657"/>
      <point x="1236" y="467"/>
      <point x="1152" y="293"/>
      <point x="1031" y="143"/>
      <point x="879" y="32"/>
      <point x="697" y="-31"/>
      <point x="594" y="-31" type="qcurve" smooth="yes"/>
      <point x="480" y="-31"/>
      <point x="295" y="55"/>
      <point x="164" y="205"/>
      <point x="94" y="409"/>
      <point x="94" y="526" type="qcurve" smooth="yes"/>
      <point x="94" y="619"/>
      <point x="140" y="805"/>
      <point x="226" y="975"/>
      <point x="348" y="1121"/>
      <point x="500" y="1229"/>
      <point x="679" y="1290"/>
      <point x="778" y="1290" type="qcurve" smooth="yes"/>
      <point x="891" y="1290"/>
      <point x="1076" y="1208"/>
      <point x="1208" y="1064"/>
      <point x="1280" y="867"/>
    </contour>
  </outline>
</glyph>
<glyph name="ordfeminine" format="1">
  <advance width="586"/>
  <unicode hex="00AA"/>
  <outline>
    <contour>
      <point x="549" y="635" type="line"/>
      <point x="544" y="619"/>
      <point x="531" y="600"/>
      <point x="526" y="586" type="qcurve"/>
      <point x="76" y="586" type="line"/>
      <point x="59" y="606" type="line"/>
      <point x="64" y="622"/>
      <point x="76" y="644"/>
      <point x="82" y="659" type="qcurve"/>
      <point x="530" y="659" type="line"/>
      <point x="549" y="635" type="line"/>
    </contour>
    <contour>
      <point x="401" y="962" type="qcurve"/>
      <point x="405" y="987"/>
      <point x="414" y="1042"/>
      <point x="422" y="1092"/>
      <point x="430" y="1132"/>
      <point x="432" y="1143" type="qcurve"/>
      <point x="415" y="1156"/>
      <point x="372" y="1180"/>
      <point x="346" y="1180" type="qcurve" smooth="yes"/>
      <point x="309" y="1180"/>
      <point x="248" y="1128"/>
      <point x="204" y="1053"/>
      <point x="180" y="969"/>
      <point x="180" y="938" type="qcurve" smooth="yes"/>
      <point x="180" y="867"/>
      <point x="224" y="784"/>
      <point x="256" y="784" type="qcurve" smooth="yes"/>
      <point x="269" y="784"/>
      <point x="305" y="816"/>
      <point x="346" y="867"/>
      <point x="385" y="931"/>
    </contour>
    <contour>
      <point x="563" y="768" type="line"/>
      <point x="517" y="739"/>
      <point x="458" y="713"/>
      <point x="442" y="713" type="qcurve" smooth="yes"/>
      <point x="432" y="713"/>
      <point x="414" y="726"/>
      <point x="401" y="762"/>
      <point x="393" y="827"/>
      <point x="393" y="879" type="qcurve"/>
      <point x="379" y="854"/>
      <point x="340" y="796"/>
      <point x="293" y="746"/>
      <point x="244" y="713"/>
      <point x="221" y="713" type="qcurve" smooth="yes"/>
      <point x="203" y="713"/>
      <point x="163" y="733"/>
      <point x="129" y="777"/>
      <point x="106" y="847"/>
      <point x="106" y="897" type="qcurve" smooth="yes"/>
      <point x="106" y="984"/>
      <point x="185" y="1133"/>
      <point x="262" y="1186" type="qcurve" smooth="yes"/>
      <point x="277" y="1196"/>
      <point x="312" y="1214"/>
      <point x="348" y="1228"/>
      <point x="385" y="1237"/>
      <point x="401" y="1237" type="qcurve" smooth="yes"/>
      <point x="424" y="1237"/>
      <point x="465" y="1215"/>
      <point x="482" y="1204" type="qcurve"/>
      <point x="505" y="1222"/>
      <point x="537" y="1237" type="qcurve"/>
      <point x="547" y="1217" type="line"/>
      <point x="538" y="1210"/>
      <point x="525" y="1198"/>
      <point x="516" y="1183"/>
      <point x="510" y="1161"/>
      <point x="506" y="1143" type="qcurve" smooth="yes"/>
      <point x="497" y="1104"/>
      <point x="484" y="1022"/>
      <point x="474" y="950"/>
      <point x="469" y="895"/>
      <point x="469" y="883" type="qcurve" smooth="yes"/>
      <point x="469" y="821"/>
      <point x="481" y="774"/>
      <point x="494" y="774" type="qcurve" smooth="yes"/>
      <point x="505" y="774"/>
      <point x="533" y="779"/>
      <point x="555" y="788" type="qcurve"/>
      <point x="563" y="768" type="line"/>
    </contour>
  </outline>
</glyph>
<glyph name="guillemotleft" format="1">
  <advance width="882"/>
  <unicode hex="00AB"/>
  <outline>
    <contour>
      <point x="58" y="414" type="line"/>
      <point x="58" y="414"/>
      <point x="61" y="435"/>
      <point x="65" y="461"/>
      <point x="69" y="484"/>
      <point x="70" y="485" type="qcurve" smooth="yes"/>
      <point x="442" y="889" type="line"/>
      <point x="476" y="860" type="line"/>
      <point x="476" y="860"/>
      <point x="454" y="825"/>
      <point x="417" y="767"/>
      <point x="370" y="693"/>
      <point x="321" y="616"/>
      <point x="275" y="542"/>
      <point x="238" y="484"/>
      <point x="216" y="450"/>
      <point x="217" y="450" type="qcurve" smooth="yes"/>
      <point x="365" y="36" type="line"/>
      <point x="323" y="7" type="line"/>
    </contour>
    <contour>
      <point x="386" y="414" type="line"/>
      <point x="386" y="414"/>
      <point x="389" y="435"/>
      <point x="393" y="461"/>
      <point x="397" y="484"/>
      <point x="398" y="485" type="qcurve" smooth="yes"/>
      <point x="770" y="889" type="line"/>
      <point x="804" y="860" type="line"/>
      <point x="804" y="860"/>
      <point x="782" y="825"/>
      <point x="745" y="767"/>
      <point x="698" y="693"/>
      <point x="649" y="616"/>
      <point x="603" y="542"/>
      <point x="566" y="484"/>
      <point x="544" y="450"/>
      <point x="545" y="450" type="qcurve" smooth="yes"/>
      <point x="693" y="36" type="line"/>
      <point x="651" y="7" type="line"/>
    </contour>
  </outline>
</glyph>
<glyph name="logicalnot" format="1">
  <advance width="823"/>
  <unicode hex="00AC"/>
  <outline>
    <contour>
      <point x="725" y="324" type="line"/>
      <point x="705" y="308"/>
      <point x="651" y="280"/>
      <point x="627" y="272" type="qcurve"/>
      <point x="606" y="297" type="line"/>
      <point x="637" y="506" type="line"/>
      <point x="70" y="506" type="line"/>
      <point x="51" y="530" type="line"/>
      <point x="59" y="550"/>
      <point x="81" y="598"/>
      <point x="92" y="618" type="qcurve"/>
      <point x="739" y="618" type="line"/>
      <point x="762" y="596" type="line"/>
    </contour>
  </outline>
</glyph>
<glyph name="registered" format="1">
  <advance width="704"/>
  <unicode hex="00AE"/>
  <outline>
    <contour>
      <point x="436" y="1256" type="qcurve" smooth="yes"/>
      <point x="431" y="1256"/>
      <point x="426" y="1256" type="qcurve" smooth="yes"/>
      <point x="421" y="1256"/>
      <point x="416" y="1255" type="qcurve"/>
      <point x="396" y="1109" type="line"/>
      <point x="402" y="1107"/>
      <point x="407" y="1107" type="qcurve" smooth="yes"/>
      <point x="413" y="1107"/>
      <point x="420" y="1107" type="qcurve" smooth="yes"/>
      <point x="465" y="1107"/>
      <point x="514" y="1139"/>
      <point x="519" y="1177" type="qcurve" smooth="yes"/>
      <point x="521" y="1192"/>
      <point x="515" y="1220"/>
      <point x="496" y="1242"/>
      <point x="462" y="1256"/>
    </contour>
    <contour>
      <point x="276" y="887" type="line"/>
      <point x="278" y="905" type="line"/>
      <point x="318" y="914"/>
      <point x="320" y="924" type="qcurve" smooth="yes"/>
      <point x="365" y="1250" type="line"/>
      <point x="326" y="1244" type="line"/>
      <point x="328" y="1273" type="line"/>
      <point x="355" y="1280"/>
      <point x="414" y="1291"/>
      <point x="451" y="1291" type="qcurve" smooth="yes"/>
      <point x="485" y="1291"/>
      <point x="534" y="1273"/>
      <point x="565" y="1244"/>
      <point x="578" y="1206"/>
      <point x="575" y="1186" type="qcurve" smooth="yes"/>
      <point x="568" y="1139"/>
      <point x="510" y="1086"/>
      <point x="469" y="1076" type="qcurve"/>
      <point x="541" y="934" type="line" smooth="yes"/>
      <point x="546" y="923"/>
      <point x="566" y="920"/>
      <point x="586" y="928" type="qcurve"/>
      <point x="589" y="910" type="line"/>
      <point x="586" y="908" type="line" smooth="yes"/>
      <point x="569" y="899"/>
      <point x="526" y="881"/>
      <point x="516" y="881" type="qcurve" smooth="yes"/>
      <point x="508" y="881"/>
      <point x="493" y="893"/>
      <point x="491" y="899" type="qcurve" smooth="yes"/>
      <point x="420" y="1070" type="line"/>
      <point x="418" y="1070" type="line" smooth="yes"/>
      <point x="404" y="1070"/>
      <point x="391" y="1073" type="qcurve"/>
      <point x="370" y="924" type="line" smooth="yes"/>
      <point x="368" y="914"/>
      <point x="405" y="905" type="qcurve"/>
      <point x="403" y="887" type="line"/>
    </contour>
    <contour>
      <point x="683" y="1084" type="qcurve" smooth="yes"/>
      <point x="691" y="1143"/>
      <point x="668" y="1249"/>
      <point x="613" y="1328"/>
      <point x="528" y="1375"/>
      <point x="474" y="1375" type="qcurve" smooth="yes"/>
      <point x="421" y="1375"/>
      <point x="326" y="1328"/>
      <point x="252" y="1249"/>
      <point x="202" y="1143"/>
      <point x="194" y="1084" type="qcurve" smooth="yes"/>
      <point x="186" y="1024"/>
      <point x="208" y="919"/>
      <point x="264" y="839"/>
      <point x="348" y="793"/>
      <point x="401" y="793" type="qcurve" smooth="yes"/>
      <point x="455" y="793"/>
      <point x="550" y="839"/>
      <point x="625" y="919"/>
      <point x="675" y="1024"/>
    </contour>
    <contour>
      <point x="736" y="1084" type="qcurve" smooth="yes"/>
      <point x="726" y="1012"/>
      <point x="664" y="886"/>
      <point x="571" y="792"/>
      <point x="454" y="738"/>
      <point x="390" y="738" type="qcurve" smooth="yes"/>
      <point x="325" y="738"/>
      <point x="224" y="792"/>
      <point x="158" y="886"/>
      <point x="131" y="1012"/>
      <point x="141" y="1084" type="qcurve" smooth="yes"/>
      <point x="151" y="1156"/>
      <point x="213" y="1282"/>
      <point x="306" y="1376"/>
      <point x="422" y="1430"/>
      <point x="487" y="1430" type="qcurve" smooth="yes"/>
      <point x="551" y="1430"/>
      <point x="653" y="1376"/>
      <point x="719" y="1282"/>
      <point x="746" y="1156"/>
    </contour>
  </outline>
</glyph>
<glyph name="degree" format="1">
  <advance width="628"/>
  <unicode hex="00B0"/>
  <outline>
    <contour>
      <point x="362" y="851" type="qcurve" smooth="yes"/>
      <point x="397" y="851"/>
      <point x="452" y="885"/>
      <point x="489" y="938"/>
      <point x="509" y="1000"/>
      <point x="509" y="1028" type="qcurve" smooth="yes"/>
      <point x="509" y="1076"/>
      <point x="467" y="1142"/>
      <point x="429" y="1142" type="qcurve" smooth="yes"/>
      <point x="402" y="1142"/>
      <point x="350" y="1114"/>
      <point x="309" y="1066"/>
      <point x="284" y="1002"/>
      <point x="284" y="966" type="qcurve" smooth="yes"/>
      <point x="284" y="943"/>
      <point x="294" y="901"/>
      <point x="314" y="869"/>
      <point x="343" y="851"/>
    </contour>
    <contour>
      <point x="614" y="1073" type="qcurve" smooth="yes"/>
      <point x="614" y="1026"/>
      <point x="585" y="943"/>
      <point x="538" y="873"/>
      <point x="477" y="818"/>
      <point x="413" y="779"/>
      <point x="351" y="759"/>
      <point x="326" y="759" type="qcurve" smooth="yes"/>
      <point x="293" y="759"/>
      <point x="238" y="784"/>
      <point x="199" y="827"/>
      <point x="178" y="885"/>
      <point x="178" y="918" type="qcurve" smooth="yes"/>
      <point x="178" y="984"/>
      <point x="235" y="1099"/>
      <point x="322" y="1185"/>
      <point x="422" y="1235"/>
      <point x="466" y="1235" type="qcurve" smooth="yes"/>
      <point x="498" y="1235"/>
      <point x="552" y="1210"/>
      <point x="592" y="1166"/>
      <point x="614" y="1107"/>
    </contour>
  </outline>
</glyph>
<glyph name="twosuperior" format="1">
  <advance width="576"/>
  <unicode hex="00B2"/>
  <outline>
    <contour>
      <point x="604" y="1212" type="qcurve" smooth="yes"/>
      <point x="604" y="1174"/>
      <point x="565" y="1087"/>
      <point x="466" y="965"/>
      <point x="299" y="801"/>
      <point x="170" y="687" type="qcurve"/>
      <point x="422" y="687" type="line" smooth="yes"/>
      <point x="443" y="687"/>
      <point x="474" y="718"/>
      <point x="495" y="756"/>
      <point x="505" y="787"/>
      <point x="505" y="787" type="qcurve"/>
      <point x="545" y="780" type="line"/>
      <point x="509" y="608" type="line"/>
      <point x="55" y="608" type="line"/>
      <point x="45" y="662" type="line"/>
      <point x="172" y="771"/>
      <point x="341" y="936"/>
      <point x="442" y="1062"/>
      <point x="484" y="1156"/>
      <point x="484" y="1194" type="qcurve" smooth="yes"/>
      <point x="484" y="1238"/>
      <point x="428" y="1283"/>
      <point x="377" y="1283" type="qcurve" smooth="yes"/>
      <point x="351" y="1283"/>
      <point x="310" y="1263"/>
      <point x="280" y="1231"/>
      <point x="262" y="1189"/>
      <point x="259" y="1168" type="qcurve"/>
      <point x="236" y="1157"/>
      <point x="182" y="1142"/>
      <point x="153" y="1139" type="qcurve"/>
      <point x="138" y="1157" type="line"/>
      <point x="143" y="1188"/>
      <point x="194" y="1255"/>
      <point x="272" y="1311"/>
      <point x="371" y="1348"/>
      <point x="424" y="1349" type="qcurve" smooth="yes"/>
      <point x="463" y="1350"/>
      <point x="529" y="1334"/>
      <point x="577" y="1300"/>
      <point x="604" y="1248"/>
    </contour>
  </outline>
</glyph>
<glyph name="threesuperior" format="1">
  <advance width="576"/>
  <unicode hex="00B3"/>
  <outline>
    <contour>
      <point x="568" y="1209" type="qcurve" smooth="yes"/>
      <point x="568" y="1176"/>
      <point x="545" y="1120"/>
      <point x="504" y="1074"/>
      <point x="447" y="1039"/>
      <point x="413" y="1027" type="qcurve"/>
      <point x="444" y="1023"/>
      <point x="495" y="994"/>
      <point x="531" y="950"/>
      <point x="551" y="895"/>
      <point x="551" y="865" type="qcurve" smooth="yes"/>
      <point x="551" y="809"/>
      <point x="508" y="708"/>
      <point x="428" y="633"/>
      <point x="314" y="589"/>
      <point x="244" y="589" type="qcurve" smooth="yes"/>
      <point x="194" y="589"/>
      <point x="90" y="631"/>
      <point x="37" y="679" type="qcurve"/>
      <point x="64" y="730" type="line"/>
      <point x="91" y="710"/>
      <point x="136" y="683"/>
      <point x="177" y="667"/>
      <point x="216" y="661"/>
      <point x="237" y="661" type="qcurve" smooth="yes"/>
      <point x="283" y="661"/>
      <point x="354" y="690"/>
      <point x="403" y="741"/>
      <point x="428" y="810"/>
      <point x="428" y="849" type="qcurve" smooth="yes"/>
      <point x="428" y="883"/>
      <point x="406" y="932"/>
      <point x="370" y="963"/>
      <point x="323" y="977"/>
      <point x="298" y="977" type="qcurve" smooth="yes"/>
      <point x="290" y="977"/>
      <point x="286" y="977" type="qcurve" smooth="yes"/>
      <point x="282" y="977"/>
      <point x="276" y="976"/>
      <point x="267" y="974"/>
      <point x="257" y="973" type="qcurve"/>
      <point x="253" y="1019" type="line"/>
      <point x="293" y="1029"/>
      <point x="365" y="1056"/>
      <point x="417" y="1096"/>
      <point x="448" y="1152"/>
      <point x="448" y="1192" type="qcurve" smooth="yes"/>
      <point x="448" y="1230"/>
      <point x="402" y="1283"/>
      <point x="353" y="1283" type="qcurve" smooth="yes"/>
      <point x="311" y="1283"/>
      <point x="254" y="1233"/>
      <point x="256" y="1192" type="qcurve"/>
      <point x="232" y="1181"/>
      <point x="171" y="1170"/>
      <point x="144" y="1168" type="qcurve"/>
      <point x="129" y="1187" type="line"/>
      <point x="133" y="1212"/>
      <point x="181" y="1269"/>
      <point x="253" y="1317"/>
      <point x="344" y="1349"/>
      <point x="392" y="1349" type="qcurve" smooth="yes"/>
      <point x="438" y="1349"/>
      <point x="505" y="1325"/>
      <point x="548" y="1286"/>
      <point x="568" y="1236"/>
    </contour>
  </outline>
</glyph>
<glyph name="periodcentered" format="1">
  <advance width="410"/>
  <unicode hex="00B7"/>
  <outline>
    <contour>
      <point x="336" y="678" type="qcurve" smooth="yes"/>
      <point x="336" y="648"/>
      <point x="315" y="584"/>
      <point x="277" y="532"/>
      <point x="223" y="498"/>
      <point x="189" y="498" type="qcurve" smooth="yes"/>
      <point x="149" y="498"/>
      <point x="105" y="551"/>
      <point x="105" y="596" type="qcurve" smooth="yes"/>
      <point x="105" y="624"/>
      <point x="128" y="687"/>
      <point x="168" y="738"/>
      <point x="222" y="772"/>
      <point x="254" y="772" type="qcurve" smooth="yes"/>
      <point x="292" y="772"/>
      <point x="336" y="720"/>
    </contour>
  </outline>
</glyph>
<glyph name="cedilla" format="1">
  <advance width="324"/>
  <unicode hex="00B8"/>
  <outline>
    <contour>
      <point x="220" y="-221" type="qcurve" smooth="yes"/>
      <point x="220" y="-274"/>
      <point x="158" y="-362"/>
      <point x="59" y="-411"/>
      <point x="-64" y="-410"/>
      <point x="-124" y="-375" type="qcurve"/>
      <point x="-126" y="-336" type="line"/>
      <point x="-74" y="-360"/>
      <point x="8" y="-363"/>
      <point x="64" y="-338"/>
      <point x="93" y="-292"/>
      <point x="93" y="-268" type="qcurve" smooth="yes"/>
      <point x="93" y="-242"/>
      <point x="47" y="-213"/>
      <point x="0" y="-215" type="qcurve"/>
      <point x="14" y="-178"/>
      <point x="33" y="-121"/>
      <point x="47" y="-71"/>
      <point x="58" y="-24"/>
      <point x="64" y="4" type="qcurve"/>
      <point x="132" y="2" type="line"/>
      <point x="124" y="-39"/>
      <point x="112" y="-88"/>
      <point x="105" y="-113" type="qcurve"/>
      <point x="156" y="-115"/>
      <point x="220" y="-172"/>
    </contour>
  </outline>
</glyph>
<glyph name="onesuperior" format="1">
  <advance width="576"/>
  <unicode hex="00B9"/>
  <outline>
    <contour>
      <point x="511" y="608" type="line"/>
      <point x="89" y="608" type="line"/>
      <point x="96" y="650" type="line"/>
      <point x="146" y="656"/>
      <point x="211" y="669"/>
      <point x="248" y="683"/>
      <point x="264" y="698"/>
      <point x="265" y="704" type="qcurve" smooth="yes"/>
      <point x="338" y="1162" type="line" smooth="yes"/>
      <point x="342" y="1186"/>
      <point x="343" y="1213"/>
      <point x="336" y="1221" type="qcurve" smooth="yes"/>
      <point x="333" y="1225"/>
      <point x="315" y="1229"/>
      <point x="279" y="1228"/>
      <point x="222" y="1221"/>
      <point x="180" y="1212" type="qcurve"/>
      <point x="172" y="1253" type="line"/>
      <point x="199" y="1260"/>
      <point x="279" y="1286"/>
      <point x="362" y="1315"/>
      <point x="437" y="1344"/>
      <point x="460" y="1355" type="qcurve"/>
      <point x="479" y="1334" type="line"/>
      <point x="380" y="704" type="line" smooth="yes"/>
      <point x="379" y="698"/>
      <point x="387" y="684"/>
      <point x="416" y="669"/>
      <point x="472" y="656"/>
      <point x="519" y="650" type="qcurve"/>
    </contour>
  </outline>
</glyph>
<glyph name="ordmasculine" format="1">
  <advance width="508"/>
  <unicode hex="00BA"/>
  <outline>
    <contour>
      <point x="469" y="635" type="line"/>
      <point x="464" y="619"/>
      <point x="451" y="600"/>
      <point x="446" y="586" type="qcurve"/>
      <point x="76" y="586" type="line"/>
      <point x="59" y="606" type="line"/>
      <point x="64" y="622"/>
      <point x="76" y="644"/>
      <point x="82" y="659" type="qcurve"/>
      <point x="451" y="659" type="line"/>
      <point x="469" y="635" type="line"/>
    </contour>
    <contour>
      <point x="440" y="1006" type="qcurve" smooth="yes"/>
      <point x="440" y="1087"/>
      <point x="380" y="1176"/>
      <point x="326" y="1176" type="qcurve" smooth="yes"/>
      <point x="287" y="1176"/>
      <point x="233" y="1131"/>
      <point x="200" y="1062"/>
      <point x="186" y="982"/>
      <point x="186" y="948" type="qcurve" smooth="yes"/>
      <point x="186" y="913"/>
      <point x="204" y="849"/>
      <point x="236" y="801"/>
      <point x="279" y="772"/>
      <point x="303" y="772" type="qcurve" smooth="yes"/>
      <point x="340" y="772"/>
      <point x="393" y="820"/>
      <point x="425" y="892"/>
      <point x="440" y="973"/>
    </contour>
    <contour>
      <point x="518" y="1034" type="qcurve" smooth="yes"/>
      <point x="518" y="998"/>
      <point x="502" y="924"/>
      <point x="471" y="855"/>
      <point x="425" y="793"/>
      <point x="395" y="768" type="qcurve" smooth="yes"/>
      <point x="366" y="745"/>
      <point x="300" y="713"/>
      <point x="268" y="713" type="qcurve" smooth="yes"/>
      <point x="230" y="713"/>
      <point x="172" y="744"/>
      <point x="132" y="800"/>
      <point x="111" y="875"/>
      <point x="111" y="920" type="qcurve" smooth="yes"/>
      <point x="111" y="996"/>
      <point x="165" y="1130"/>
      <point x="236" y="1186" type="qcurve" smooth="yes"/>
      <point x="263" y="1207"/>
      <point x="330" y="1237"/>
      <point x="362" y="1237" type="qcurve" smooth="yes"/>
      <point x="405" y="1237"/>
      <point x="465" y="1207"/>
      <point x="502" y="1153"/>
      <point x="518" y="1079"/>
    </contour>
  </outline>
</glyph>
<glyph name="guillemotright" format="1">
  <advance width="882"/>
  <unicode hex="00BB"/>
  <outline>
    <contour>
      <point x="94" y="7" type="line"/>
      <point x="60" y="36" type="line"/>
      <point x="321" y="450" type="line" smooth="yes"/>
      <point x="322" y="449"/>
      <point x="300" y="510"/>
      <point x="267" y="601"/>
      <point x="228" y="708"/>
      <point x="194" y="799"/>
      <point x="172" y="860"/>
      <point x="172" y="860" type="qcurve"/>
      <point x="214" y="889" type="line"/>
      <point x="478" y="485" type="line" smooth="yes"/>
      <point x="478" y="484"/>
      <point x="476" y="461"/>
      <point x="473" y="435"/>
      <point x="470" y="414"/>
      <point x="470" y="414" type="qcurve"/>
    </contour>
    <contour>
      <point x="422" y="7" type="line"/>
      <point x="388" y="36" type="line"/>
      <point x="649" y="450" type="line" smooth="yes"/>
      <point x="650" y="449"/>
      <point x="628" y="510"/>
      <point x="595" y="601"/>
      <point x="556" y="708"/>
      <point x="522" y="799"/>
      <point x="500" y="860"/>
      <point x="500" y="860" type="qcurve"/>
      <point x="542" y="889" type="line"/>
      <point x="806" y="485" type="line" smooth="yes"/>
      <point x="806" y="484"/>
      <point x="804" y="461"/>
      <point x="801" y="435"/>
      <point x="798" y="414"/>
      <point x="798" y="414" type="qcurve"/>
    </contour>
  </outline>
</glyph>
<glyph name="onequarter" format="1">
  <advance width="1110"/>
  <unicode hex="00BC"/>
  <outline>
    <contour>
      <point x="881" y="491" type="line"/>
      <point x="664" y="226" type="line"/>
      <point x="845" y="226" type="line"/>
    </contour>
    <contour>
      <point x="133" y="637" type="line"/>
      <point x="138" y="671" type="line"/>
      <point x="178" y="675"/>
      <point x="230" y="686"/>
      <point x="260" y="697"/>
      <point x="272" y="709"/>
      <point x="272" y="714" type="qcurve" smooth="yes"/>
      <point x="322" y="1080" type="line" smooth="yes"/>
      <point x="325" y="1100"/>
      <point x="325" y="1110" type="qcurve" smooth="yes"/>
      <point x="325" y="1121"/>
      <point x="319" y="1127" type="qcurve" smooth="yes"/>
      <point x="317" y="1130"/>
      <point x="303" y="1134"/>
      <point x="274" y="1133"/>
      <point x="229" y="1127"/>
      <point x="195" y="1120" type="qcurve"/>
      <point x="188" y="1153" type="line"/>
      <point x="210" y="1159"/>
      <point x="273" y="1179"/>
      <point x="338" y="1202"/>
      <point x="397" y="1226"/>
      <point x="415" y="1235" type="qcurve"/>
      <point x="431" y="1218" type="line"/>
      <point x="362" y="714" type="line" smooth="yes"/>
      <point x="362" y="709"/>
      <point x="369" y="698"/>
      <point x="393" y="686"/>
      <point x="438" y="675"/>
      <point x="476" y="671" type="qcurve"/>
      <point x="471" y="637" type="line"/>
    </contour>
    <contour>
      <point x="996" y="210" type="line"/>
      <point x="983" y="195"/>
      <point x="962" y="172"/>
      <point x="949" y="164" type="qcurve"/>
      <point x="922" y="164" type="line"/>
      <point x="907" y="58" type="line" smooth="yes"/>
      <point x="907" y="54"/>
      <point x="910" y="48"/>
      <point x="922" y="41"/>
      <point x="946" y="33"/>
      <point x="966" y="29" type="qcurve"/>
      <point x="963" y="0" type="line"/>
      <point x="716" y="0" type="line"/>
      <point x="719" y="29" type="line"/>
      <point x="752" y="34"/>
      <point x="793" y="43"/>
      <point x="815" y="51"/>
      <point x="823" y="59"/>
      <point x="823" y="63" type="qcurve" smooth="yes"/>
      <point x="837" y="164" type="line"/>
      <point x="587" y="164" type="line"/>
      <point x="572" y="180" type="line"/>
      <point x="876" y="563" type="line"/>
      <point x="899" y="572"/>
      <point x="946" y="590"/>
      <point x="963" y="598" type="qcurve"/>
      <point x="978" y="581" type="line"/>
      <point x="930" y="226" type="line"/>
      <point x="984" y="226" type="line"/>
      <point x="996" y="210" type="line"/>
    </contour>
    <contour>
      <point x="244" y="3" type="line"/>
      <point x="221" y="-8"/>
      <point x="182" y="-23"/>
      <point x="156" y="-30" type="qcurve"/>
      <point x="138" y="0" type="line"/>
      <point x="987" y="1203" type="line"/>
      <point x="1005" y="1211"/>
      <point x="1051" y="1230"/>
      <point x="1071" y="1235" type="qcurve"/>
      <point x="1090" y="1207" type="line"/>
    </contour>
  </outline>
</glyph>
<glyph name="multiply" format="1">
  <advance width="780"/>
  <unicode hex="00D7"/>
  <outline>
    <contour>
      <point x="87" y="314" type="line"/>
      <point x="344" y="562" type="line"/>
      <point x="157" y="808" type="line"/>
      <point x="162" y="842" type="line"/>
      <point x="180" y="851"/>
      <point x="229" y="868"/>
      <point x="249" y="873" type="qcurve"/>
      <point x="426" y="640" type="line"/>
      <point x="668" y="873" type="line"/>
      <point x="687" y="868"/>
      <point x="730" y="851"/>
      <point x="747" y="842" type="qcurve"/>
      <point x="742" y="808" type="line"/>
      <point x="486" y="561" type="line"/>
      <point x="674" y="314" type="line"/>
      <point x="669" y="280" type="line"/>
      <point x="650" y="272"/>
      <point x="600" y="254"/>
      <point x="583" y="249" type="qcurve"/>
      <point x="404" y="483" type="line"/>
      <point x="161" y="249" type="line"/>
      <point x="145" y="254"/>
      <point x="99" y="272"/>
      <point x="82" y="280" type="qcurve"/>
    </contour>
  </outline>
</glyph>
<glyph name="Oslash" format="1">
  <advance width="1116"/>
  <unicode hex="00D8"/>
  <outline>
    <contour>
      <point x="936" y="756" type="qcurve" smooth="yes"/>
      <point x="936" y="811"/>
      <point x="920" y="912"/>
      <point x="905" y="957" type="qcurve"/>
      <point x="329" y="205" type="line"/>
      <point x="364" y="155"/>
      <point x="459" y="100"/>
      <point x="516" y="100" type="qcurve" smooth="yes"/>
      <point x="593" y="100"/>
      <point x="716" y="162"/>
      <point x="809" y="265"/>
      <point x="875" y="400"/>
      <point x="917" y="546"/>
      <point x="936" y="692"/>
    </contour>
    <contour>
      <point x="242" y="532" type="qcurve" smooth="yes"/>
      <point x="242" y="404"/>
      <point x="277" y="307" type="qcurve"/>
      <point x="854" y="1061" type="line"/>
      <point x="819" y="1109"/>
      <point x="723" y="1165"/>
      <point x="662" y="1165" type="qcurve" smooth="yes"/>
      <point x="586" y="1165"/>
      <point x="465" y="1106"/>
      <point x="371" y="1008"/>
      <point x="305" y="878"/>
      <point x="262" y="738"/>
      <point x="242" y="595"/>
    </contour>
    <contour>
      <point x="1085" y="774" type="qcurve" smooth="yes"/>
      <point x="1085" y="703"/>
      <point x="1062" y="557"/>
      <point x="1015" y="415"/>
      <point x="946" y="282"/>
      <point x="901" y="225" type="qcurve" smooth="yes"/>
      <point x="859" y="171"/>
      <point x="764" y="78"/>
      <point x="657" y="9"/>
      <point x="538" y="-31"/>
      <point x="471" y="-31" type="qcurve" smooth="yes"/>
      <point x="393" y="-31"/>
      <point x="272" y="22"/>
      <point x="226" y="70" type="qcurve"/>
      <point x="170" y="-2" type="line" smooth="yes"/>
      <point x="160" y="-10"/>
      <point x="128" y="-25"/>
      <point x="92" y="-38"/>
      <point x="59" y="-49"/>
      <point x="47" y="-53" type="qcurve"/>
      <point x="27" y="-20" type="line"/>
      <point x="163" y="157" type="line"/>
      <point x="126" y="225"/>
      <point x="90" y="392"/>
      <point x="90" y="485" type="qcurve" smooth="yes"/>
      <point x="90" y="548"/>
      <point x="113" y="689"/>
      <point x="156" y="830"/>
      <point x="218" y="963"/>
      <point x="258" y="1018" type="qcurve" smooth="yes"/>
      <point x="300" y="1074"/>
      <point x="397" y="1173"/>
      <point x="508" y="1247"/>
      <point x="634" y="1290"/>
      <point x="705" y="1290" type="qcurve" smooth="yes"/>
      <point x="784" y="1290"/>
      <point x="907" y="1237"/>
      <point x="952" y="1189" type="qcurve"/>
      <point x="1010" y="1264" type="line"/>
      <point x="1038" y="1281"/>
      <point x="1103" y="1305"/>
      <point x="1130" y="1313" type="qcurve"/>
      <point x="1153" y="1280" type="line"/>
      <point x="1015" y="1100" type="line"/>
      <point x="1050" y="1032"/>
      <point x="1085" y="867"/>
    </contour>
  </outline>
</glyph>
<glyph name="germandbls" format="1">
  <advance width="999"/>
  <unicode hex="00DF"/>
  <outline>
    <contour>
      <point x="940" y="1225" type="qcurve" smooth="yes"/>
      <point x="940" y="1136"/>
      <point x="888" y="1019"/>
      <point x="809" y="940"/>
      <point x="717" y="887"/>
      <point x="638" y="836"/>
      <point x="586" y="777"/>
      <point x="586" y="731" type="qcurve" smooth="yes"/>
      <point x="586" y="695"/>
      <point x="636" y="639"/>
      <point x="711" y="587"/>
      <point x="799" y="532"/>
      <point x="874" y="463"/>
      <point x="924" y="373"/>
      <point x="924" y="311" type="qcurve" smooth="yes"/>
      <point x="924" y="249"/>
      <point x="877" y="124"/>
      <point x="788" y="23"/>
      <point x="657" y="-41"/>
      <point x="573" y="-41" type="qcurve" smooth="yes"/>
      <point x="531" y="-41"/>
      <point x="448" y="-12"/>
      <point x="383" y="31"/>
      <point x="342" y="82"/>
      <point x="342" y="104" type="qcurve" smooth="yes"/>
      <point x="342" y="114"/>
      <point x="365" y="154"/>
      <point x="397" y="193"/>
      <point x="431" y="223"/>
      <point x="442" y="223" type="qcurve" smooth="yes"/>
      <point x="448" y="223"/>
      <point x="461" y="198"/>
      <point x="479" y="162"/>
      <point x="504" y="118"/>
      <point x="539" y="82"/>
      <point x="588" y="57"/>
      <point x="621" y="57" type="qcurve" smooth="yes"/>
      <point x="701" y="57"/>
      <point x="788" y="148"/>
      <point x="788" y="233" type="qcurve" smooth="yes"/>
      <point x="788" y="294"/>
      <point x="739" y="376"/>
      <point x="665" y="437"/>
      <point x="578" y="487"/>
      <point x="504" y="543"/>
      <point x="455" y="615"/>
      <point x="455" y="668" type="qcurve" smooth="yes"/>
      <point x="455" y="727"/>
      <point x="485" y="809"/>
      <point x="533" y="868"/>
      <point x="595" y="910"/>
      <point x="659" y="947"/>
      <point x="721" y="985"/>
      <point x="769" y="1035"/>
      <point x="799" y="1103"/>
      <point x="799" y="1153" type="qcurve" smooth="yes"/>
      <point x="799" y="1198"/>
      <point x="777" y="1285"/>
      <point x="730" y="1354"/>
      <point x="656" y="1397"/>
      <point x="604" y="1397" type="qcurve" smooth="yes"/>
      <point x="548" y="1397"/>
      <point x="457" y="1320"/>
      <point x="388" y="1195"/>
      <point x="343" y="1035"/>
      <point x="334" y="952" type="qcurve" smooth="yes"/>
      <point x="246" y="193" type="line" smooth="yes"/>
      <point x="233" y="82"/>
      <point x="170" y="-123"/>
      <point x="75" y="-300"/>
      <point x="-49" y="-440"/>
      <point x="-123" y="-485" type="qcurve"/>
      <point x="-150" y="-422" type="line"/>
      <point x="-100" y="-394"/>
      <point x="-18" y="-274"/>
      <point x="43" y="-118"/>
      <point x="83" y="57"/>
      <point x="92" y="139" type="qcurve" smooth="yes"/>
      <point x="180" y="899" type="line" smooth="yes"/>
      <point x="190" y="981"/>
      <point x="230" y="1131"/>
      <point x="296" y="1264"/>
      <point x="389" y="1378"/>
      <point x="453" y="1425" type="qcurve" smooth="yes"/>
      <point x="480" y="1447"/>
      <point x="537" y="1481"/>
      <point x="594" y="1505"/>
      <point x="647" y="1518"/>
      <point x="670" y="1518" type="qcurve" smooth="yes"/>
      <point x="734" y="1518"/>
      <point x="835" y="1466"/>
      <point x="904" y="1382"/>
      <point x="940" y="1277"/>
    </contour>
  </outline>
</glyph>
<glyph name="kgreenlandic" format="1">
  <advance width="899"/>
  <unicode hex="0138"/>
  <outline>
    <contour>
      <point x="358" y="833" type="qcurve" smooth="yes"/>
      <point x="358" y="768"/>
      <point x="330" y="586"/>
      <point x="313" y="487" type="qcurve"/>
      <point x="528" y="650" type="line" smooth="yes"/>
      <point x="597" y="702"/>
      <point x="685" y="782"/>
      <point x="710" y="835"/>
      <point x="663" y="860"/>
      <point x="596" y="858" type="qcurve"/>
      <point x="592" y="897" type="line"/>
      <point x="651" y="905"/>
      <point x="760" y="930"/>
      <point x="823" y="930" type="qcurve" smooth="yes"/>
      <point x="871" y="930"/>
      <point x="899" y="902"/>
      <point x="899" y="868" type="qcurve" smooth="yes"/>
      <point x="899" y="853"/>
      <point x="861" y="798"/>
      <point x="783" y="723"/>
      <point x="663" y="631"/>
      <point x="580" y="579" type="qcurve" smooth="yes"/>
      <point x="462" y="505" type="line"/>
      <point x="489" y="475"/>
      <point x="542" y="387"/>
      <point x="595" y="292"/>
      <point x="646" y="198"/>
      <point x="694" y="123"/>
      <point x="738" y="76"/>
      <point x="758" y="76" type="qcurve" smooth="yes"/>
      <point x="781" y="76"/>
      <point x="834" y="81"/>
      <point x="872" y="102" type="qcurve"/>
      <point x="889" y="68" type="line"/>
      <point x="823" y="12"/>
      <point x="724" y="-39"/>
      <point x="686" y="-39" type="qcurve" smooth="yes"/>
      <point x="650" y="-39"/>
      <point x="582" y="26"/>
      <point x="516" y="128"/>
      <point x="455" y="251"/>
      <point x="395" y="366"/>
      <point x="339" y="460"/>
      <point x="312" y="481" type="qcurve"/>
      <point x="300" y="412"/>
      <point x="277" y="275"/>
      <point x="263" y="154"/>
      <point x="261" y="57"/>
      <point x="270" y="27" type="qcurve"/>
      <point x="256" y="20"/>
      <point x="215" y="2"/>
      <point x="173" y="-17"/>
      <point x="133" y="-34"/>
      <point x="121" y="-41" type="qcurve"/>
      <point x="86" y="-10" type="line"/>
      <point x="91" y="29"/>
      <point x="112" y="152"/>
      <point x="137" y="297"/>
      <point x="163" y="454"/>
      <point x="185" y="599"/>
      <point x="199" y="721"/>
      <point x="199" y="759" type="qcurve" smooth="yes"/>
      <point x="199" y="784"/>
      <point x="193" y="812"/>
      <point x="181" y="826"/>
      <point x="163" y="829"/>
      <point x="151" y="829" type="qcurve" smooth="yes"/>
      <point x="143" y="829"/>
      <point x="107" y="821"/>
      <point x="71" y="810"/>
      <point x="43" y="802"/>
      <point x="43" y="802" type="qcurve"/>
      <point x="29" y="841" type="line"/>
      <point x="71" y="860"/>
      <point x="157" y="894"/>
      <point x="231" y="920"/>
      <point x="287" y="936"/>
      <point x="299" y="936" type="qcurve" smooth="yes"/>
      <point x="313" y="936"/>
      <point x="335" y="930"/>
      <point x="350" y="909"/>
      <point x="358" y="868"/>
    </contour>
  </outline>
</glyph>
<glyph name="lslash" format="1">
  <advance width="481"/>
  <unicode hex="0142"/>
  <outline>
    <contour>
      <point x="436" y="72" type="line"/>
      <point x="387" y="41"/>
      <point x="312" y="-2"/>
      <point x="251" y="-29"/>
      <point x="199" y="-41"/>
      <point x="174" y="-41" type="qcurve" smooth="yes"/>
      <point x="146" y="-41"/>
      <point x="102" y="19"/>
      <point x="102" y="78" type="qcurve" smooth="yes"/>
      <point x="102" y="101"/>
      <point x="115" y="207"/>
      <point x="136" y="355"/>
      <point x="163" y="534"/>
      <point x="178" y="629" type="qcurve"/>
      <point x="61" y="545" type="line"/>
      <point x="43" y="565" type="line"/>
      <point x="46" y="578"/>
      <point x="49" y="595"/>
      <point x="54" y="614"/>
      <point x="64" y="640"/>
      <point x="74" y="662" type="qcurve"/>
      <point x="197" y="750" type="line"/>
      <point x="212" y="847"/>
      <point x="240" y="1033"/>
      <point x="261" y="1192"/>
      <point x="274" y="1313"/>
      <point x="274" y="1346" type="qcurve" smooth="yes"/>
      <point x="274" y="1369"/>
      <point x="265" y="1396"/>
      <point x="251" y="1409"/>
      <point x="232" y="1413"/>
      <point x="223" y="1413" type="qcurve" smooth="yes"/>
      <point x="215" y="1413"/>
      <point x="180" y="1405"/>
      <point x="145" y="1394"/>
      <point x="119" y="1386"/>
      <point x="119" y="1386" type="qcurve"/>
      <point x="104" y="1425" type="line"/>
      <point x="146" y="1444"/>
      <point x="231" y="1478"/>
      <point x="304" y="1504"/>
      <point x="360" y="1520"/>
      <point x="373" y="1520" type="qcurve" smooth="yes"/>
      <point x="401" y="1520"/>
      <point x="434" y="1484"/>
      <point x="434" y="1438" type="qcurve" smooth="yes"/>
      <point x="434" y="1403"/>
      <point x="422" y="1286"/>
      <point x="402" y="1135"/>
      <point x="375" y="960"/>
      <point x="361" y="868" type="qcurve"/>
      <point x="483" y="956" type="line"/>
      <point x="506" y="934" type="line"/>
      <point x="501" y="917"/>
      <point x="496" y="897"/>
      <point x="490" y="879"/>
      <point x="482" y="859"/>
      <point x="473" y="842" type="qcurve"/>
      <point x="342" y="747" type="line"/>
      <point x="326" y="647"/>
      <point x="297" y="456"/>
      <point x="274" y="292"/>
      <point x="260" y="168"/>
      <point x="260" y="135" type="qcurve" smooth="yes"/>
      <point x="260" y="101"/>
      <point x="279" y="76"/>
      <point x="295" y="76" type="qcurve" smooth="yes"/>
      <point x="318" y="76"/>
      <point x="379" y="92"/>
      <point x="424" y="109" type="qcurve"/>
      <point x="436" y="72" type="line"/>
    </contour>
  </outline>
</glyph>
<glyph name="eng" format="1">
  <advance width="989"/>
  <unicode hex="014B"/>
  <outline>
    <contour>
      <point x="881" y="762" type="qcurve" smooth="yes"/>
      <point x="881" y="739"/>
      <point x="873" y="651"/>
      <point x="858" y="536"/>
      <point x="838" y="400"/>
      <point x="815" y="256"/>
      <point x="789" y="111"/>
      <point x="776" y="44" type="qcurve" smooth="yes"/>
      <point x="757" y="-54"/>
      <point x="705" y="-196"/>
      <point x="640" y="-304"/>
      <point x="561" y="-387"/>
      <point x="516" y="-425" type="qcurve" smooth="yes"/>
      <point x="489" y="-448"/>
      <point x="425" y="-477"/>
      <point x="363" y="-494"/>
      <point x="309" y="-501"/>
      <point x="291" y="-501" type="qcurve" smooth="yes"/>
      <point x="263" y="-501"/>
      <point x="188" y="-478"/>
      <point x="119" y="-448"/>
      <point x="71" y="-416"/>
      <point x="71" y="-407" type="qcurve" smooth="yes"/>
      <point x="71" y="-394"/>
      <point x="97" y="-352"/>
      <point x="132" y="-313"/>
      <point x="169" y="-284"/>
      <point x="180" y="-284" type="qcurve" smooth="yes"/>
      <point x="189" y="-284"/>
      <point x="224" y="-316"/>
      <point x="274" y="-354"/>
      <point x="338" y="-386"/>
      <point x="375" y="-386" type="qcurve" smooth="yes"/>
      <point x="426" y="-386"/>
      <point x="501" y="-344"/>
      <point x="558" y="-253"/>
      <point x="601" y="-111"/>
      <point x="620" y="-11" type="qcurve" smooth="yes"/>
      <point x="645" y="114"/>
      <point x="684" y="346"/>
      <point x="712" y="536"/>
      <point x="727" y="671"/>
      <point x="727" y="700" type="qcurve" smooth="yes"/>
      <point x="727" y="776"/>
      <point x="695" y="836"/>
      <point x="651" y="836" type="qcurve" smooth="yes"/>
      <point x="638" y="836"/>
      <point x="573" y="804"/>
      <point x="491" y="740"/>
      <point x="402" y="644"/>
      <point x="365" y="580" type="qcurve" smooth="yes"/>
      <point x="337" y="532"/>
      <point x="302" y="398"/>
      <point x="285" y="301" type="qcurve" smooth="yes"/>
      <point x="269" y="212"/>
      <point x="260" y="84"/>
      <point x="262" y="25" type="qcurve"/>
      <point x="249" y="18"/>
      <point x="210" y="1"/>
      <point x="169" y="-17"/>
      <point x="131" y="-34"/>
      <point x="119" y="-41" type="qcurve"/>
      <point x="86" y="-10" type="line"/>
      <point x="100" y="56"/>
      <point x="127" y="210"/>
      <point x="152" y="365"/>
      <point x="174" y="516"/>
      <point x="190" y="643"/>
      <point x="199" y="738"/>
      <point x="199" y="762" type="qcurve" smooth="yes"/>
      <point x="199" y="785"/>
      <point x="194" y="812"/>
      <point x="185" y="825"/>
      <point x="171" y="829"/>
      <point x="162" y="829" type="qcurve" smooth="yes"/>
      <point x="153" y="829"/>
      <point x="118" y="821"/>
      <point x="82" y="811"/>
      <point x="55" y="803"/>
      <point x="55" y="803" type="qcurve"/>
      <point x="41" y="842" type="line"/>
      <point x="83" y="860"/>
      <point x="168" y="894"/>
      <point x="242" y="920"/>
      <point x="297" y="936"/>
      <point x="309" y="936" type="qcurve" smooth="yes"/>
      <point x="323" y="936"/>
      <point x="339" y="927"/>
      <point x="346" y="903"/>
      <point x="348" y="859"/>
      <point x="348" y="823" type="qcurve" smooth="yes"/>
      <point x="348" y="812"/>
      <point x="346" y="774"/>
      <point x="343" y="731"/>
      <point x="339" y="690"/>
      <point x="338" y="678" type="qcurve"/>
      <point x="392" y="746"/>
      <point x="502" y="844"/>
      <point x="608" y="907"/>
      <point x="707" y="936"/>
      <point x="752" y="936" type="qcurve" smooth="yes"/>
      <point x="783" y="936"/>
      <point x="832" y="918"/>
      <point x="864" y="877"/>
      <point x="881" y="810"/>
    </contour>
  </outline>
</glyph>
<glyph name="OE" format="1">
  <advance width="1489"/>
  <unicode hex="0152"/>
  <outline>
    <contour>
      <point x="510" y="100" type="qcurve" smooth="yes"/>
      <point x="583" y="100"/>
      <point x="694" y="127"/>
      <point x="745" y="163" type="qcurve"/>
      <point x="871" y="1081" type="line"/>
      <point x="785" y="1165"/>
      <point x="657" y="1165" type="qcurve" smooth="yes"/>
      <point x="581" y="1165"/>
      <point x="459" y="1105"/>
      <point x="366" y="1005"/>
      <point x="299" y="873"/>
      <point x="256" y="731"/>
      <point x="236" y="587"/>
      <point x="236" y="524" type="qcurve" smooth="yes"/>
      <point x="236" y="429"/>
      <point x="276" y="273"/>
      <point x="348" y="162"/>
      <point x="449" y="100"/>
    </contour>
    <contour>
      <point x="1403" y="244" type="line"/>
      <point x="1384" y="158"/>
      <point x="1344" y="29"/>
      <point x="1333" y="0" type="qcurve"/>
      <point x="745" y="0" type="line" smooth="yes"/>
      <point x="697" y="-1"/>
      <point x="628" y="-11"/>
      <point x="567" y="-22"/>
      <point x="506" y="-31"/>
      <point x="467" y="-31" type="qcurve" smooth="yes"/>
      <point x="375" y="-31"/>
      <point x="234" y="47"/>
      <point x="139" y="182"/>
      <point x="90" y="363"/>
      <point x="90" y="465" type="qcurve" smooth="yes"/>
      <point x="90" y="525"/>
      <point x="107" y="657"/>
      <point x="143" y="791"/>
      <point x="198" y="922"/>
      <point x="236" y="981" type="qcurve" smooth="yes"/>
      <point x="275" y="1042"/>
      <point x="372" y="1154"/>
      <point x="488" y="1240"/>
      <point x="622" y="1290"/>
      <point x="698" y="1290" type="qcurve" smooth="yes"/>
      <point x="735" y="1290"/>
      <point x="787" y="1281"/>
      <point x="835" y="1270"/>
      <point x="887" y="1261"/>
      <point x="922" y="1260" type="qcurve" smooth="yes"/>
      <point x="1454" y="1260" type="line"/>
      <point x="1479" y="1235" type="line"/>
      <point x="1474" y="1209"/>
      <point x="1459" y="1147"/>
      <point x="1441" y="1085"/>
      <point x="1422" y="1029"/>
      <point x="1413" y="1010" type="qcurve"/>
      <point x="1370" y="1010" type="line"/>
      <point x="1374" y="1056"/>
      <point x="1373" y="1117"/>
      <point x="1360" y="1154"/>
      <point x="1337" y="1169"/>
      <point x="1319" y="1169" type="qcurve" smooth="yes"/>
      <point x="1027" y="1169" type="line"/>
      <point x="967" y="735" type="line"/>
      <point x="1294" y="735" type="line"/>
      <point x="1315" y="707" type="line"/>
      <point x="1305" y="693"/>
      <point x="1280" y="662"/>
      <point x="1253" y="633"/>
      <point x="1227" y="608"/>
      <point x="1217" y="600" type="qcurve"/>
      <point x="1205" y="615"/>
      <point x="1178" y="635"/>
      <point x="1139" y="649"/>
      <point x="1085" y="655"/>
      <point x="1047" y="655" type="qcurve" smooth="yes"/>
      <point x="956" y="655" type="line"/>
      <point x="887" y="154" type="line" smooth="yes"/>
      <point x="885" y="139"/>
      <point x="884" y="116"/>
      <point x="908" y="99"/>
      <point x="968" y="90"/>
      <point x="1028" y="90" type="qcurve" smooth="yes"/>
      <point x="1143" y="90" type="line" smooth="yes"/>
      <point x="1184" y="90"/>
      <point x="1243" y="100"/>
      <point x="1293" y="135"/>
      <point x="1338" y="203"/>
      <point x="1366" y="262" type="qcurve"/>
      <point x="1403" y="244" type="line"/>
    </contour>
  </outline>
</glyph>
<glyph name="oe" format="1">
  <advance width="1374"/>
  <unicode hex="0153"/>
  <outline>
    <contour>
      <point x="777" y="426" type="qcurve" smooth="yes"/>
      <point x="776" y="421"/>
      <point x="775" y="409"/>
      <point x="775" y="403" type="qcurve"/>
      <point x="863" y="437"/>
      <point x="988" y="497"/>
      <point x="1073" y="550"/>
      <point x="1124" y="599"/>
      <point x="1151" y="646"/>
      <point x="1159" y="691"/>
      <point x="1159" y="715" type="qcurve" smooth="yes"/>
      <point x="1159" y="746"/>
      <point x="1143" y="791"/>
      <point x="1118" y="818"/>
      <point x="1085" y="831"/>
      <point x="1067" y="831" type="qcurve" smooth="yes"/>
      <point x="1053" y="831"/>
      <point x="990" y="808"/>
      <point x="961" y="782" type="qcurve" smooth="yes"/>
      <point x="932" y="756"/>
      <point x="877" y="686"/>
      <point x="830" y="602"/>
      <point x="794" y="510"/>
      <point x="784" y="464" type="qcurve" smooth="yes"/>
      <point x="782" y="455"/>
      <point x="779" y="436"/>
    </contour>
    <contour>
      <point x="647" y="504" type="qcurve" smooth="yes"/>
      <point x="647" y="657"/>
      <point x="539" y="819"/>
      <point x="442" y="819" type="qcurve" smooth="yes"/>
      <point x="400" y="819"/>
      <point x="331" y="780"/>
      <point x="277" y="715"/>
      <point x="236" y="630"/>
      <point x="210" y="537"/>
      <point x="197" y="441"/>
      <point x="197" y="399" type="qcurve" smooth="yes"/>
      <point x="197" y="332"/>
      <point x="229" y="213"/>
      <point x="285" y="124"/>
      <point x="360" y="72"/>
      <point x="403" y="72" type="qcurve" smooth="yes"/>
      <point x="444" y="72"/>
      <point x="512" y="113"/>
      <point x="566" y="182"/>
      <point x="607" y="271"/>
      <point x="634" y="367"/>
      <point x="647" y="463"/>
    </contour>
    <contour>
      <point x="1321" y="760" type="qcurve" smooth="yes"/>
      <point x="1321" y="732"/>
      <point x="1308" y="670"/>
      <point x="1267" y="604"/>
      <point x="1193" y="532"/>
      <point x="1072" y="455"/>
      <point x="897" y="372"/>
      <point x="776" y="327" type="qcurve"/>
      <point x="782" y="271"/>
      <point x="817" y="179"/>
      <point x="864" y="113"/>
      <point x="919" y="76"/>
      <point x="946" y="76" type="qcurve" smooth="yes"/>
      <point x="968" y="76"/>
      <point x="1028" y="85"/>
      <point x="1107" y="115"/>
      <point x="1206" y="173"/>
      <point x="1268" y="221" type="qcurve"/>
      <point x="1277" y="215"/>
      <point x="1293" y="188"/>
      <point x="1296" y="180" type="qcurve"/>
      <point x="1214" y="109"/>
      <point x="1089" y="22"/>
      <point x="991" y="-25"/>
      <point x="913" y="-41"/>
      <point x="877" y="-41" type="qcurve" smooth="yes"/>
      <point x="850" y="-41"/>
      <point x="787" y="-19"/>
      <point x="725" y="28"/>
      <point x="671" y="103"/>
      <point x="654" y="157" type="qcurve"/>
      <point x="634" y="132"/>
      <point x="591" y="85"/>
      <point x="567" y="63" type="qcurve" smooth="yes"/>
      <point x="542" y="41"/>
      <point x="485" y="3"/>
      <point x="425" y="-25"/>
      <point x="366" y="-41"/>
      <point x="338" y="-41" type="qcurve" smooth="yes"/>
      <point x="273" y="-41"/>
      <point x="167" y="18"/>
      <point x="93" y="121"/>
      <point x="53" y="262"/>
      <point x="53" y="344" type="qcurve" smooth="yes"/>
      <point x="53" y="416"/>
      <point x="78" y="549"/>
      <point x="133" y="672"/>
      <point x="221" y="787"/>
      <point x="283" y="840" type="qcurve" smooth="yes"/>
      <point x="332" y="881"/>
      <point x="455" y="936"/>
      <point x="512" y="936" type="qcurve" smooth="yes"/>
      <point x="563" y="936"/>
      <point x="647" y="904"/>
      <point x="713" y="844"/>
      <point x="760" y="760"/>
      <point x="773" y="708" type="qcurve"/>
      <point x="802" y="746"/>
      <point x="871" y="815"/>
      <point x="911" y="846" type="qcurve" smooth="yes"/>
      <point x="934" y="864"/>
      <point x="992" y="897"/>
      <point x="1055" y="922"/>
      <point x="1120" y="936"/>
      <point x="1151" y="936" type="qcurve" smooth="yes"/>
      <point x="1194" y="936"/>
      <point x="1258" y="905"/>
      <point x="1300" y="855"/>
      <point x="1321" y="792"/>
    </contour>
  </outline>
</glyph>
<glyph name="Tbar" format="1">
  <advance width="1067"/>
  <unicode hex="0166"/>
  <outline>
    <contour>
      <point x="869" y="615" type="line"/>
      <point x="617" y="615" type="line"/>
      <point x="549" y="115" type="line" smooth="yes"/>
      <point x="547" y="102"/>
      <point x="609" y="62"/>
      <point x="690" y="43" type="qcurve"/>
      <point x="684" y="0" type="line"/>
      <point x="238" y="0" type="line"/>
      <point x="244" y="43" type="line"/>
      <point x="330" y="62"/>
      <point x="401" y="101"/>
      <point x="403" y="115" type="qcurve" smooth="yes"/>
      <point x="472" y="615" type="line"/>
      <point x="222" y="615" type="line"/>
      <point x="206" y="640" type="line"/>
      <point x="212" y="655"/>
      <point x="226" y="689"/>
      <point x="234" y="705" type="qcurve"/>
      <point x="485" y="705" type="line"/>
      <point x="550" y="1169" type="line"/>
      <point x="279" y="1169" type="line" smooth="yes"/>
      <point x="266" y="1169"/>
      <point x="243" y="1158"/>
      <point x="215" y="1122"/>
      <point x="177" y="1053"/>
      <point x="150" y="995" type="qcurve"/>
      <point x="113" y="1014" type="line"/>
      <point x="116" y="1040"/>
      <point x="129" y="1105"/>
      <point x="146" y="1172"/>
      <point x="165" y="1235"/>
      <point x="174" y="1260" type="qcurve"/>
      <point x="1096" y="1260" type="line"/>
      <point x="1118" y="1235" type="line"/>
      <point x="1114" y="1211"/>
      <point x="1102" y="1150"/>
      <point x="1086" y="1086"/>
      <point x="1069" y="1024"/>
      <point x="1061" y="999" type="qcurve"/>
      <point x="1020" y="999" type="line"/>
      <point x="1018" y="1049"/>
      <point x="1010" y="1115"/>
      <point x="995" y="1154"/>
      <point x="970" y="1169"/>
      <point x="950" y="1169" type="qcurve" smooth="yes"/>
      <point x="693" y="1169" type="line"/>
      <point x="630" y="705" type="line"/>
      <point x="879" y="705" type="line"/>
      <point x="898" y="682" type="line"/>
    </contour>
  </outline>
</glyph>
<glyph name="tbar" format="1">
  <advance width="629"/>
  <unicode hex="0167"/>
  <outline>
    <contour>
      <point x="580" y="117" type="line"/>
      <point x="531" y="79"/>
      <point x="433" y="20"/>
      <point x="345" y="-20"/>
      <point x="274" y="-41"/>
      <point x="252" y="-41" type="qcurve" smooth="yes"/>
      <point x="227" y="-41"/>
      <point x="182" y="-11"/>
      <point x="147" y="42"/>
      <point x="127" y="116"/>
      <point x="127" y="160" type="qcurve" smooth="yes"/>
      <point x="127" y="179"/>
      <point x="129" y="217"/>
      <point x="132" y="258"/>
      <point x="137" y="304"/>
      <point x="141" y="332" type="qcurve" smooth="yes"/>
      <point x="154" y="415" type="line"/>
      <point x="17" y="415" type="line"/>
      <point x="1" y="440" type="line"/>
      <point x="6" y="455"/>
      <point x="22" y="491"/>
      <point x="30" y="505" type="qcurve"/>
      <point x="168" y="505" type="line"/>
      <point x="218" y="815" type="line"/>
      <point x="74" y="815" type="line"/>
      <point x="59" y="846" type="line"/>
      <point x="160" y="905" type="line"/>
      <point x="232" y="905" type="line"/>
      <point x="238" y="940" type="line" smooth="yes"/>
      <point x="244" y="981"/>
      <point x="257" y="1035"/>
      <point x="274" y="1071"/>
      <point x="294" y="1094"/>
      <point x="307" y="1104" type="qcurve" smooth="yes"/>
      <point x="408" y="1176" type="line"/>
      <point x="436" y="1151" type="line"/>
      <point x="436" y="1151"/>
      <point x="428" y="1139"/>
      <point x="414" y="1099"/>
      <point x="395" y="1025"/>
      <point x="385" y="963" type="qcurve" smooth="yes"/>
      <point x="376" y="905" type="line"/>
      <point x="625" y="905" type="line"/>
      <point x="645" y="877" type="line"/>
      <point x="635" y="863"/>
      <point x="600" y="830"/>
      <point x="562" y="800"/>
      <point x="527" y="775"/>
      <point x="518" y="770" type="qcurve"/>
      <point x="512" y="784"/>
      <point x="491" y="801"/>
      <point x="455" y="811"/>
      <point x="402" y="815"/>
      <point x="365" y="815" type="qcurve" smooth="yes"/>
      <point x="362" y="815" type="line"/>
      <point x="314" y="505" type="line"/>
      <point x="501" y="505" type="line"/>
      <point x="517" y="483" type="line"/>
      <point x="486" y="415" type="line"/>
      <point x="300" y="415" type="line"/>
      <point x="291" y="356" type="line" smooth="yes"/>
      <point x="288" y="337"/>
      <point x="283" y="294"/>
      <point x="280" y="255"/>
      <point x="279" y="221"/>
      <point x="279" y="211" type="qcurve" smooth="yes"/>
      <point x="279" y="149"/>
      <point x="324" y="90"/>
      <point x="352" y="90" type="qcurve" smooth="yes"/>
      <point x="387" y="90"/>
      <point x="488" y="120"/>
      <point x="563" y="154" type="qcurve"/>
      <point x="580" y="117" type="line"/>
    </contour>
  </outline>
</glyph>
<glyph name="uni0181" format="1">
  <advance width="1221"/>
  <unicode hex="0181"/>
  <outline>
    <contour>
      <point x="650" y="1206" type="line"/>
      <point x="585" y="725" type="line"/>
      <point x="617" y="725" type="line" smooth="yes"/>
      <point x="687" y="725"/>
      <point x="818" y="747"/>
      <point x="919" y="805"/>
      <point x="979" y="907"/>
      <point x="979" y="987" type="qcurve" smooth="yes"/>
      <point x="979" y="1048"/>
      <point x="945" y="1132"/>
      <point x="874" y="1184"/>
      <point x="764" y="1206"/>
      <point x="688" y="1206" type="qcurve" smooth="yes"/>
    </contour>
    <contour>
      <point x="725" y="649" type="qcurve" smooth="yes"/>
      <point x="681" y="649"/>
      <point x="607" y="640"/>
      <point x="573" y="635" type="qcurve"/>
      <point x="500" y="104" type="line" smooth="yes"/>
      <point x="497" y="96"/>
      <point x="511" y="85" type="qcurve" smooth="yes"/>
      <point x="530" y="76"/>
      <point x="576" y="63"/>
      <point x="625" y="56"/>
      <point x="673" y="53"/>
      <point x="694" y="53" type="qcurve" smooth="yes"/>
      <point x="760" y="53"/>
      <point x="867" y="108"/>
      <point x="943" y="198"/>
      <point x="985" y="314"/>
      <point x="985" y="375" type="qcurve" smooth="yes"/>
      <point x="985" y="425"/>
      <point x="956" y="523"/>
      <point x="894" y="601"/>
      <point x="795" y="649"/>
    </contour>
    <contour>
      <point x="1141" y="410" type="qcurve" smooth="yes"/>
      <point x="1141" y="312"/>
      <point x="1065" y="150"/>
      <point x="935" y="34"/>
      <point x="763" y="-31"/>
      <point x="668" y="-31" type="qcurve" smooth="yes"/>
      <point x="641" y="-31"/>
      <point x="562" y="-26"/>
      <point x="474" y="-20"/>
      <point x="387" y="-11"/>
      <point x="317" y="-5"/>
      <point x="273" y="0"/>
      <point x="273" y="0" type="qcurve"/>
      <point x="207" y="0" type="line"/>
      <point x="213" y="43" type="line"/>
      <point x="276" y="57"/>
      <point x="352" y="90"/>
      <point x="354" y="104" type="qcurve" smooth="yes"/>
      <point x="503" y="1197" type="line"/>
      <point x="498" y="1196"/>
      <point x="494" y="1196" type="qcurve" smooth="yes"/>
      <point x="490" y="1196"/>
      <point x="485" y="1195" type="qcurve" smooth="yes"/>
      <point x="481" y="1195"/>
      <point x="480" y="1194" type="qcurve" smooth="yes"/>
      <point x="478" y="1194" type="line"/>
      <point x="393" y="1178"/>
      <point x="284" y="1102"/>
      <point x="275" y="1036" type="qcurve" smooth="yes"/>
      <point x="270" y="1000"/>
      <point x="297" y="944"/>
      <point x="323" y="930" type="qcurve"/>
      <point x="320" y="924"/>
      <point x="288" y="902"/>
      <point x="245" y="880"/>
      <point x="198" y="860"/>
      <point x="179" y="856" type="qcurve"/>
      <point x="148" y="872"/>
      <point x="115" y="948"/>
      <point x="123" y="1003" type="qcurve" smooth="yes"/>
      <point x="132" y="1068"/>
      <point x="211" y="1174"/>
      <point x="356" y="1249"/>
      <point x="566" y="1290"/>
      <point x="705" y="1290" type="qcurve" smooth="yes"/>
      <point x="823" y="1290"/>
      <point x="987" y="1256"/>
      <point x="1089" y="1191"/>
      <point x="1135" y="1098"/>
      <point x="1135" y="1040" type="qcurve" smooth="yes"/>
      <point x="1135" y="988"/>
      <point x="1102" y="890"/>
      <point x="1043" y="807"/>
      <point x="962" y="742"/>
      <point x="914" y="723" type="qcurve"/>
      <point x="965" y="711"/>
      <point x="1048" y="655"/>
      <point x="1108" y="574"/>
      <point x="1141" y="470"/>
    </contour>
  </outline>
</glyph>
<glyph name="uni0182" format="1">
  <advance width="1016"/>
  <unicode hex="0182"/>
  <outline>
    <contour>
      <point x="512" y="649" type="qcurve" smooth="yes"/>
      <point x="468" y="649"/>
      <point x="394" y="641"/>
      <point x="361" y="635" type="qcurve"/>
      <point x="289" y="104" type="line" smooth="yes"/>
      <point x="287" y="96"/>
      <point x="295" y="89" type="qcurve" smooth="yes"/>
      <point x="310" y="83"/>
      <point x="348" y="76"/>
      <point x="389" y="72"/>
      <point x="430" y="70"/>
      <point x="448" y="70" type="qcurve" smooth="yes"/>
      <point x="513" y="70"/>
      <point x="623" y="107"/>
      <point x="706" y="173"/>
      <point x="758" y="266"/>
      <point x="766" y="322" type="qcurve" smooth="yes"/>
      <point x="773" y="377"/>
      <point x="755" y="493"/>
      <point x="695" y="588"/>
      <point x="590" y="649"/>
    </contour>
    <contour>
      <point x="976" y="1235" type="line"/>
      <point x="971" y="1209"/>
      <point x="951" y="1129"/>
      <point x="926" y="1042"/>
      <point x="899" y="958"/>
      <point x="889" y="930" type="qcurve"/>
      <point x="846" y="930" type="line"/>
      <point x="858" y="1057"/>
      <point x="850" y="1170"/>
      <point x="816" y="1170" type="qcurve" smooth="yes"/>
      <point x="433" y="1170" type="line"/>
      <point x="372" y="720" type="line"/>
      <point x="414" y="728"/>
      <point x="509" y="739"/>
      <point x="559" y="739" type="qcurve" smooth="yes"/>
      <point x="658" y="739"/>
      <point x="803" y="683"/>
      <point x="894" y="581"/>
      <point x="929" y="440"/>
      <point x="918" y="356" type="qcurve" smooth="yes"/>
      <point x="906" y="271"/>
      <point x="828" y="134"/>
      <point x="706" y="38"/>
      <point x="548" y="-14"/>
      <point x="457" y="-14" type="qcurve" smooth="yes"/>
      <point x="426" y="-14"/>
      <point x="326" y="-11"/>
      <point x="222" y="-7"/>
      <point x="126" y="-3"/>
      <point x="69" y="0"/>
      <point x="67" y="0" type="qcurve" smooth="yes"/>
      <point x="0" y="0" type="line"/>
      <point x="5" y="43" type="line"/>
      <point x="68" y="57"/>
      <point x="143" y="90"/>
      <point x="145" y="104" type="qcurve" smooth="yes"/>
      <point x="287" y="1155" type="line" smooth="yes"/>
      <point x="289" y="1167"/>
      <point x="228" y="1203"/>
      <point x="165" y="1217" type="qcurve"/>
      <point x="171" y="1260" type="line"/>
      <point x="952" y="1260" type="line"/>
      <point x="976" y="1235" type="line"/>
    </contour>
  </outline>
</glyph>
<glyph name="uni0183" format="1">
  <advance width="956"/>
  <unicode hex="0183"/>
  <outline>
    <contour>
      <point x="604" y="803" type="qcurve" smooth="yes"/>
      <point x="585" y="803"/>
      <point x="513" y="754"/>
      <point x="426" y="665"/>
      <point x="335" y="544"/>
      <point x="298" y="472" type="qcurve"/>
      <point x="287" y="400"/>
      <point x="276" y="287"/>
      <point x="276" y="256" type="qcurve" smooth="yes"/>
      <point x="276" y="230"/>
      <point x="307" y="170"/>
      <point x="359" y="119"/>
      <point x="424" y="86"/>
      <point x="459" y="86" type="qcurve" smooth="yes"/>
      <point x="495" y="86"/>
      <point x="557" y="112"/>
      <point x="610" y="153"/>
      <point x="652" y="204"/>
      <point x="668" y="229" type="qcurve" smooth="yes"/>
      <point x="691" y="265"/>
      <point x="719" y="343"/>
      <point x="735" y="421"/>
      <point x="741" y="496"/>
      <point x="741" y="530" type="qcurve" smooth="yes"/>
      <point x="741" y="599"/>
      <point x="716" y="702"/>
      <point x="677" y="770"/>
      <point x="628" y="803"/>
    </contour>
    <contour>
      <point x="906" y="1465" type="line"/>
      <point x="901" y="1439"/>
      <point x="881" y="1359"/>
      <point x="856" y="1272"/>
      <point x="829" y="1188"/>
      <point x="819" y="1160" type="qcurve"/>
      <point x="776" y="1160" type="line"/>
      <point x="788" y="1287"/>
      <point x="780" y="1400"/>
      <point x="746" y="1400" type="qcurve" smooth="yes"/>
      <point x="430" y="1400" type="line"/>
      <point x="426" y="1343"/>
      <point x="403" y="1166"/>
      <point x="371" y="956"/>
      <point x="336" y="731"/>
      <point x="320" y="627" type="qcurve"/>
      <point x="371" y="713"/>
      <point x="480" y="831"/>
      <point x="582" y="904"/>
      <point x="671" y="936"/>
      <point x="702" y="936" type="qcurve" smooth="yes"/>
      <point x="741" y="936"/>
      <point x="809" y="893"/>
      <point x="858" y="811"/>
      <point x="886" y="689"/>
      <point x="885" y="610" type="qcurve" smooth="yes"/>
      <point x="883" y="504"/>
      <point x="824" y="289"/>
      <point x="752" y="188" type="qcurve" smooth="yes"/>
      <point x="718" y="143"/>
      <point x="635" y="60"/>
      <point x="537" y="-3"/>
      <point x="425" y="-41"/>
      <point x="362" y="-41" type="qcurve" smooth="yes"/>
      <point x="341" y="-41"/>
      <point x="290" y="-20"/>
      <point x="237" y="18"/>
      <point x="186" y="68"/>
      <point x="147" y="125"/>
      <point x="123" y="187"/>
      <point x="123" y="217" type="qcurve" smooth="yes"/>
      <point x="123" y="243"/>
      <point x="135" y="353"/>
      <point x="156" y="498"/>
      <point x="182" y="669"/>
      <point x="209" y="847"/>
      <point x="235" y="1020"/>
      <point x="256" y="1170"/>
      <point x="268" y="1285"/>
      <point x="268" y="1316" type="qcurve" smooth="yes"/>
      <point x="268" y="1326"/>
      <point x="266" y="1359"/>
      <point x="261" y="1392"/>
      <point x="254" y="1420"/>
      <point x="249" y="1427" type="qcurve"/>
      <point x="393" y="1490" type="line"/>
      <point x="882" y="1490" type="line"/>
      <point x="906" y="1465" type="line"/>
    </contour>
  </outline>
</glyph>
<glyph name="uni0186" format="1">
  <advance width="1012"/>
  <unicode hex="0186"/>
  <outline>
    <contour>
      <point x="981" y="784" type="qcurve" smooth="yes"/>
      <point x="981" y="697"/>
      <point x="945" y="509"/>
      <point x="875" y="327"/>
      <point x="773" y="165"/>
      <point x="639" y="41"/>
      <point x="476" y="-31"/>
      <point x="381" y="-31" type="qcurve" smooth="yes"/>
      <point x="306" y="-31"/>
      <point x="191" y="14"/>
      <point x="111" y="90"/>
      <point x="70" y="187"/>
      <point x="70" y="240" type="qcurve" smooth="yes"/>
      <point x="70" y="286"/>
      <point x="91" y="385"/>
      <point x="131" y="434" type="qcurve"/>
      <point x="153" y="445"/>
      <point x="222" y="475"/>
      <point x="294" y="505"/>
      <point x="358" y="531"/>
      <point x="375" y="537" type="qcurve"/>
      <point x="387" y="487" type="line"/>
      <point x="303" y="444"/>
      <point x="229" y="343"/>
      <point x="229" y="276" type="qcurve" smooth="yes"/>
      <point x="229" y="239"/>
      <point x="261" y="169"/>
      <point x="316" y="114"/>
      <point x="392" y="80"/>
      <point x="436" y="80" type="qcurve" smooth="yes"/>
      <point x="503" y="80"/>
      <point x="615" y="144"/>
      <point x="705" y="249"/>
      <point x="773" y="385"/>
      <point x="818" y="530"/>
      <point x="840" y="673"/>
      <point x="840" y="733" type="qcurve" smooth="yes"/>
      <point x="840" y="837"/>
      <point x="785" y="1001"/>
      <point x="697" y="1114"/>
      <point x="585" y="1174"/>
      <point x="528" y="1174" type="qcurve" smooth="yes"/>
      <point x="504" y="1174"/>
      <point x="443" y="1163"/>
      <point x="365" y="1132"/>
      <point x="267" y="1078"/>
      <point x="207" y="1036" type="qcurve"/>
      <point x="202" y="1038"/>
      <point x="194" y="1051"/>
      <point x="187" y="1065"/>
      <point x="181" y="1078"/>
      <point x="180" y="1081" type="qcurve" smooth="yes"/>
      <point x="249" y="1148"/>
      <point x="366" y="1230"/>
      <point x="469" y="1275"/>
      <point x="562" y="1290"/>
      <point x="608" y="1290" type="qcurve" smooth="yes"/>
      <point x="683" y="1290"/>
      <point x="818" y="1222"/>
      <point x="920" y="1092"/>
      <point x="981" y="904"/>
    </contour>
  </outline>
</glyph>
<glyph name="uni0187" format="1">
  <advance width="995"/>
  <unicode hex="0187"/>
  <outline>
    <contour>
      <point x="1411" y="1463" type="qcurve" smooth="yes"/>
      <point x="1410" y="1455"/>
      <point x="1380" y="1424"/>
      <point x="1339" y="1391"/>
      <point x="1296" y="1362"/>
      <point x="1282" y="1355" type="qcurve"/>
      <point x="1268" y="1389"/>
      <point x="1238" y="1433"/>
      <point x="1206" y="1458"/>
      <point x="1176" y="1467"/>
      <point x="1164" y="1467" type="qcurve" smooth="yes"/>
      <point x="1107" y="1467"/>
      <point x="1036" y="1331"/>
      <point x="1017" y="1189" type="qcurve"/>
      <point x="1016" y="1189" type="line"/>
      <point x="1018" y="1183"/>
      <point x="996" y="1148"/>
      <point x="961" y="1107"/>
      <point x="924" y="1068"/>
      <point x="911" y="1057" type="qcurve"/>
      <point x="881" y="1065" type="line"/>
      <point x="840" y="1110"/>
      <point x="723" y="1169"/>
      <point x="641" y="1169" type="qcurve" smooth="yes"/>
      <point x="601" y="1169"/>
      <point x="501" y="1131"/>
      <point x="461" y="1100" type="qcurve" smooth="yes"/>
      <point x="398" y="1051"/>
      <point x="309" y="903"/>
      <point x="253" y="740"/>
      <point x="227" y="579"/>
      <point x="227" y="516" type="qcurve" smooth="yes"/>
      <point x="227" y="407"/>
      <point x="286" y="248"/>
      <point x="379" y="145"/>
      <point x="490" y="96"/>
      <point x="543" y="96" type="qcurve" smooth="yes"/>
      <point x="599" y="96"/>
      <point x="756" y="167"/>
      <point x="868" y="256" type="qcurve"/>
      <point x="873" y="254"/>
      <point x="881" y="241"/>
      <point x="889" y="227"/>
      <point x="895" y="214"/>
      <point x="897" y="211" type="qcurve" smooth="yes"/>
      <point x="829" y="143"/>
      <point x="710" y="51"/>
      <point x="602" y="-4"/>
      <point x="504" y="-27"/>
      <point x="457" y="-27" type="qcurve" smooth="yes"/>
      <point x="382" y="-27"/>
      <point x="244" y="38"/>
      <point x="139" y="162"/>
      <point x="76" y="343"/>
      <point x="76" y="459" type="qcurve" smooth="yes"/>
      <point x="76" y="553"/>
      <point x="113" y="748"/>
      <point x="191" y="933"/>
      <point x="313" y="1100"/>
      <point x="397" y="1167" type="qcurve" smooth="yes"/>
      <point x="470" y="1224"/>
      <point x="639" y="1290"/>
      <point x="733" y="1290" type="qcurve" smooth="yes"/>
      <point x="782" y="1290"/>
      <point x="867" y="1274"/>
      <point x="902" y="1260" type="qcurve"/>
      <point x="913" y="1299"/>
      <point x="943" y="1365"/>
      <point x="980" y="1422"/>
      <point x="1028" y="1473"/>
      <point x="1057" y="1498" type="qcurve" smooth="yes"/>
      <point x="1110" y="1543"/>
      <point x="1215" y="1590"/>
      <point x="1250" y="1590" type="qcurve" smooth="yes"/>
      <point x="1289" y="1590"/>
      <point x="1350" y="1557"/>
      <point x="1392" y="1514"/>
      <point x="1412" y="1472"/>
    </contour>
  </outline>
</glyph>
<glyph name="uni0188" format="1">
  <advance width="817"/>
  <unicode hex="0188"/>
  <outline>
    <contour>
      <point x="1297" y="1403" type="qcurve"/>
      <point x="1276" y="1388"/>
      <point x="1228" y="1353"/>
      <point x="1183" y="1324"/>
      <point x="1144" y="1305"/>
      <point x="1132" y="1305" type="qcurve" smooth="yes"/>
      <point x="1119" y="1305"/>
      <point x="1095" y="1340"/>
      <point x="1066" y="1382"/>
      <point x="1028" y="1417"/>
      <point x="1000" y="1417" type="qcurve" smooth="yes"/>
      <point x="934" y="1417"/>
      <point x="847" y="1271"/>
      <point x="822" y="1115" type="qcurve" smooth="yes"/>
      <point x="822" y="1113"/>
      <point x="815" y="1069"/>
      <point x="806" y="1006"/>
      <point x="796" y="933"/>
      <point x="787" y="868"/>
      <point x="780" y="820"/>
      <point x="779" y="814" type="qcurve"/>
      <point x="758" y="799"/>
      <point x="721" y="766"/>
      <point x="690" y="739"/>
      <point x="662" y="721"/>
      <point x="649" y="721" type="qcurve" smooth="yes"/>
      <point x="638" y="721"/>
      <point x="606" y="755"/>
      <point x="563" y="797"/>
      <point x="509" y="831"/>
      <point x="477" y="831" type="qcurve" smooth="yes"/>
      <point x="432" y="831"/>
      <point x="355" y="787"/>
      <point x="293" y="713"/>
      <point x="246" y="616"/>
      <point x="215" y="511"/>
      <point x="199" y="405"/>
      <point x="199" y="358" type="qcurve" smooth="yes"/>
      <point x="199" y="293"/>
      <point x="228" y="189"/>
      <point x="280" y="116"/>
      <point x="352" y="76"/>
      <point x="395" y="76" type="qcurve" smooth="yes"/>
      <point x="413" y="76"/>
      <point x="469" y="88"/>
      <point x="542" y="121"/>
      <point x="632" y="177"/>
      <point x="686" y="221" type="qcurve"/>
      <point x="694" y="210"/>
      <point x="712" y="188"/>
      <point x="717" y="180" type="qcurve"/>
      <point x="639" y="109"/>
      <point x="515" y="22"/>
      <point x="414" y="-25"/>
      <point x="333" y="-41"/>
      <point x="297" y="-41" type="qcurve" smooth="yes"/>
      <point x="263" y="-41"/>
      <point x="179" y="-7"/>
      <point x="104" y="77"/>
      <point x="53" y="217"/>
      <point x="53" y="322" type="qcurve" smooth="yes"/>
      <point x="53" y="389"/>
      <point x="81" y="532"/>
      <point x="144" y="669"/>
      <point x="245" y="793"/>
      <point x="319" y="842" type="qcurve" smooth="yes"/>
      <point x="347" y="860"/>
      <point x="415" y="894"/>
      <point x="488" y="920"/>
      <point x="559" y="936"/>
      <point x="590" y="936" type="qcurve" smooth="yes"/>
      <point x="625" y="936"/>
      <point x="654" y="923" type="qcurve"/>
      <point x="671" y="1064" type="line" smooth="yes"/>
      <point x="684" y="1142"/>
      <point x="720" y="1254"/>
      <point x="768" y="1338"/>
      <point x="827" y="1399"/>
      <point x="863" y="1426" type="qcurve" smooth="yes"/>
      <point x="889" y="1445"/>
      <point x="940" y="1480"/>
      <point x="992" y="1505"/>
      <point x="1047" y="1520"/>
      <point x="1078" y="1520" type="qcurve" smooth="yes"/>
      <point x="1122" y="1520"/>
      <point x="1190" y="1487"/>
      <point x="1242" y="1446"/>
      <point x="1282" y="1408"/>
    </contour>
  </outline>
</glyph>
<glyph name="uni018A" format="1">
  <advance width="1300"/>
  <unicode hex="018A"/>
  <outline>
    <contour>
      <point x="649" y="1206" type="line"/>
      <point x="506" y="154" type="line" smooth="yes"/>
      <point x="506" y="152"/>
      <point x="505" y="151"/>
      <point x="505" y="149" type="qcurve" smooth="yes"/>
      <point x="506" y="150" type="line" smooth="yes"/>
      <point x="505" y="146"/>
      <point x="505" y="142" type="qcurve" smooth="yes"/>
      <point x="505" y="139"/>
      <point x="505" y="136" type="qcurve" smooth="yes"/>
      <point x="506" y="131"/>
      <point x="508" y="123" type="qcurve" smooth="yes"/>
      <point x="516" y="103"/>
      <point x="586" y="84"/>
      <point x="661" y="84" type="qcurve" smooth="yes"/>
      <point x="723" y="84"/>
      <point x="866" y="141"/>
      <point x="996" y="268"/>
      <point x="1096" y="470"/>
      <point x="1116" y="616" type="qcurve" smooth="yes"/>
      <point x="1125" y="684"/>
      <point x="1121" y="820"/>
      <point x="1093" y="945"/>
      <point x="1041" y="1052"/>
      <point x="1002" y="1091" type="qcurve" smooth="yes"/>
      <point x="973" y="1120"/>
      <point x="912" y="1163"/>
      <point x="832" y="1192"/>
      <point x="728" y="1206"/>
      <point x="657" y="1206" type="qcurve" smooth="yes"/>
    </contour>
    <contour>
      <point x="123" y="1003" type="qcurve" smooth="yes"/>
      <point x="133" y="1079"/>
      <point x="231" y="1188"/>
      <point x="390" y="1257"/>
      <point x="602" y="1290"/>
      <point x="727" y="1290" type="qcurve" smooth="yes"/>
      <point x="800" y="1290"/>
      <point x="912" y="1278"/>
      <point x="999" y="1253"/>
      <point x="1068" y="1217"/>
      <point x="1099" y="1193" type="qcurve" smooth="yes"/>
      <point x="1156" y="1148"/>
      <point x="1235" y="1026"/>
      <point x="1280" y="883"/>
      <point x="1291" y="726"/>
      <point x="1280" y="646" type="qcurve" smooth="yes"/>
      <point x="1263" y="523"/>
      <point x="1195" y="332"/>
      <point x="1101" y="189"/>
      <point x="987" y="89"/>
      <point x="863" y="28"/>
      <point x="733" y="0"/>
      <point x="670" y="0" type="qcurve" smooth="yes"/>
      <point x="212" y="0" type="line"/>
      <point x="217" y="43" type="line"/>
      <point x="280" y="57"/>
      <point x="354" y="90"/>
      <point x="356" y="104" type="qcurve" smooth="yes"/>
      <point x="504" y="1196" type="line"/>
      <point x="393" y="1180"/>
      <point x="283" y="1099"/>
      <point x="275" y="1036" type="qcurve" smooth="yes"/>
      <point x="270" y="1000"/>
      <point x="297" y="944"/>
      <point x="323" y="930" type="qcurve"/>
      <point x="320" y="924"/>
      <point x="288" y="902"/>
      <point x="245" y="880"/>
      <point x="198" y="860"/>
      <point x="179" y="856" type="qcurve"/>
      <point x="148" y="872"/>
      <point x="115" y="948"/>
    </contour>
  </outline>
</glyph>
<glyph name="uni018D" format="1">
  <advance width="879"/>
  <unicode hex="018D"/>
  <outline>
    <contour>
      <point x="198" y="525" type="qcurve" smooth="yes"/>
      <point x="184" y="426"/>
      <point x="217" y="282"/>
      <point x="286" y="175"/>
      <point x="382" y="96"/>
      <point x="433" y="63" type="qcurve"/>
      <point x="525" y="124"/>
      <point x="634" y="311"/>
      <point x="651" y="426" type="qcurve" smooth="yes"/>
      <point x="661" y="500"/>
      <point x="639" y="641"/>
      <point x="582" y="751"/>
      <point x="492" y="818"/>
      <point x="433" y="818" type="qcurve" smooth="yes"/>
      <point x="394" y="818"/>
      <point x="318" y="774"/>
      <point x="253" y="696"/>
      <point x="207" y="589"/>
    </contour>
    <contour>
      <point x="-100" y="-372" type="qcurve"/>
      <point x="-66" y="-339"/>
      <point x="5" y="-278"/>
      <point x="68" y="-232"/>
      <point x="114" y="-205"/>
      <point x="123" y="-205" type="qcurve" smooth="yes"/>
      <point x="133" y="-205"/>
      <point x="175" y="-236"/>
      <point x="229" y="-282"/>
      <point x="292" y="-337"/>
      <point x="356" y="-383"/>
      <point x="419" y="-414"/>
      <point x="445" y="-414" type="qcurve" smooth="yes"/>
      <point x="461" y="-414"/>
      <point x="498" y="-399"/>
      <point x="530" y="-370"/>
      <point x="554" y="-331"/>
      <point x="557" y="-307" type="qcurve" smooth="yes"/>
      <point x="564" y="-259"/>
      <point x="521" y="-184"/>
      <point x="445" y="-118"/>
      <point x="344" y="-56"/>
      <point x="239" y="15"/>
      <point x="141" y="102"/>
      <point x="71" y="215"/>
      <point x="39" y="361"/>
      <point x="52" y="457" type="qcurve" smooth="yes"/>
      <point x="64" y="548"/>
      <point x="152" y="720"/>
      <point x="278" y="854"/>
      <point x="426" y="936"/>
      <point x="498" y="936" type="qcurve" smooth="yes"/>
      <point x="588" y="936"/>
      <point x="712" y="860"/>
      <point x="784" y="733"/>
      <point x="807" y="569"/>
      <point x="795" y="481" type="qcurve" smooth="yes"/>
      <point x="773" y="324"/>
      <point x="620" y="91"/>
      <point x="505" y="16" type="qcurve"/>
      <point x="543" y="-9"/>
      <point x="610" y="-63"/>
      <point x="657" y="-128"/>
      <point x="678" y="-208"/>
      <point x="671" y="-260" type="qcurve" smooth="yes"/>
      <point x="665" y="-305"/>
      <point x="614" y="-393"/>
      <point x="541" y="-461"/>
      <point x="453" y="-503"/>
      <point x="410" y="-503" type="qcurve" smooth="yes"/>
      <point x="350" y="-503"/>
      <point x="250" y="-461"/>
      <point x="163" y="-412"/>
      <point x="85" y="-370"/>
      <point x="46" y="-370" type="qcurve" smooth="yes"/>
      <point x="8" y="-370"/>
      <point x="-61" y="-393"/>
      <point x="-82" y="-408" type="qcurve"/>
      <point x="-87" y="-403"/>
      <point x="-92" y="-386"/>
    </contour>
  </outline>
</glyph>
<glyph name="uni0190" format="1">
  <advance width="938"/>
  <unicode hex="0190"/>
  <outline>
    <contour>
      <point x="946" y="1186" type="qcurve"/>
      <point x="928" y="1152"/>
      <point x="866" y="1084"/>
      <point x="838" y="1055" type="qcurve"/>
      <point x="801" y="1063" type="line"/>
      <point x="776" y="1090"/>
      <point x="727" y="1130"/>
      <point x="672" y="1157"/>
      <point x="608" y="1171"/>
      <point x="568" y="1171" type="qcurve" smooth="yes"/>
      <point x="513" y="1171"/>
      <point x="415" y="1135"/>
      <point x="341" y="1070"/>
      <point x="297" y="980"/>
      <point x="297" y="927" type="qcurve" smooth="yes"/>
      <point x="297" y="889"/>
      <point x="331" y="813"/>
      <point x="409" y="749"/>
      <point x="536" y="706"/>
      <point x="629" y="702" type="qcurve"/>
      <point x="618" y="631" type="line"/>
      <point x="558" y="629"/>
      <point x="414" y="594"/>
      <point x="288" y="522"/>
      <point x="203" y="409"/>
      <point x="203" y="331" type="qcurve" smooth="yes"/>
      <point x="203" y="273"/>
      <point x="239" y="187"/>
      <point x="304" y="129"/>
      <point x="393" y="100"/>
      <point x="446" y="100" type="qcurve" smooth="yes"/>
      <point x="491" y="100"/>
      <point x="561" y="111"/>
      <point x="639" y="145"/>
      <point x="737" y="207"/>
      <point x="809" y="258" type="qcurve"/>
      <point x="840" y="213" type="line"/>
      <point x="762" y="137"/>
      <point x="642" y="42"/>
      <point x="532" y="-12"/>
      <point x="419" y="-31"/>
      <point x="350" y="-31" type="qcurve" smooth="yes"/>
      <point x="274" y="-31"/>
      <point x="162" y="21"/>
      <point x="89" y="106"/>
      <point x="53" y="214"/>
      <point x="53" y="270" type="qcurve" smooth="yes"/>
      <point x="53" y="337"/>
      <point x="104" y="456"/>
      <point x="186" y="556"/>
      <point x="287" y="632"/>
      <point x="338" y="655" type="qcurve"/>
      <point x="303" y="670"/>
      <point x="241" y="713"/>
      <point x="195" y="768"/>
      <point x="168" y="836"/>
      <point x="168" y="876" type="qcurve" smooth="yes"/>
      <point x="168" y="984"/>
      <point x="270" y="1140"/>
      <point x="361" y="1202" type="qcurve" smooth="yes"/>
      <point x="425" y="1245"/>
      <point x="569" y="1290"/>
      <point x="641" y="1290" type="qcurve" smooth="yes"/>
      <point x="738" y="1290"/>
      <point x="897" y="1240"/>
    </contour>
  </outline>
</glyph>
<glyph name="florin" format="1">
  <advance width="559"/>
  <unicode hex="0192"/>
  <outline>
    <contour>
      <point x="903" y="1403" type="qcurve"/>
      <point x="882" y="1388"/>
      <point x="834" y="1353"/>
      <point x="788" y="1324"/>
      <point x="749" y="1305"/>
      <point x="737" y="1305" type="qcurve" smooth="yes"/>
      <point x="724" y="1305"/>
      <point x="698" y="1340"/>
      <point x="666" y="1382"/>
      <point x="624" y="1417"/>
      <point x="596" y="1417" type="qcurve" smooth="yes"/>
      <point x="558" y="1417"/>
      <point x="500" y="1372"/>
      <point x="456" y="1297"/>
      <point x="424" y="1200"/>
      <point x="402" y="1096"/>
      <point x="387" y="994"/>
      <point x="383" y="952" type="qcurve" smooth="yes"/>
      <point x="381" y="941"/>
      <point x="379" y="917"/>
      <point x="377" y="905" type="qcurve"/>
      <point x="633" y="905" type="line"/>
      <point x="653" y="877" type="line"/>
      <point x="643" y="863"/>
      <point x="609" y="830"/>
      <point x="571" y="800"/>
      <point x="536" y="775"/>
      <point x="526" y="770" type="qcurve"/>
      <point x="521" y="784"/>
      <point x="500" y="801"/>
      <point x="464" y="811"/>
      <point x="410" y="815"/>
      <point x="373" y="815" type="qcurve" smooth="yes"/>
      <point x="367" y="815" type="line"/>
      <point x="360" y="753"/>
      <point x="346" y="612"/>
      <point x="331" y="468"/>
      <point x="315" y="327"/>
      <point x="300" y="202"/>
      <point x="286" y="100"/>
      <point x="280" y="67" type="qcurve" smooth="yes"/>
      <point x="259" y="-36"/>
      <point x="209" y="-180"/>
      <point x="143" y="-290"/>
      <point x="58" y="-378"/>
      <point x="2" y="-424" type="qcurve" smooth="yes"/>
      <point x="-25" y="-447"/>
      <point x="-89" y="-476"/>
      <point x="-150" y="-493"/>
      <point x="-204" y="-500"/>
      <point x="-221" y="-500" type="qcurve" smooth="yes"/>
      <point x="-250" y="-500"/>
      <point x="-312" y="-484"/>
      <point x="-363" y="-460"/>
      <point x="-397" y="-434"/>
      <point x="-397" y="-424" type="qcurve" smooth="yes"/>
      <point x="-397" y="-411"/>
      <point x="-371" y="-369"/>
      <point x="-337" y="-330"/>
      <point x="-301" y="-301"/>
      <point x="-291" y="-301" type="qcurve" smooth="yes"/>
      <point x="-282" y="-301"/>
      <point x="-258" y="-327"/>
      <point x="-218" y="-357"/>
      <point x="-159" y="-383"/>
      <point x="-115" y="-383" type="qcurve" smooth="yes"/>
      <point x="-71" y="-383"/>
      <point x="2" y="-329"/>
      <point x="62" y="-228"/>
      <point x="110" y="-81"/>
      <point x="129" y="12" type="qcurve" smooth="yes"/>
      <point x="139" y="59"/>
      <point x="156" y="183"/>
      <point x="173" y="324"/>
      <point x="187" y="474"/>
      <point x="201" y="621"/>
      <point x="213" y="758"/>
      <point x="219" y="815" type="qcurve"/>
      <point x="68" y="815" type="line"/>
      <point x="53" y="846" type="line"/>
      <point x="154" y="905" type="line"/>
      <point x="230" y="905" type="line"/>
      <point x="241" y="985"/>
      <point x="268" y="1133"/>
      <point x="317" y="1265"/>
      <point x="396" y="1380"/>
      <point x="459" y="1427" type="qcurve" smooth="yes"/>
      <point x="486" y="1446"/>
      <point x="536" y="1480"/>
      <point x="588" y="1506"/>
      <point x="643" y="1520"/>
      <point x="674" y="1520" type="qcurve" smooth="yes"/>
      <point x="718" y="1520"/>
      <point x="789" y="1487"/>
      <point x="845" y="1446"/>
      <point x="888" y="1408"/>
    </contour>
  </outline>
</glyph>
<glyph name="uni0193" format="1">
  <advance width="1073"/>
  <unicode hex="0193"/>
  <outline>
    <contour>
      <point x="1057" y="539" type="line"/>
      <point x="1003" y="523"/>
      <point x="953" y="480"/>
      <point x="950" y="457" type="qcurve" smooth="yes"/>
      <point x="909" y="160" type="line"/>
      <point x="909" y="160"/>
      <point x="908" y="159"/>
      <point x="906" y="158" type="qcurve"/>
      <point x="907" y="156"/>
      <point x="909" y="154" type="qcurve"/>
      <point x="833" y="93"/>
      <point x="717" y="20"/>
      <point x="623" y="-19"/>
      <point x="542" y="-31"/>
      <point x="502" y="-31" type="qcurve" smooth="yes"/>
      <point x="419" y="-31"/>
      <point x="265" y="36"/>
      <point x="147" y="165"/>
      <point x="76" y="353"/>
      <point x="76" y="473" type="qcurve" smooth="yes"/>
      <point x="76" y="568"/>
      <point x="121" y="761"/>
      <point x="201" y="938"/>
      <point x="313" y="1089"/>
      <point x="381" y="1143" type="qcurve" smooth="yes"/>
      <point x="466" y="1209"/>
      <point x="674" y="1290"/>
      <point x="793" y="1290" type="qcurve" smooth="yes"/>
      <point x="825" y="1290"/>
      <point x="903" y="1274"/>
      <point x="941" y="1258" type="qcurve"/>
      <point x="964" y="1337"/>
      <point x="1038" y="1448"/>
      <point x="1098" y="1498" type="qcurve" smooth="yes"/>
      <point x="1124" y="1520"/>
      <point x="1177" y="1555"/>
      <point x="1228" y="1578"/>
      <point x="1273" y="1590"/>
      <point x="1291" y="1590" type="qcurve" smooth="yes"/>
      <point x="1330" y="1590"/>
      <point x="1391" y="1557"/>
      <point x="1432" y="1514"/>
      <point x="1453" y="1472"/>
      <point x="1452" y="1463" type="qcurve" smooth="yes"/>
      <point x="1451" y="1455"/>
      <point x="1421" y="1424"/>
      <point x="1380" y="1391"/>
      <point x="1337" y="1362"/>
      <point x="1323" y="1355" type="qcurve"/>
      <point x="1309" y="1389"/>
      <point x="1278" y="1433"/>
      <point x="1247" y="1458"/>
      <point x="1217" y="1467"/>
      <point x="1205" y="1467" type="qcurve" smooth="yes"/>
      <point x="1148" y="1467"/>
      <point x="1077" y="1327"/>
      <point x="1057" y="1184" type="qcurve" smooth="yes"/>
      <point x="1058" y="1176"/>
      <point x="1033" y="1142"/>
      <point x="999" y="1104"/>
      <point x="961" y="1067"/>
      <point x="948" y="1057" type="qcurve"/>
      <point x="920" y="1063" type="line"/>
      <point x="894" y="1094"/>
      <point x="836" y="1136"/>
      <point x="769" y="1161"/>
      <point x="692" y="1171"/>
      <point x="647" y="1171" type="qcurve" smooth="yes"/>
      <point x="609" y="1171"/>
      <point x="500" y="1119"/>
      <point x="446" y="1075" type="qcurve" smooth="yes"/>
      <point x="395" y="1034"/>
      <point x="314" y="902"/>
      <point x="256" y="747"/>
      <point x="225" y="586"/>
      <point x="225" y="516" type="qcurve" smooth="yes"/>
      <point x="225" y="409"/>
      <point x="290" y="252"/>
      <point x="392" y="148"/>
      <point x="518" y="98"/>
      <point x="580" y="98" type="qcurve" smooth="yes"/>
      <point x="634" y="98"/>
      <point x="738" y="130"/>
      <point x="773" y="156" type="qcurve"/>
      <point x="813" y="457" type="line" smooth="yes"/>
      <point x="814" y="467"/>
      <point x="804" y="487"/>
      <point x="759" y="507"/>
      <point x="671" y="527"/>
      <point x="596" y="539" type="qcurve"/>
      <point x="602" y="582" type="line"/>
      <point x="1063" y="582" type="line"/>
    </contour>
  </outline>
</glyph>
<glyph name="uni0194" format="1">
  <advance width="1107"/>
  <unicode hex="0194"/>
  <outline>
    <contour>
      <point x="607" y="168" type="qcurve" smooth="yes"/>
      <point x="609" y="184"/>
      <point x="607" y="221"/>
      <point x="595" y="270"/>
      <point x="573" y="334"/>
      <point x="556" y="377" type="qcurve"/>
      <point x="468" y="251"/>
      <point x="462" y="199" type="qcurve" smooth="yes"/>
      <point x="457" y="164"/>
      <point x="464" y="118"/>
      <point x="482" y="89"/>
      <point x="509" y="77"/>
      <point x="524" y="77" type="qcurve" smooth="yes"/>
      <point x="552" y="77"/>
      <point x="601" y="122"/>
    </contour>
    <contour>
      <point x="1199" y="1217" type="line"/>
      <point x="1169" y="1211"/>
      <point x="1131" y="1201"/>
      <point x="1103" y="1180"/>
      <point x="1075" y="1144"/>
      <point x="1054" y="1113" type="qcurve" smooth="yes"/>
      <point x="659" y="523" type="line"/>
      <point x="670" y="497" type="line" smooth="yes"/>
      <point x="693" y="441"/>
      <point x="723" y="358"/>
      <point x="738" y="293"/>
      <point x="741" y="241"/>
      <point x="738" y="215" type="qcurve" smooth="yes"/>
      <point x="732" y="174"/>
      <point x="696" y="88"/>
      <point x="636" y="16"/>
      <point x="552" y="-30"/>
      <point x="498" y="-30" type="qcurve" smooth="yes"/>
      <point x="465" y="-30"/>
      <point x="405" y="-2"/>
      <point x="363" y="51"/>
      <point x="344" y="127"/>
      <point x="350" y="176" type="qcurve" smooth="yes"/>
      <point x="353" y="201"/>
      <point x="369" y="248"/>
      <point x="395" y="299"/>
      <point x="433" y="360"/>
      <point x="459" y="399" type="qcurve" smooth="yes"/>
      <point x="514" y="481" type="line"/>
      <point x="260" y="1115" type="line" smooth="yes"/>
      <point x="250" y="1142"/>
      <point x="231" y="1178"/>
      <point x="205" y="1201"/>
      <point x="170" y="1214"/>
      <point x="143" y="1217" type="qcurve"/>
      <point x="149" y="1260" type="line"/>
      <point x="501" y="1260" type="line"/>
      <point x="495" y="1217" type="line"/>
      <point x="459" y="1212"/>
      <point x="420" y="1199"/>
      <point x="405" y="1177"/>
      <point x="411" y="1142"/>
      <point x="422" y="1115" type="qcurve" smooth="yes"/>
      <point x="616" y="632" type="line"/>
      <point x="939" y="1113" type="line" smooth="yes"/>
      <point x="959" y="1143"/>
      <point x="975" y="1179"/>
      <point x="964" y="1200"/>
      <point x="927" y="1211"/>
      <point x="894" y="1217" type="qcurve"/>
      <point x="900" y="1260" type="line"/>
      <point x="1205" y="1260" type="line"/>
      <point x="1199" y="1217" type="line"/>
    </contour>
  </outline>
</glyph>
<glyph name="uni0196" format="1">
  <advance width="642"/>
  <unicode hex="0196"/>
  <outline>
    <contour>
      <point x="570" y="205" type="line" smooth="yes"/>
      <point x="515" y="130"/>
      <point x="429" y="37"/>
      <point x="358" y="-13"/>
      <point x="299" y="-30"/>
      <point x="272" y="-30" type="qcurve" smooth="yes"/>
      <point x="247" y="-30"/>
      <point x="204" y="-1"/>
      <point x="178" y="70"/>
      <point x="174" y="190"/>
      <point x="189" y="281" type="qcurve" smooth="yes"/>
      <point x="297" y="935" type="line" smooth="yes"/>
      <point x="306" y="1004"/>
      <point x="315" y="1086"/>
      <point x="291" y="1133"/>
      <point x="226" y="1154"/>
      <point x="162" y="1160" type="qcurve"/>
      <point x="168" y="1203" type="line"/>
      <point x="207" y="1211"/>
      <point x="287" y="1228"/>
      <point x="365" y="1248"/>
      <point x="438" y="1273"/>
      <point x="470" y="1290" type="qcurve"/>
      <point x="503" y="1290" type="line"/>
      <point x="358" y="415" type="line" smooth="yes"/>
      <point x="346" y="325"/>
      <point x="337" y="219"/>
      <point x="344" y="164"/>
      <point x="367" y="149"/>
      <point x="387" y="149" type="qcurve" smooth="yes"/>
      <point x="400" y="149"/>
      <point x="432" y="159"/>
      <point x="475" y="188"/>
      <point x="532" y="243"/>
      <point x="571" y="288" type="qcurve"/>
      <point x="599" y="245" type="line"/>
    </contour>
  </outline>
</glyph>
<glyph name="uni0197" format="1">
  <advance width="573"/>
  <unicode hex="0197"/>
  <outline>
    <contour>
      <point x="523" y="614" type="line"/>
      <point x="382" y="614" type="line"/>
      <point x="311" y="104" type="line" smooth="yes"/>
      <point x="309" y="92"/>
      <point x="371" y="57"/>
      <point x="436" y="43" type="qcurve"/>
      <point x="430" y="0" type="line"/>
      <point x="20" y="0" type="line"/>
      <point x="27" y="43" type="line"/>
      <point x="90" y="57"/>
      <point x="165" y="90"/>
      <point x="168" y="104" type="qcurve" smooth="yes"/>
      <point x="237" y="614" type="line"/>
      <point x="98" y="614" type="line"/>
      <point x="82" y="639" type="line"/>
      <point x="88" y="654"/>
      <point x="102" y="689"/>
      <point x="110" y="705" type="qcurve"/>
      <point x="250" y="705" type="line"/>
      <point x="311" y="1155" type="line" smooth="yes"/>
      <point x="313" y="1167"/>
      <point x="251" y="1203"/>
      <point x="188" y="1217" type="qcurve"/>
      <point x="195" y="1260" type="line"/>
      <point x="604" y="1260" type="line"/>
      <point x="598" y="1217" type="line"/>
      <point x="535" y="1203"/>
      <point x="459" y="1169"/>
      <point x="457" y="1155" type="qcurve" smooth="yes"/>
      <point x="394" y="705" type="line"/>
      <point x="533" y="705" type="line"/>
      <point x="552" y="682" type="line"/>
    </contour>
  </outline>
</glyph>
<glyph name="uni0198" format="1">
  <advance width="1177"/>
  <unicode hex="0198"/>
  <outline>
    <contour>
      <point x="578" y="1217" type="line"/>
      <point x="515" y="1203"/>
      <point x="439" y="1169"/>
      <point x="436" y="1155" type="qcurve" smooth="yes"/>
      <point x="293" y="104" type="line" smooth="yes"/>
      <point x="290" y="92"/>
      <point x="353" y="57"/>
      <point x="416" y="43" type="qcurve"/>
      <point x="410" y="0" type="line"/>
      <point x="0" y="0" type="line"/>
      <point x="6" y="43" type="line"/>
      <point x="69" y="57"/>
      <point x="145" y="90"/>
      <point x="147" y="104" type="qcurve" smooth="yes"/>
      <point x="293" y="1155" type="line" smooth="yes"/>
      <point x="295" y="1167"/>
      <point x="233" y="1203"/>
      <point x="168" y="1217" type="qcurve"/>
      <point x="174" y="1260" type="line"/>
      <point x="584" y="1260" type="line"/>
    </contour>
    <contour>
      <point x="1077" y="111" type="line"/>
      <point x="1039" y="82"/>
      <point x="966" y="35"/>
      <point x="901" y="3"/>
      <point x="846" y="-14"/>
      <point x="827" y="-14" type="qcurve" smooth="yes"/>
      <point x="812" y="-14"/>
      <point x="787" y="-9"/>
      <point x="765" y="6"/>
      <point x="743" y="31"/>
      <point x="731" y="51" type="qcurve" smooth="yes"/>
      <point x="367" y="643" type="line"/>
      <point x="369" y="645" type="line"/>
      <point x="754" y="1103" type="line" smooth="yes"/>
      <point x="892" y="1270"/>
      <point x="1032" y="1270" type="qcurve" smooth="yes"/>
      <point x="1074" y="1270"/>
      <point x="1146" y="1245"/>
      <point x="1196" y="1191"/>
      <point x="1219" y="1106"/>
      <point x="1211" y="1046" type="qcurve" smooth="yes"/>
      <point x="1205" y="998"/>
      <point x="1186" y="943" type="qcurve" smooth="yes"/>
      <point x="1183" y="935"/>
      <point x="1144" y="910"/>
      <point x="1092" y="885"/>
      <point x="1036" y="862"/>
      <point x="1014" y="856" type="qcurve"/>
      <point x="1002" y="885" type="line"/>
      <point x="1045" y="969"/>
      <point x="1051" y="1027" type="qcurve" smooth="yes"/>
      <point x="1058" y="1088"/>
      <point x="1017" y="1151"/>
      <point x="979" y="1151" type="qcurve" smooth="yes"/>
      <point x="943" y="1151"/>
      <point x="861" y="1088"/>
      <point x="821" y="1036" type="qcurve"/>
      <point x="825" y="1042" type="line"/>
      <point x="507" y="675" type="line"/>
      <point x="856" y="156" type="line" smooth="yes"/>
      <point x="870" y="135"/>
      <point x="902" y="113"/>
      <point x="947" y="110"/>
      <point x="1012" y="128"/>
      <point x="1059" y="147" type="qcurve"/>
      <point x="1077" y="111" type="line"/>
    </contour>
  </outline>
</glyph>
